<svg width="229" height="223" viewBox="0 0 229 223" fill="none" xmlns="http://www.w3.org/2000/svg">
<g filter="url(#filter0_dd)">
<rect x="3.79657" y="146.676" width="422.214" height="75.9037" rx="10" transform="rotate(-20 3.79657 146.676)" fill="white"/>
</g>
<path d="M82.6612 171.407C83.1813 172.52 84.5994 173.153 86.1555 172.587C87.7793 171.996 88.433 170.494 87.9323 169.118C87.3823 167.607 86.0012 167.075 84.5691 167.596C83.994 167.806 83.4733 168.2 83.2776 168.679L83.0555 166.385L86.179 165.248L85.8096 164.233L81.9531 165.637L82.3275 169.613C82.7489 169.613 83.1292 169.64 83.566 169.647C83.7627 169.205 84.185 168.822 84.7037 168.633C85.5494 168.325 86.467 168.566 86.8323 169.569C87.1607 170.471 86.6709 171.301 85.8026 171.617C84.8892 171.949 84.0023 171.583 83.6063 170.705L82.6612 171.407ZM89.2238 167.128C88.8175 166.012 88.7332 165.149 89.0047 164.526C89.1799 164.13 89.4751 163.819 89.9938 163.63C90.5125 163.441 90.939 163.49 91.3276 163.681C91.9357 163.983 92.4259 164.698 92.8323 165.815C93.2386 166.931 93.3229 167.794 93.0514 168.417C92.8762 168.813 92.581 169.124 92.0623 169.313C91.5436 169.502 91.1171 169.453 90.7285 169.262C90.1204 168.96 89.6302 168.245 89.2238 167.128ZM88.13 167.526C88.4953 168.53 89.001 169.393 89.7486 169.938C90.4807 170.476 91.382 170.672 92.4194 170.294C93.4568 169.917 94.0215 169.187 94.2365 168.305C94.4587 167.407 94.2913 166.42 93.9261 165.417C93.5608 164.413 93.0551 163.55 92.3075 163.005C91.5754 162.467 90.6741 162.271 89.6367 162.649C88.5993 163.026 88.0346 163.756 87.8196 164.638C87.5974 165.536 87.7648 166.523 88.13 167.526ZM95.8247 164.726C95.4184 163.609 95.3341 162.746 95.6056 162.124C95.7808 161.728 96.0759 161.416 96.5947 161.227C97.1134 161.039 97.5399 161.088 97.9285 161.278C98.5365 161.581 99.0268 162.296 99.4331 163.412C99.8395 164.529 99.9238 165.392 99.6523 166.014C99.4771 166.41 99.1819 166.722 98.6632 166.911C98.1445 167.099 97.718 167.05 97.3294 166.86C96.7213 166.558 96.231 165.842 95.8247 164.726ZM94.7309 165.124C95.0962 166.127 95.6019 166.99 96.3494 167.536C97.0816 168.074 97.9828 168.269 99.0203 167.892C100.058 167.514 100.622 166.785 100.837 165.902C101.06 165.004 100.892 164.018 100.527 163.014C100.162 162.011 99.656 161.148 98.9084 160.602C98.1762 160.064 97.275 159.869 96.2376 160.246C95.2002 160.624 94.6355 161.353 94.4204 162.236C94.1982 163.134 94.3656 164.12 94.7309 165.124ZM103.685 156.948L102.659 157.322L101.701 166.724L102.727 166.351L103.685 156.948ZM108.541 161.987C109.061 163.101 110.479 163.734 112.035 163.167C113.659 162.576 114.313 161.074 113.812 159.699C113.262 158.188 111.881 157.656 110.449 158.177C109.874 158.386 109.353 158.78 109.157 159.26L108.935 156.966L112.059 155.829L111.689 154.814L107.833 156.218L108.207 160.193C108.628 160.193 109.009 160.221 109.446 160.228C109.642 159.786 110.065 159.402 110.583 159.214C111.429 158.906 112.347 159.146 112.712 160.15C113.04 161.052 112.55 161.882 111.682 162.198C110.769 162.53 109.882 162.163 109.486 161.286L108.541 161.987ZM115.103 157.709C114.697 156.592 114.613 155.729 114.884 155.107C115.059 154.711 115.355 154.399 115.873 154.21C116.392 154.022 116.819 154.071 117.207 154.261C117.815 154.564 118.306 155.279 118.712 156.395C119.118 157.512 119.202 158.375 118.931 158.997C118.756 159.393 118.461 159.705 117.942 159.894C117.423 160.083 116.997 160.033 116.608 159.843C116 159.541 115.51 158.825 115.103 157.709ZM114.01 158.107C114.375 159.111 114.881 159.974 115.628 160.519C116.36 161.057 117.262 161.252 118.299 160.875C119.336 160.497 119.901 159.768 120.116 158.885C120.338 157.987 120.171 157.001 119.806 155.997C119.44 154.994 118.935 154.131 118.187 153.585C117.455 153.047 116.554 152.852 115.516 153.229C114.479 153.607 113.914 154.336 113.699 155.219C113.477 156.117 113.644 157.103 114.01 158.107ZM121.704 155.306C121.298 154.19 121.214 153.327 121.485 152.704C121.66 152.309 121.956 151.997 122.474 151.808C122.993 151.619 123.419 151.668 123.808 151.859C124.416 152.161 124.906 152.877 125.313 153.993C125.719 155.109 125.803 155.972 125.532 156.595C125.357 156.991 125.061 157.302 124.543 157.491C124.024 157.68 123.598 157.631 123.209 157.44C122.601 157.138 122.111 156.423 121.704 155.306ZM120.61 155.704C120.976 156.708 121.481 157.571 122.229 158.116C122.961 158.654 123.862 158.85 124.9 158.472C125.937 158.095 126.502 157.366 126.717 156.483C126.939 155.585 126.772 154.598 126.407 153.595C126.041 152.591 125.536 151.728 124.788 151.183C124.056 150.645 123.155 150.449 122.117 150.827C121.08 151.205 120.515 151.934 120.3 152.816C120.078 153.715 120.245 154.701 120.61 155.704Z" fill="#97A0AE"/>
<path d="M74.548 149.117C75.0681 150.231 76.4862 150.864 78.0423 150.297C79.6661 149.706 80.3198 148.204 79.819 146.829C79.2691 145.318 77.8879 144.786 76.4558 145.307C75.8808 145.516 75.3601 145.91 75.1644 146.39L74.9422 144.096L78.0658 142.959L77.6964 141.944L73.8399 143.348L74.2143 147.323C74.6356 147.323 75.016 147.351 75.4527 147.358C75.6495 146.916 76.0717 146.532 76.5905 146.344C77.4362 146.036 78.3538 146.276 78.7191 147.28C79.0474 148.182 78.5576 149.012 77.6894 149.328C76.776 149.66 75.889 149.293 75.493 148.416L74.548 149.117ZM80.4555 142.855C80.2708 142.348 80.5188 141.836 81.0037 141.66C81.4998 141.479 82.0074 141.716 82.1921 142.223C82.3809 142.742 82.1442 143.25 81.648 143.43C81.1631 143.607 80.6443 143.374 80.4555 142.855ZM79.5196 143.196C79.8849 144.2 81.0025 144.674 81.9723 144.321C82.942 143.968 83.5045 142.882 83.1393 141.878C82.7781 140.886 81.6492 140.416 80.6794 140.769C79.7097 141.122 79.1584 142.204 79.5196 143.196ZM86.3492 145.154C86.1645 144.647 86.4125 144.135 86.8973 143.959C87.3935 143.778 87.9011 144.015 88.0858 144.522C88.2746 145.041 88.0379 145.548 87.5417 145.729C87.0568 145.905 86.538 145.673 86.3492 145.154ZM85.4133 145.495C85.7785 146.498 86.8962 146.973 87.8659 146.62C88.8357 146.267 89.3982 145.181 89.033 144.177C88.6718 143.185 87.5429 142.715 86.5731 143.068C85.6034 143.421 85.0521 144.503 85.4133 145.495ZM83.503 148.106L86.0757 138.894L85.0608 139.264L82.4656 148.483L83.503 148.106ZM94.7423 142.904L92.5465 136.871L94.2042 136.268C95.6814 135.73 97.2686 136.302 98.0032 138.32C98.7338 140.327 97.8546 141.771 96.3774 142.309L94.7423 142.904ZM96.7683 143.277C98.798 142.539 100.094 140.522 99.1421 137.906C98.1859 135.278 95.9107 134.536 93.8809 135.274L91.0844 136.292L93.9943 144.287L96.7683 143.277ZM103.046 140.993L101.072 135.569L100.023 135.95L101.997 141.374L103.046 140.993ZM99.0395 133.984C99.1913 134.401 99.6528 134.617 100.07 134.465C100.498 134.309 100.714 133.847 100.562 133.43C100.406 133.002 99.9444 132.786 99.5159 132.942C99.0987 133.094 98.8835 133.556 99.0395 133.984ZM103.829 139.111C104.145 139.699 105.125 140.427 106.614 139.886C107.956 139.397 108.266 138.25 107.987 137.483C107.695 136.682 106.959 136.274 105.9 136.416L104.951 136.545C104.501 136.606 104.212 136.444 104.093 136.117C103.957 135.744 104.191 135.263 104.732 135.066C105.589 134.755 106.04 135.293 106.188 135.558L106.997 134.868C106.708 134.424 105.892 133.623 104.404 134.164C103.344 134.55 102.763 135.656 103.099 136.58C103.378 137.347 104.095 137.737 105.007 137.61L106.005 137.476C106.493 137.414 106.836 137.583 106.959 137.921C107.098 138.304 106.894 138.762 106.297 138.979C105.53 139.258 104.937 138.963 104.664 138.424L103.829 139.111ZM110.492 133.059C111.417 132.723 112.037 133.199 112.365 133.68L113.176 132.925C112.651 132.184 111.578 131.553 110.135 132.078C108.59 132.641 107.837 134.256 108.453 135.947C109.052 137.593 110.665 138.411 112.244 137.836C113.653 137.323 114.099 136.127 114.075 135.254L112.991 135.189C113.023 135.663 112.901 136.486 111.887 136.855C111.007 137.176 109.987 136.793 109.535 135.553C109.076 134.29 109.635 133.371 110.492 133.059ZM117.857 134.721C116.955 135.049 115.92 134.66 115.46 133.397C115.004 132.145 115.547 131.181 116.449 130.853C117.352 130.524 118.387 130.914 118.843 132.165C119.302 133.428 118.759 134.392 117.857 134.721ZM116.105 129.906C114.481 130.497 113.778 132.144 114.377 133.791C114.981 135.448 116.578 136.259 118.202 135.668C119.826 135.077 120.529 133.429 119.925 131.771C119.326 130.125 117.728 129.315 116.105 129.906ZM125.552 132.06C125.634 132.286 125.767 132.582 125.835 132.698L126.85 132.329C126.758 132.145 126.584 131.774 126.428 131.346L124.82 126.925L123.76 127.311L124.95 130.581C125.249 131.404 125.026 132.124 124.169 132.436C123.278 132.76 122.702 132.229 122.431 131.485L121.245 128.226L120.185 128.612L121.429 132.029C121.876 133.258 122.987 133.926 124.25 133.466C124.882 133.236 125.464 132.731 125.552 132.06ZM128.521 128.17C128.222 127.347 128.408 126.526 129.243 126.222C130.19 125.877 130.727 126.371 131.002 127.127L132.188 130.386L133.248 130L131.996 126.561C131.557 125.354 130.574 124.652 129.277 125.124C128.646 125.354 128.097 125.847 127.949 126.667L127.666 125.889L126.628 126.267L128.602 131.691L129.662 131.305L128.521 128.17ZM133.757 121.731L132.787 122.084L133.108 122.964C133.28 123.437 133.163 123.888 132.577 124.102L132.284 124.208L132.632 125.167L133.67 124.789L134.753 127.766C135.111 128.747 135.902 129.098 136.827 128.761C137.188 128.63 137.434 128.464 137.511 128.397L137.183 127.495C137.101 127.55 136.918 127.643 136.782 127.692C136.23 127.893 135.937 127.719 135.756 127.223L134.73 124.404L135.903 123.977L135.554 123.018L134.381 123.445L133.757 121.731Z" fill="#262D37"/>
<rect x="28.5241" y="159.132" width="34.3938" height="34.3939" rx="17.1969" transform="rotate(-20 28.5241 159.132)" fill="#D2DDE8" fill-opacity="0.42"/>
<g clip-path="url(#clip0)">
<path d="M43.5426 173.227C43.3421 173.135 43.1619 173.005 43.0124 172.843C42.8629 172.681 42.7471 172.491 42.6717 172.283L41.2351 168.336C40.8541 167.289 40.9045 166.134 41.3753 165.125C41.8461 164.115 42.6987 163.334 43.7455 162.953L47.6847 161.519C48.1031 161.367 48.5632 161.378 48.9752 161.577L57.5892 165.593C57.9909 165.782 58.3016 166.122 58.4534 166.539C58.6052 166.956 58.5858 167.417 58.3994 167.82L54.3827 176.433C54.1939 176.835 53.8538 177.146 53.4367 177.298C53.0196 177.45 52.5594 177.43 52.1565 177.244L43.5426 173.227ZM56.8812 167.112L48.2673 163.095L44.3202 164.531C43.6921 164.76 43.1805 165.229 42.8981 165.835C42.6156 166.44 42.5853 167.134 42.8139 167.762L44.2505 171.709L52.8645 175.725L56.8812 167.112ZM45.4695 167.689C45.2601 167.765 45.0291 167.755 44.8271 167.661C44.6252 167.567 44.469 167.396 44.3928 167.187C44.3165 166.978 44.3266 166.747 44.4208 166.545C44.515 166.343 44.6855 166.186 44.8948 166.11C45.1042 166.034 45.3353 166.044 45.5372 166.138C45.7391 166.232 45.8954 166.403 45.9716 166.612C46.0478 166.822 46.0377 167.053 45.9435 167.255C45.8494 167.457 45.6789 167.613 45.4695 167.689Z" fill="#718096"/>
</g>
<g clip-path="url(#clip1)">
<g filter="url(#filter1_i)">
<path d="M29.6251 137.276L384.829 7.99255L410.822 79.4092L55.6186 208.693L29.6251 137.276Z" fill="black" fill-opacity="0.01"/>
</g>
</g>
<defs>
<filter id="filter0_dd" x="0.79657" y="0.27018" width="428.712" height="221.732" filterUnits="userSpaceOnUse" color-interpolation-filters="sRGB">
<feFlood flood-opacity="0" result="BackgroundImageFix"/>
<feColorMatrix in="SourceAlpha" type="matrix" values="0 0 0 0 0 0 0 0 0 0 0 0 0 0 0 0 0 0 127 0"/>
<feOffset dy="1"/>
<feGaussianBlur stdDeviation="1.5"/>
<feColorMatrix type="matrix" values="0 0 0 0 0 0 0 0 0 0 0 0 0 0 0 0 0 0 0.1 0"/>
<feBlend mode="normal" in2="BackgroundImageFix" result="effect1_dropShadow"/>
<feColorMatrix in="SourceAlpha" type="matrix" values="0 0 0 0 0 0 0 0 0 0 0 0 0 0 0 0 0 0 127 0"/>
<feOffset dy="1"/>
<feGaussianBlur stdDeviation="1"/>
<feColorMatrix type="matrix" values="0 0 0 0 0 0 0 0 0 0 0 0 0 0 0 0 0 0 0.06 0"/>
<feBlend mode="normal" in2="effect1_dropShadow" result="effect2_dropShadow"/>
<feBlend mode="normal" in="SourceGraphic" in2="effect2_dropShadow" result="shape"/>
</filter>
<filter id="filter1_i" x="29.6251" y="7.99255" width="381.197" height="200.7" filterUnits="userSpaceOnUse" color-interpolation-filters="sRGB">
<feFlood flood-opacity="0" result="BackgroundImageFix"/>
<feBlend mode="normal" in="SourceGraphic" in2="BackgroundImageFix" result="shape"/>
<feColorMatrix in="SourceAlpha" type="matrix" values="0 0 0 0 0 0 0 0 0 0 0 0 0 0 0 0 0 0 127 0" result="hardAlpha"/>
<feOffset dy="-0.5"/>
<feComposite in2="hardAlpha" operator="arithmetic" k2="-1" k3="1"/>
<feColorMatrix type="matrix" values="0 0 0 0 0.882353 0 0 0 0 0.905882 0 0 0 0 0.937255 0 0 0 1 0"/>
<feBlend mode="normal" in2="shape" result="effect1_innerShadow"/>
</filter>
<clipPath id="clip0">
<rect width="20.1619" height="20.1619" fill="white" transform="translate(37.645 163.385) rotate(-20)"/>
</clipPath>
<clipPath id="clip1">
<rect width="354.613" height="75.9037" fill="white" transform="translate(60.6349 125.99) rotate(-20)"/>
</clipPath>
</defs>
</svg>
