<svg width="397" height="324" viewBox="0 0 397 324" fill="none" xmlns="http://www.w3.org/2000/svg">
<g filter="url(#filter0_d)">
<rect x="47.1492" y="192.552" width="422.214" height="75.9037" rx="10" transform="rotate(-20 47.1492 192.552)" fill="white"/>
<g clip-path="url(#clip0)">
<g filter="url(#filter1_i)">
<path d="M72.0372 183.493L428.181 53.867L454.174 125.284L98.0307 254.909L72.0372 183.493Z" fill="black" fill-opacity="0.01"/>
</g>
<g clip-path="url(#clip1)">
<rect x="310.508" y="117.69" width="130.459" height="36.276" rx="18.138" transform="rotate(-20 310.508 117.69)" fill="#279EFF"/>
<path d="M363.498 121.815L365.235 121.183L362.331 118.537C363.269 117.851 363.615 116.767 363.208 115.651C362.704 114.264 361.321 113.554 359.765 114.12L356.642 115.257L359.552 123.252L361.119 122.681L359.999 119.603L360.811 119.308L363.498 121.815ZM359.51 118.261L358.702 116.04L359.965 115.58C360.754 115.293 361.376 115.564 361.623 116.241C361.861 116.895 361.563 117.514 360.773 117.801L359.51 118.261ZM366.187 116.98C366.036 116.461 366.251 115.718 367.029 115.435C367.886 115.123 368.444 115.533 368.668 116.077L366.187 116.98ZM369.34 117.467C369.34 118.029 369.084 118.518 368.384 118.773C367.64 119.044 366.827 118.739 366.526 118.019L370.496 116.574C370.487 116.552 370.428 116.318 370.35 116.104C369.702 114.322 368.277 113.602 366.563 114.225C365.142 114.743 364.253 116.369 364.897 118.139C365.579 120.011 367.319 120.617 368.841 120.062C370.205 119.566 370.794 118.445 370.727 117.384L369.34 117.467ZM374.882 108.426L373.405 108.964L374.558 112.133C374.294 111.897 373.699 111.667 372.741 112.015C371.173 112.586 370.543 114.258 371.134 115.882C371.746 117.562 373.325 118.392 374.904 117.818C375.648 117.547 376.089 117.003 376.177 116.473C376.271 116.732 376.403 116.991 376.467 117.095L377.899 116.574C377.794 116.357 377.624 115.959 377.489 115.587L374.882 108.426ZM372.645 115.332C372.284 114.34 372.688 113.554 373.455 113.275C374.221 112.996 375.02 113.331 375.381 114.323C375.747 115.327 375.362 116.131 374.596 116.41C373.806 116.697 373.006 116.324 372.645 115.332ZM379.335 112.195C379.184 111.675 379.399 110.933 380.177 110.65C381.034 110.338 381.592 110.748 381.816 111.292L379.335 112.195ZM382.488 112.682C382.488 113.244 382.232 113.733 381.533 113.987C380.788 114.258 379.975 113.954 379.675 113.233L383.644 111.789C383.636 111.766 383.576 111.532 383.498 111.318C382.85 109.536 381.426 108.816 379.712 109.44C378.291 109.957 377.401 111.583 378.046 113.354C378.727 115.226 380.467 115.831 381.989 115.277C383.354 114.78 383.942 113.66 383.875 112.598L382.488 112.682ZM385.568 109.926C385.417 109.406 385.632 108.664 386.41 108.381C387.267 108.069 387.825 108.479 388.049 109.023L385.568 109.926ZM388.721 110.413C388.721 110.975 388.465 111.464 387.766 111.719C387.021 111.99 386.208 111.685 385.908 110.965L389.877 109.52C389.869 109.497 389.809 109.264 389.731 109.049C389.083 107.268 387.658 106.547 385.944 107.171C384.524 107.688 383.634 109.315 384.279 111.085C384.96 112.957 386.7 113.562 388.222 113.008C389.587 112.512 390.175 111.391 390.108 110.33L388.721 110.413ZM393.446 110.915L392.264 107.668C392.043 107.059 392.249 106.434 392.903 106.196C393.58 105.95 394.049 106.29 394.266 106.888L395.465 110.181L396.953 109.639L395.771 106.391C395.554 105.794 395.756 105.158 396.399 104.924C397.087 104.674 397.544 105.018 397.762 105.616L398.96 108.908L400.415 108.379L399.106 104.782C398.564 103.293 397.357 103.03 396.331 103.404C395.598 103.67 395.102 104.132 394.908 104.969C394.409 104.474 393.681 104.368 392.926 104.643C392.317 104.865 391.713 105.417 391.605 106.069L391.359 105.392L389.927 105.913L391.946 111.461L393.446 110.915Z" fill="white"/>
</g>
</g>
<path d="M126.014 217.282C126.534 218.395 127.952 219.028 129.508 218.462C131.132 217.871 131.785 216.369 131.285 214.993C130.735 213.482 129.353 212.95 127.921 213.471C127.346 213.681 126.826 214.075 126.63 214.554L126.408 212.26L129.531 211.123L129.162 210.108L125.305 211.512L125.68 215.488C126.101 215.488 126.482 215.515 126.918 215.522C127.115 215.08 127.537 214.697 128.056 214.508C128.902 214.2 129.819 214.441 130.185 215.444C130.513 216.346 130.023 217.176 129.155 217.492C128.241 217.824 127.355 217.458 126.959 216.58L126.014 217.282ZM132.576 213.003C132.17 211.887 132.085 211.024 132.357 210.401C132.532 210.005 132.827 209.694 133.346 209.505C133.865 209.316 134.291 209.365 134.68 209.556C135.288 209.858 135.778 210.573 136.185 211.69C136.591 212.806 136.675 213.669 136.404 214.292C136.229 214.688 135.933 214.999 135.415 215.188C134.896 215.377 134.469 215.328 134.081 215.137C133.473 214.835 132.982 214.12 132.576 213.003ZM131.482 213.401C131.848 214.405 132.353 215.268 133.101 215.813C133.833 216.351 134.734 216.547 135.772 216.169C136.809 215.792 137.374 215.062 137.589 214.18C137.811 213.282 137.644 212.295 137.278 211.292C136.913 210.288 136.407 209.425 135.66 208.88C134.928 208.342 134.026 208.146 132.989 208.524C131.952 208.901 131.387 209.631 131.172 210.513C130.95 211.411 131.117 212.398 131.482 213.401ZM139.177 210.601C138.771 209.484 138.686 208.621 138.958 207.999C139.133 207.603 139.428 207.291 139.947 207.102C140.466 206.914 140.892 206.963 141.281 207.153C141.889 207.455 142.379 208.171 142.785 209.287C143.192 210.404 143.276 211.267 143.005 211.889C142.829 212.285 142.534 212.597 142.015 212.786C141.497 212.974 141.07 212.925 140.682 212.735C140.074 212.432 139.583 211.717 139.177 210.601ZM138.083 210.999C138.448 212.002 138.954 212.865 139.702 213.411C140.434 213.949 141.335 214.144 142.373 213.767C143.41 213.389 143.975 212.66 144.19 211.777C144.412 210.879 144.245 209.893 143.879 208.889C143.514 207.886 143.008 207.023 142.261 206.477C141.529 205.939 140.627 205.744 139.59 206.121C138.552 206.499 137.988 207.228 137.773 208.111C137.551 209.009 137.718 209.995 138.083 210.999ZM147.038 202.823L146.011 203.197L145.054 212.599L146.08 212.226L147.038 202.823ZM153.851 204.647C153.069 204.919 152.322 204.654 152.063 203.944C151.825 203.29 152.166 202.578 152.989 202.279C153.813 201.979 154.531 202.305 154.769 202.959C155.028 203.669 154.625 204.352 153.851 204.647ZM155.091 208.052C154.11 208.409 153.36 208.069 153.11 207.381C152.855 206.682 153.218 205.924 154.188 205.571C155.158 205.218 155.923 205.566 156.177 206.265C156.427 206.953 156.072 207.695 155.091 208.052ZM155.44 209.011C157.12 208.399 157.753 207.121 157.326 205.949C157.002 205.058 156.151 204.614 155.283 204.649C155.869 204.155 156.141 203.29 155.854 202.5C155.419 201.305 154.055 200.856 152.657 201.365C151.259 201.874 150.502 203.094 150.938 204.29C151.233 205.102 152.001 205.563 152.757 205.569C152.073 206.111 151.702 206.987 152.026 207.878C152.453 209.05 153.76 209.622 155.44 209.011ZM158.533 203.556C158.126 202.439 158.042 201.576 158.314 200.954C158.489 200.558 158.784 200.246 159.303 200.057C159.821 199.869 160.248 199.918 160.637 200.108C161.245 200.411 161.735 201.126 162.141 202.242C162.548 203.359 162.632 204.222 162.36 204.844C162.185 205.24 161.89 205.552 161.371 205.741C160.853 205.929 160.426 205.88 160.037 205.69C159.429 205.388 158.939 204.672 158.533 203.556ZM157.439 203.954C157.804 204.957 158.31 205.821 159.058 206.366C159.79 206.904 160.691 207.099 161.728 206.722C162.766 206.344 163.33 205.615 163.545 204.732C163.768 203.834 163.6 202.848 163.235 201.844C162.87 200.841 162.364 199.978 161.616 199.432C160.884 198.894 159.983 198.699 158.946 199.076C157.908 199.454 157.344 200.183 157.129 201.066C156.906 201.964 157.074 202.95 157.439 203.954ZM165.134 201.153C164.727 200.037 164.643 199.174 164.915 198.551C165.09 198.155 165.385 197.844 165.904 197.655C166.422 197.466 166.849 197.515 167.237 197.706C167.845 198.008 168.336 198.723 168.742 199.84C169.148 200.956 169.233 201.819 168.961 202.442C168.786 202.838 168.491 203.149 167.972 203.338C167.453 203.527 167.027 203.478 166.638 203.287C166.03 202.985 165.54 202.27 165.134 201.153ZM164.04 201.551C164.405 202.555 164.911 203.418 165.658 203.963C166.391 204.501 167.292 204.697 168.329 204.319C169.367 203.942 169.931 203.213 170.146 202.33C170.369 201.432 170.201 200.445 169.836 199.442C169.471 198.438 168.965 197.575 168.217 197.03C167.485 196.492 166.584 196.296 165.547 196.674C164.509 197.051 163.944 197.781 163.729 198.663C163.507 199.562 163.675 200.548 164.04 201.551Z" fill="#97A0AE"/>
<path d="M121.363 195.98L120.28 196.374L118.405 191.22L116.634 191.865L116.351 191.087C116.844 190.899 117.215 190.619 117.463 190.248C117.708 189.869 117.799 189.462 117.733 189.026L118.703 188.673L121.363 195.98ZM121.876 193.546L122.821 192.844C123.015 193.284 123.313 193.588 123.715 193.757C124.124 193.923 124.558 193.923 125.017 193.756C125.461 193.594 125.783 193.324 125.986 192.944C126.188 192.563 126.208 192.152 126.047 191.708C125.872 191.227 125.586 190.91 125.189 190.756C124.793 190.602 124.369 190.607 123.918 190.772C123.369 190.971 122.99 191.309 122.78 191.786C122.661 191.787 122.464 191.782 122.188 191.772C121.912 191.762 121.696 191.755 121.542 191.751L121.168 187.776L125.024 186.372L125.393 187.387L122.27 188.524L122.492 190.818C122.684 190.34 123.114 189.979 123.783 189.735C124.513 189.47 125.186 189.472 125.803 189.741C126.428 190.007 126.876 190.512 127.147 191.257C127.404 191.963 127.372 192.647 127.051 193.309C126.727 193.963 126.167 194.436 125.37 194.726C124.618 194.999 123.914 195.017 123.257 194.779C122.608 194.539 122.147 194.128 121.876 193.546ZM132.763 193.325L131.883 193.645L131.456 192.472C130.7 192.662 130.033 192.62 129.456 192.344C128.877 192.062 128.453 191.658 128.186 191.134L129.134 190.406C129.314 190.783 129.573 191.076 129.913 191.284C130.253 191.493 130.647 191.558 131.095 191.48L130.237 189.123L129.935 189.169C129.305 189.262 128.76 189.192 128.301 188.959C127.841 188.726 127.513 188.339 127.316 187.798C127.119 187.257 127.146 186.711 127.397 186.16C127.655 185.606 128.086 185.177 128.69 184.872L128.259 183.688L129.139 183.368L129.574 184.563C130.228 184.418 130.785 184.463 131.244 184.696C131.708 184.918 132.077 185.231 132.352 185.633L131.472 186.375C131.344 186.14 131.144 185.941 130.871 185.776C130.598 185.612 130.288 185.542 129.939 185.566L130.78 187.878L130.962 187.85C131.622 187.746 132.202 187.82 132.703 188.072C133.203 188.324 133.546 188.706 133.733 189.217C133.927 189.751 133.906 190.291 133.67 190.836C133.435 191.382 132.99 191.82 132.336 192.152L132.763 193.325ZM132.648 189.676C132.558 189.428 132.387 189.239 132.135 189.109C131.884 188.979 131.566 188.937 131.183 188.983L131.975 191.159C132.304 190.963 132.523 190.735 132.632 190.473C132.741 190.212 132.746 189.946 132.648 189.676ZM128.416 187.347C128.616 187.895 129.086 188.112 129.827 187.995L129.047 185.853C128.746 186.031 128.538 186.255 128.424 186.526C128.318 186.795 128.315 187.069 128.416 187.347ZM145.845 187.069L144.954 187.393L144.442 186.302C144.375 186.727 144.167 187.148 143.816 187.565C143.466 187.982 142.978 188.304 142.354 188.531C141.67 188.78 140.983 188.856 140.292 188.758C139.598 188.653 138.946 188.346 138.334 187.836C137.731 187.324 137.272 186.635 136.957 185.771C136.642 184.906 136.563 184.079 136.718 183.291C136.874 182.502 137.189 181.847 137.663 181.325C138.145 180.801 138.724 180.415 139.4 180.169C140.257 179.857 141.082 179.808 141.875 180.022C142.673 180.225 143.321 180.649 143.819 181.293L142.972 182.087C142.581 181.574 142.102 181.242 141.536 181.09C140.975 180.928 140.386 180.959 139.77 181.184C138.995 181.466 138.43 181.982 138.073 182.733C137.717 183.485 137.721 184.36 138.085 185.36C138.451 186.367 139.006 187.051 139.75 187.41C140.499 187.759 141.256 187.794 142.023 187.515C142.444 187.362 142.792 187.159 143.066 186.906C143.347 186.65 143.538 186.38 143.639 186.097C143.745 185.803 143.802 185.527 143.81 185.268C143.826 185.007 143.8 184.761 143.733 184.53L140.959 185.54L140.598 184.547L144.421 183.156L145.845 187.069ZM148.48 186.11L147.431 186.492L145.457 181.068L146.506 180.686L148.48 186.11ZM144.884 179.565C144.687 179.467 144.55 179.312 144.473 179.102C144.396 178.891 144.402 178.685 144.49 178.482C144.586 178.277 144.739 178.137 144.949 178.06C145.16 177.983 145.368 177.993 145.573 178.088C145.775 178.177 145.916 178.33 145.995 178.548C146.072 178.758 146.062 178.966 145.967 179.171C145.868 179.368 145.714 179.506 145.504 179.582C145.293 179.659 145.087 179.653 144.884 179.565ZM151.387 179.995L150.079 180.471L151.704 184.936L150.61 185.335L148.985 180.869L147.981 181.234L147.632 180.276L148.636 179.911L148.304 178.997C148.093 178.418 148.096 177.902 148.314 177.448C148.532 176.994 148.897 176.674 149.408 176.488C149.731 176.371 149.955 176.332 150.08 176.371L150.425 177.318C150.296 177.314 150.134 177.348 149.938 177.419C149.705 177.504 149.528 177.649 149.407 177.855C149.291 178.05 149.295 178.317 149.418 178.656L149.73 179.513L151.038 179.036L151.387 179.995ZM152.971 176.392L153.595 178.106L154.768 177.679L155.117 178.637L153.944 179.064L154.97 181.883C155.063 182.139 155.188 182.306 155.344 182.386C155.508 182.462 155.726 182.451 155.996 182.353C156.154 182.295 156.288 182.229 156.397 182.156L156.725 183.058C156.57 183.191 156.341 183.312 156.041 183.422C155.575 183.591 155.157 183.59 154.788 183.418C154.419 183.246 154.145 182.916 153.967 182.427L152.884 179.45L151.846 179.828L151.498 178.869L151.791 178.762C152.069 178.661 152.248 178.511 152.329 178.311C152.414 178.101 152.412 177.872 152.321 177.624L152.001 176.745L152.971 176.392ZM161.575 176.121C161.116 176.288 160.786 176.595 160.583 177.044C160.387 177.489 160.399 178.013 160.618 178.614C160.834 179.208 161.162 179.617 161.601 179.84C162.047 180.061 162.503 180.086 162.969 179.917C163.42 179.753 163.721 179.515 163.872 179.205C164.031 178.892 164.098 178.574 164.074 178.25L165.158 178.316C165.172 178.821 165.03 179.32 164.732 179.812C164.441 180.3 163.973 180.662 163.326 180.898C162.537 181.185 161.783 181.149 161.065 180.789C160.346 180.429 159.837 179.835 159.536 179.008C159.229 178.166 159.238 177.384 159.563 176.662C159.884 175.932 160.436 175.424 161.218 175.14C161.879 174.899 162.475 174.874 163.004 175.064C163.54 175.252 163.959 175.56 164.259 175.987L163.448 176.741C163.251 176.456 162.994 176.243 162.679 176.102C162.364 175.961 161.996 175.967 161.575 176.121ZM166.032 178.074C165.863 177.608 165.878 177.181 166.077 176.793C166.274 176.398 166.608 176.077 167.08 175.828L168.468 175.081C168.732 174.942 168.822 174.756 168.737 174.523C168.633 174.237 168.45 174.04 168.189 173.93C167.928 173.821 167.602 173.838 167.211 173.98C166.85 174.111 166.602 174.317 166.465 174.596C166.326 174.868 166.298 175.177 166.38 175.521L165.279 175.654C165.143 175.116 165.227 174.609 165.53 174.132C165.831 173.648 166.274 173.299 166.86 173.086C167.627 172.807 168.263 172.788 168.768 173.03C169.271 173.264 169.627 173.671 169.838 174.25L170.827 176.967C170.945 177.291 171.075 177.579 171.219 177.834L170.182 178.211C170.062 177.999 169.954 177.762 169.858 177.499C169.796 177.794 169.651 178.085 169.423 178.372C169.203 178.657 168.875 178.878 168.439 179.037C167.905 179.231 167.412 179.232 166.959 179.039C166.503 178.839 166.194 178.517 166.032 178.074ZM168.261 178.093C168.735 177.92 169.068 177.654 169.261 177.295C169.453 176.935 169.448 176.477 169.246 175.921L169.156 175.673L167.588 176.524C167.361 176.649 167.201 176.806 167.108 176.993C167.014 177.18 167.01 177.39 167.094 177.624C167.171 177.834 167.317 177.989 167.532 178.09C167.755 178.188 167.998 178.189 168.261 178.093ZM173.819 170.681L174.229 171.809C174.063 171.844 173.905 171.888 173.755 171.943C172.762 172.304 172.469 173.041 172.874 174.154L173.863 176.871L172.803 177.257L170.829 171.833L171.866 171.456L172.211 172.403C172.29 171.591 172.705 171.048 173.457 170.774C173.577 170.731 173.698 170.699 173.819 170.681ZM176.526 172.811C176.734 173.383 177.043 173.798 177.453 174.058C177.87 174.315 178.326 174.353 178.822 174.172C179.296 174 179.608 173.678 179.76 173.205C179.912 172.733 179.883 172.211 179.676 171.64C179.47 171.076 179.166 170.672 178.762 170.427C178.358 170.183 177.915 170.148 177.434 170.323C176.953 170.498 176.63 170.816 176.465 171.276C176.301 171.736 176.321 172.248 176.526 172.811ZM180.421 173.654L180.389 173.564C180.347 173.894 180.214 174.206 179.989 174.501C179.769 174.785 179.46 175 179.061 175.145C178.287 175.427 177.565 175.383 176.894 175.015C176.228 174.635 175.745 174.032 175.444 173.205C175.157 172.416 175.154 171.659 175.435 170.936C175.714 170.204 176.229 169.702 176.981 169.428C177.424 169.267 177.818 169.225 178.162 169.305C178.503 169.376 178.772 169.521 178.971 169.738L177.694 166.231L178.743 165.849L181.349 173.01C181.483 173.378 181.624 173.706 181.771 173.993L180.745 174.366C180.63 174.17 180.523 173.932 180.421 173.654Z" fill="#262D37"/>
<rect x="71.8764" y="205.007" width="34.3938" height="34.3939" rx="17.1969" transform="rotate(-20 71.8764 205.007)" fill="#D2DDE8" fill-opacity="0.42"/>
<g clip-path="url(#clip2)">
<path d="M86.8948 219.102C86.6943 219.01 86.5141 218.88 86.3646 218.718C86.2151 218.556 86.0993 218.366 86.0239 218.159L84.5873 214.212C84.2062 213.165 84.2567 212.009 84.7275 211C85.1983 209.99 86.0509 209.209 87.0977 208.828L91.0369 207.394C91.4553 207.242 91.9154 207.253 92.3274 207.452L100.941 211.469C101.343 211.657 101.654 211.997 101.806 212.415C101.957 212.832 101.938 213.292 101.752 213.695L97.7348 222.309C97.5461 222.71 97.206 223.021 96.7889 223.173C96.3718 223.325 95.9115 223.305 95.5087 223.119L86.8948 219.102ZM100.233 212.987L91.6195 208.97L87.6724 210.407C87.0443 210.635 86.5327 211.104 86.2502 211.71C85.9677 212.316 85.9375 213.009 86.1661 213.637L87.6027 217.584L96.2166 221.601L100.233 212.987ZM88.8217 213.564C88.6123 213.641 88.3812 213.63 88.1793 213.536C87.9774 213.442 87.8211 213.272 87.7449 213.062C87.6687 212.853 87.6788 212.622 87.773 212.42C87.8671 212.218 88.0376 212.062 88.247 211.985C88.4564 211.909 88.6874 211.919 88.8894 212.014C89.0913 212.108 89.2476 212.278 89.3238 212.488C89.4 212.697 89.3899 212.928 89.2957 213.13C89.2016 213.332 89.031 213.488 88.8217 213.564Z" fill="#718096"/>
</g>
</g>
<defs>
<filter id="filter0_d" x="0.14917" y="0.145905" width="530.712" height="323.732" filterUnits="userSpaceOnUse" color-interpolation-filters="sRGB">
<feFlood flood-opacity="0" result="BackgroundImageFix"/>
<feColorMatrix in="SourceAlpha" type="matrix" values="0 0 0 0 0 0 0 0 0 0 0 0 0 0 0 0 0 0 127 0"/>
<feOffset dx="7" dy="6"/>
<feGaussianBlur stdDeviation="27"/>
<feColorMatrix type="matrix" values="0 0 0 0 0.150694 0 0 0 0 0.178373 0 0 0 0 0.258333 0 0 0 0.24 0"/>
<feBlend mode="normal" in2="BackgroundImageFix" result="effect1_dropShadow"/>
<feBlend mode="normal" in="SourceGraphic" in2="effect1_dropShadow" result="shape"/>
</filter>
<filter id="filter1_i" x="72.0372" y="53.867" width="382.137" height="201.042" filterUnits="userSpaceOnUse" color-interpolation-filters="sRGB">
<feFlood flood-opacity="0" result="BackgroundImageFix"/>
<feBlend mode="normal" in="SourceGraphic" in2="BackgroundImageFix" result="shape"/>
<feColorMatrix in="SourceAlpha" type="matrix" values="0 0 0 0 0 0 0 0 0 0 0 0 0 0 0 0 0 0 127 0" result="hardAlpha"/>
<feOffset dy="-0.5"/>
<feComposite in2="hardAlpha" operator="arithmetic" k2="-1" k3="1"/>
<feColorMatrix type="matrix" values="0 0 0 0 0.882353 0 0 0 0 0.905882 0 0 0 0 0.937255 0 0 0 1 0"/>
<feBlend mode="normal" in2="shape" result="effect1_innerShadow"/>
</filter>
<clipPath id="clip0">
<rect width="354.613" height="75.9037" fill="white" transform="translate(103.987 171.864) rotate(-20)"/>
</clipPath>
<clipPath id="clip1">
<rect width="130.459" height="36.276" fill="white" transform="translate(310.508 117.69) rotate(-20)"/>
</clipPath>
<clipPath id="clip2">
<rect width="20.1619" height="20.1619" fill="white" transform="translate(80.9971 209.26) rotate(-20)"/>
</clipPath>
</defs>
</svg>
