<svg width="585" height="280" viewBox="0 0 651 512" fill="none" xmlns="http://www.w3.org/2000/svg">
<g filter="url(#filter0_d)">
<rect x="47.8796" y="191.61" width="419.842" height="429.33" rx="10" transform="rotate(-20 47.8796 191.61)" fill="white"/>
<g filter="url(#filter1_i)">
<path d="M66.5375 242.876L461.06 99.2815L503.652 216.301L109.129 359.895L66.5375 242.876Z" fill="white"/>
</g>
<path d="M222.637 381.753L223.88 385.17L224.985 384.767L223.742 381.351L224.894 375.747L223.631 376.206L222.854 380.525L219.482 377.717L218.151 378.201L222.637 381.753ZM229.577 382.215C228.675 382.543 227.639 382.154 227.18 380.891C226.724 379.639 227.267 378.676 228.169 378.347C229.071 378.019 230.107 378.408 230.563 379.66C231.022 380.923 230.479 381.887 229.577 382.215ZM227.824 377.4C226.201 377.991 225.498 379.639 226.097 381.285C226.7 382.943 228.298 383.753 229.922 383.162C231.546 382.571 232.248 380.924 231.645 379.266C231.046 377.62 229.448 376.809 227.824 377.4ZM237.001 379.653C237.083 379.879 237.217 380.175 237.284 380.291L238.299 379.922C238.207 379.738 238.033 379.367 237.878 378.939L236.269 374.518L235.209 374.904L236.399 378.174C236.699 378.997 236.475 379.717 235.618 380.029C234.727 380.353 234.151 379.822 233.88 379.078L232.694 375.819L231.634 376.205L232.878 379.622C233.325 380.851 234.437 381.519 235.7 381.059C236.331 380.829 236.913 380.324 237.001 379.653ZM241.827 374.934C241.618 374.219 241.909 373.334 242.799 373.01C243.758 372.661 244.487 373.085 244.793 373.855L241.827 374.934ZM245.464 375.207C245.482 375.89 245.219 376.535 244.339 376.855C243.426 377.187 242.481 376.765 242.105 375.804L246.187 374.318C246.174 374.246 246.136 374.107 246.087 373.971C245.471 372.28 244.116 371.47 242.447 372.078C241.083 372.574 240.277 374.183 240.896 375.886C241.565 377.724 243.225 378.32 244.68 377.791C245.943 377.331 246.536 376.259 246.492 375.19L245.464 375.207ZM247.303 374.997C247.615 375.854 248.604 376.362 249.709 375.96C250.679 375.607 251.031 374.892 251.129 374.422C251.272 374.817 251.38 375.007 251.452 375.134L252.489 374.757C252.417 374.63 252.27 374.364 252.097 373.891L251.108 371.173C250.722 370.113 249.754 369.418 248.131 370.009C246.958 370.436 246.285 371.498 246.549 372.577L247.651 372.444C247.488 371.788 247.737 371.174 248.482 370.903C249.305 370.604 249.814 370.916 250.007 371.446C250.077 371.638 250.048 371.84 249.738 372.004L248.35 372.752C247.463 373.228 246.95 374.027 247.303 374.997ZM249.532 375.016C248.99 375.213 248.512 374.953 248.365 374.547C248.188 374.062 248.432 373.679 248.859 373.448L250.426 372.596L250.516 372.844C250.947 374.028 250.4 374.7 249.532 375.016ZM254.818 367.703C254.758 367.712 254.603 367.743 254.457 367.796C253.904 367.997 253.301 368.447 253.21 369.425L252.866 368.477L251.828 368.855L253.802 374.279L254.862 373.893L253.873 371.176C253.438 369.98 253.863 369.289 254.754 368.965C254.901 368.912 255.063 368.865 255.229 368.83L254.818 367.703ZM257.591 369.35C257.292 368.527 257.478 367.705 258.312 367.402C259.26 367.057 259.797 367.551 260.072 368.306L261.258 371.565L262.318 371.179L261.066 367.74C260.627 366.534 259.644 365.832 258.347 366.304C257.715 366.533 257.167 367.027 257.019 367.847L256.735 367.069L255.698 367.446L257.672 372.87L258.732 372.485L257.591 369.35ZM268.515 368.924L265.855 361.617L264.885 361.97C265.003 362.821 264.51 363.639 263.503 364.031L263.786 364.809L265.556 364.165L267.432 369.318L268.515 368.924ZM268.757 366.588C269.277 367.702 270.695 368.335 272.251 367.768C273.875 367.177 274.529 365.675 274.028 364.3C273.478 362.789 272.097 362.257 270.665 362.778C270.09 362.987 269.569 363.381 269.373 363.861L269.151 361.567L272.275 360.43L271.905 359.415L268.049 360.819L268.423 364.794C268.844 364.794 269.225 364.822 269.662 364.829C269.858 364.387 270.281 364.003 270.799 363.815C271.645 363.507 272.563 363.747 272.928 364.751C273.256 365.653 272.766 366.483 271.898 366.799C270.985 367.131 270.098 366.764 269.702 365.887L268.757 366.588ZM274.394 360.425C274.209 359.917 274.457 359.406 274.942 359.229C275.438 359.049 275.946 359.285 276.13 359.793C276.319 360.311 276.082 360.819 275.586 361C275.101 361.176 274.582 360.943 274.394 360.425ZM273.458 360.765C273.823 361.769 274.941 362.243 275.91 361.89C276.88 361.537 277.443 360.452 277.077 359.448C276.716 358.456 275.587 357.985 274.618 358.338C273.648 358.691 273.097 359.773 273.458 360.765ZM280.287 362.724C280.103 362.216 280.351 361.705 280.836 361.528C281.332 361.347 281.839 361.584 282.024 362.092C282.213 362.61 281.976 363.118 281.48 363.298C280.995 363.475 280.476 363.242 280.287 362.724ZM279.351 363.064C279.717 364.068 280.834 364.542 281.804 364.189C282.774 363.836 283.336 362.75 282.971 361.747C282.61 360.754 281.481 360.284 280.511 360.637C279.542 360.99 278.99 362.072 279.351 363.064ZM277.441 365.675L280.014 356.464L278.999 356.833L276.404 366.053L277.441 365.675ZM288.327 361.713L287.137 358.443C286.841 357.631 287.144 356.882 287.899 356.607C288.711 356.312 289.246 356.73 289.501 357.429L290.74 360.835L291.8 360.449L290.606 357.167C290.323 356.389 290.617 355.618 291.361 355.347C292.162 355.056 292.704 355.459 292.963 356.169L294.202 359.575L295.251 359.193L293.97 355.675C293.453 354.254 292.295 353.948 291.347 354.292C290.659 354.543 290.051 355.045 289.905 355.979C289.358 355.387 288.585 355.298 287.908 355.544C287.277 355.774 286.703 356.302 286.582 357.023L286.319 356.301L285.304 356.671L287.278 362.095L288.327 361.713ZM298.716 357.05C297.814 357.379 296.778 356.99 296.319 355.727C295.863 354.475 296.406 353.511 297.308 353.183C298.21 352.854 299.246 353.244 299.702 354.495C300.161 355.758 299.618 356.722 298.716 357.05ZM296.964 352.235C295.34 352.827 294.637 354.474 295.236 356.121C295.84 357.778 297.437 358.589 299.061 357.998C300.685 357.407 301.387 355.759 300.784 354.101C300.185 352.455 298.587 351.644 296.964 352.235ZM303.875 349.848C303.814 349.857 303.66 349.888 303.513 349.941C302.961 350.142 302.358 350.591 302.267 351.57L301.922 350.622L300.885 351L302.859 356.424L303.919 356.038L302.93 353.32C302.495 352.125 302.92 351.434 303.811 351.11C303.957 351.056 304.119 351.01 304.285 350.975L303.875 349.848ZM306.171 351.515C305.962 350.799 306.253 349.914 307.144 349.59C308.102 349.241 308.831 349.666 309.137 350.435L306.171 351.515ZM309.808 351.787C309.826 352.47 309.563 353.115 308.684 353.435C307.77 353.768 306.825 353.346 306.449 352.384L310.531 350.898C310.518 350.827 310.48 350.687 310.431 350.552C309.815 348.86 308.461 348.051 306.792 348.658C305.427 349.155 304.621 350.764 305.241 352.467C305.91 354.305 307.57 354.901 309.024 354.371C310.287 353.912 310.881 352.84 310.836 351.771L309.808 351.787ZM316.892 353.743L315.845 350.867C316.315 351.245 317.09 351.41 317.924 351.106C319.514 350.528 319.995 348.935 319.408 347.323C318.833 345.744 317.509 344.809 315.885 345.4C315.006 345.72 314.519 346.382 314.423 347.03L314.115 346.184L313.089 346.558L315.843 354.124L316.892 353.743ZM318.325 347.717C318.731 348.833 318.403 349.86 317.422 350.217C316.452 350.57 315.518 350.003 315.111 348.887C314.717 347.804 315.065 346.758 316.034 346.405C317.027 346.044 317.931 346.634 318.325 347.717ZM323.517 348.024C322.614 348.352 321.579 347.963 321.119 346.7C320.664 345.448 321.207 344.484 322.109 344.156C323.011 343.828 324.046 344.217 324.502 345.469C324.962 346.732 324.419 347.696 323.517 348.024ZM321.764 343.209C320.14 343.8 319.437 345.448 320.037 347.094C320.64 348.752 322.237 349.562 323.861 348.971C325.485 348.38 326.188 346.732 325.585 345.075C324.985 343.428 323.388 342.618 321.764 343.209ZM328.708 347.016L326.734 341.592L325.685 341.973L327.659 347.397L328.708 347.016ZM324.701 340.007C324.853 340.424 325.315 340.64 325.732 340.488C326.16 340.332 326.375 339.87 326.224 339.453C326.068 339.025 325.606 338.809 325.178 338.965C324.76 339.117 324.545 339.579 324.701 340.007ZM330.16 342.937C329.86 342.114 330.046 341.293 330.881 340.989C331.828 340.644 332.365 341.138 332.64 341.894L333.827 345.152L334.887 344.767L333.635 341.327C333.196 340.121 332.212 339.419 330.915 339.891C330.284 340.121 329.736 340.614 329.587 341.434L329.304 340.656L328.267 341.034L330.241 346.458L331.301 346.072L330.16 342.937ZM335.125 336.596L334.155 336.949L334.475 337.829C334.648 338.303 334.531 338.754 333.944 338.967L333.651 339.074L334 340.032L335.038 339.655L336.121 342.632C336.478 343.613 337.27 343.963 338.194 343.627C338.555 343.495 338.801 343.329 338.879 343.262L338.551 342.36C338.469 342.416 338.285 342.508 338.15 342.557C337.597 342.758 337.304 342.584 337.124 342.088L336.098 339.269L337.27 338.842L336.921 337.884L335.749 338.31L335.125 336.596ZM339.074 341.646C339.39 342.234 340.371 342.962 341.859 342.42C343.201 341.932 343.511 340.785 343.232 340.018C342.941 339.217 342.205 338.808 341.146 338.951L340.196 339.08C339.746 339.141 339.457 338.978 339.338 338.651C339.202 338.279 339.436 337.798 339.977 337.601C340.834 337.289 341.286 337.828 341.433 338.093L342.242 337.403C341.953 336.959 341.138 336.158 339.649 336.699C338.589 337.085 338.008 338.19 338.345 339.115C338.624 339.882 339.34 340.272 340.252 340.145L341.25 340.011C341.738 339.949 342.081 340.118 342.204 340.456C342.344 340.839 342.14 341.297 341.542 341.514C340.775 341.793 340.183 341.498 339.91 340.959L339.074 341.646ZM349.511 338.563C348.609 338.891 347.573 338.502 347.114 337.239C346.658 335.987 347.201 335.023 348.103 334.695C349.005 334.367 350.041 334.756 350.496 336.008C350.956 337.27 350.413 338.234 349.511 338.563ZM347.758 333.748C346.135 334.339 345.432 335.986 346.031 337.633C346.634 339.29 348.232 340.101 349.856 339.51C351.479 338.919 352.182 337.271 351.579 335.614C350.98 333.967 349.382 333.157 347.758 333.748ZM353.573 334.415C353.273 333.592 353.459 332.771 354.294 332.467C355.241 332.123 355.778 332.617 356.053 333.372L357.239 336.631L358.299 336.245L357.048 332.806C356.608 331.599 355.625 330.897 354.328 331.369C353.697 331.599 353.148 332.092 353 332.913L352.717 332.135L351.679 332.512L353.654 337.936L354.714 337.55L353.573 334.415ZM361.761 331.282C361.552 330.566 361.842 329.681 362.733 329.357C363.692 329.008 364.421 329.433 364.727 330.202L361.761 331.282ZM365.397 331.555C365.416 332.237 365.153 332.882 364.273 333.202C363.36 333.535 362.415 333.113 362.039 332.151L366.121 330.665C366.108 330.594 366.07 330.454 366.02 330.319C365.405 328.627 364.05 327.818 362.381 328.425C361.017 328.922 360.211 330.531 360.83 332.234C361.499 334.072 363.159 334.668 364.614 334.138C365.877 333.679 366.47 332.607 366.426 331.538L365.397 331.555ZM367.237 331.345C367.549 332.202 368.538 332.71 369.643 332.308C370.613 331.955 370.965 331.239 371.063 330.77C371.206 331.164 371.314 331.355 371.386 331.482L372.423 331.104C372.351 330.977 372.204 330.712 372.031 330.238L371.042 327.521C370.656 326.461 369.688 325.766 368.065 326.357C366.892 326.784 366.219 327.846 366.483 328.925L367.584 328.792C367.422 328.136 367.671 327.522 368.415 327.251C369.239 326.951 369.748 327.264 369.941 327.794C370.011 327.985 369.982 328.187 369.672 328.351L368.284 329.099C367.397 329.575 366.884 330.375 367.237 331.345ZM369.465 331.364C368.924 331.561 368.446 331.3 368.299 330.894C368.122 330.41 368.366 330.027 368.792 329.795L370.36 328.944L370.45 329.192C370.881 330.376 370.334 331.048 369.465 331.364ZM374.752 324.05C374.692 324.06 374.537 324.09 374.39 324.144C373.838 324.345 373.235 324.794 373.144 325.772L372.799 324.825L371.762 325.203L373.736 330.627L374.796 330.241L373.807 327.523C373.372 326.328 373.797 325.637 374.688 325.313C374.835 325.259 374.997 325.213 375.163 325.178L374.752 324.05ZM378.15 323.797C379.075 323.46 379.695 323.937 380.023 324.418L380.834 323.663C380.309 322.922 379.236 322.291 377.793 322.816C376.248 323.378 375.495 324.993 376.111 326.685C376.71 328.331 378.323 329.149 379.902 328.574C381.311 328.061 381.757 326.864 381.733 325.992L380.649 325.927C380.681 326.4 380.559 327.224 379.545 327.593C378.665 327.913 377.645 327.531 377.193 326.291C376.734 325.028 377.293 324.109 378.15 323.797ZM383.158 323.583C382.889 322.774 383.088 321.987 383.9 321.691C384.847 321.347 385.385 321.841 385.66 322.596L386.846 325.855L387.906 325.469L386.654 322.03C386.215 320.823 385.231 320.121 383.935 320.593C383.314 320.819 382.761 321.263 382.576 321.982L381.348 318.61L380.288 318.996L383.26 327.16L384.32 326.774L383.158 323.583ZM393.698 325.787L392.652 322.912C393.121 323.29 393.896 323.455 394.731 323.151C396.321 322.572 396.801 320.98 396.214 319.368C395.64 317.789 394.316 316.853 392.692 317.444C391.812 317.764 391.326 318.427 391.229 319.075L390.922 318.229L389.895 318.603L392.649 326.169L393.698 325.787ZM395.132 319.762C395.538 320.878 395.209 321.904 394.228 322.261C393.258 322.614 392.324 322.048 391.918 320.931C391.524 319.849 391.871 318.803 392.841 318.45C393.833 318.089 394.738 318.679 395.132 319.762ZM401.565 319.757C401.647 319.983 401.78 320.279 401.848 320.395L402.863 320.025C402.77 319.842 402.597 319.471 402.441 319.042L400.832 314.622L399.772 315.008L400.963 318.278C401.262 319.101 401.039 319.821 400.182 320.133C399.291 320.457 398.715 319.926 398.444 319.182L397.258 315.923L396.198 316.309L397.441 319.726C397.889 320.955 399 321.623 400.263 321.163C400.895 320.933 401.477 320.428 401.565 319.757ZM405.361 312.91C405.3 312.919 405.145 312.95 404.999 313.003C404.446 313.204 403.844 313.654 403.753 314.632L403.408 313.685L402.37 314.062L404.345 319.486L405.405 319.1L404.415 316.383C403.98 315.187 404.406 314.496 405.296 314.172C405.443 314.119 405.605 314.072 405.771 314.038L405.361 312.91ZM408.759 312.656C409.683 312.32 410.304 312.796 410.632 313.277L411.443 312.522C410.917 311.781 409.845 311.15 408.401 311.675C406.857 312.238 406.104 313.853 406.719 315.544C407.318 317.19 408.931 318.008 410.51 317.434C411.92 316.92 412.365 315.724 412.341 314.851L411.258 314.786C411.29 315.26 411.168 316.083 410.153 316.452C409.273 316.773 408.253 316.39 407.802 315.15C407.342 313.887 407.902 312.968 408.759 312.656ZM413.767 312.443C413.498 311.634 413.697 310.846 414.508 310.551C415.456 310.206 415.993 310.7 416.268 311.456L417.454 314.715L418.514 314.329L417.262 310.889C416.823 309.683 415.84 308.981 414.543 309.453C413.923 309.679 413.369 310.123 413.184 310.841L411.957 307.47L410.897 307.856L413.868 316.02L414.928 315.634L413.767 312.443ZM419.062 312.482C419.374 313.339 420.363 313.847 421.468 313.445C422.438 313.092 422.791 312.376 422.888 311.907C423.031 312.301 423.139 312.492 423.211 312.619L424.248 312.242C424.177 312.114 424.029 311.849 423.856 311.375L422.867 308.658C422.482 307.598 421.514 306.903 419.89 307.494C418.717 307.921 418.044 308.983 418.309 310.062L419.41 309.929C419.247 309.273 419.496 308.659 420.241 308.388C421.064 308.088 421.573 308.401 421.766 308.931C421.836 309.123 421.807 309.325 421.497 309.489L420.109 310.236C419.222 310.712 418.709 311.512 419.062 312.482ZM421.291 312.501C420.749 312.698 420.272 312.438 420.124 312.032C419.947 311.547 420.191 311.164 420.618 310.932L422.185 310.081L422.275 310.329C422.706 311.513 422.159 312.185 421.291 312.501ZM424.541 310.539C424.857 311.126 425.837 311.855 427.326 311.313C428.668 310.825 428.978 309.677 428.699 308.911C428.407 308.11 427.671 307.701 426.612 307.844L425.663 307.972C425.213 308.034 424.924 307.871 424.805 307.544C424.669 307.172 424.903 306.691 425.444 306.494C426.301 306.182 426.752 306.72 426.9 306.986L427.709 306.296C427.419 305.852 426.604 305.05 425.116 305.592C424.056 305.978 423.475 307.083 423.811 308.008C424.09 308.775 424.807 309.165 425.718 309.038L426.717 308.904C427.205 308.841 427.547 309.01 427.671 309.349C427.81 309.732 427.606 310.189 427.009 310.407C426.242 310.686 425.649 310.391 425.376 309.852L424.541 310.539ZM429.832 306.506C429.623 305.79 429.913 304.906 430.804 304.581C431.763 304.233 432.492 304.657 432.798 305.427L429.832 306.506ZM433.468 306.779C433.487 307.462 433.224 308.106 432.344 308.427C431.431 308.759 430.485 308.337 430.11 307.375L434.192 305.89C434.179 305.818 434.141 305.678 434.091 305.543C433.476 303.852 432.121 303.042 430.452 303.65C429.088 304.146 428.282 305.755 428.901 307.458C429.57 309.296 431.23 309.892 432.685 309.363C433.948 308.903 434.541 307.831 434.497 306.762L433.468 306.779Z" fill="#A0AEC0"/>
<path d="M210.813 355.234L213.723 363.228L216.52 362.211C217.986 361.677 218.657 360.398 218.197 359.135C217.873 358.245 217.048 357.626 216.052 357.733C216.657 357.219 216.931 356.429 216.619 355.572C216.16 354.309 214.941 353.731 213.418 354.285L210.813 355.234ZM213.191 358.327L212.271 355.801L213.602 355.317C214.515 354.984 215.249 355.279 215.524 356.035C215.794 356.779 215.457 357.502 214.567 357.826L213.191 358.327ZM214.475 361.856L213.536 359.274L215.114 358.7C216.084 358.347 216.766 358.711 217.045 359.478C217.328 360.256 216.9 360.974 216.009 361.298L214.475 361.856ZM222.489 359.157C221.587 359.485 220.551 359.096 220.091 357.833C219.636 356.581 220.179 355.617 221.081 355.289C221.983 354.961 223.019 355.35 223.474 356.602C223.934 357.865 223.391 358.829 222.489 359.157ZM220.736 354.342C219.112 354.933 218.41 356.581 219.009 358.227C219.612 359.885 221.21 360.695 222.834 360.104C224.457 359.513 225.16 357.865 224.557 356.208C223.958 354.561 222.36 353.751 220.736 354.342ZM226.821 354.911C226.521 354.088 226.708 353.267 227.542 352.963C228.489 352.618 229.027 353.112 229.302 353.868L230.488 357.127L231.548 356.741L230.296 353.302C229.857 352.095 228.874 351.393 227.577 351.865C226.945 352.095 226.397 352.588 226.249 353.408L225.965 352.63L224.928 353.008L226.902 358.432L227.962 358.046L226.821 354.911ZM236.46 354.212C236.543 354.438 236.676 354.734 236.744 354.85L237.758 354.48C237.666 354.297 237.493 353.926 237.337 353.497L235.728 349.077L234.668 349.463L235.858 352.733C236.158 353.556 235.935 354.276 235.078 354.588C234.187 354.912 233.61 354.381 233.339 353.637L232.153 350.378L231.093 350.764L232.337 354.181C232.784 355.41 233.896 356.078 235.159 355.618C235.79 355.388 236.372 354.883 236.46 354.212ZM238.49 352.618C238.806 353.205 239.787 353.934 241.275 353.392C242.617 352.904 242.927 351.756 242.648 350.989C242.357 350.189 241.621 349.78 240.562 349.923L239.612 350.051C239.162 350.113 238.873 349.95 238.754 349.623C238.619 349.251 238.852 348.77 239.393 348.573C240.25 348.261 240.702 348.799 240.849 349.065L241.658 348.374C241.369 347.931 240.554 347.129 239.065 347.671C238.005 348.057 237.424 349.162 237.761 350.087C238.04 350.853 238.757 351.244 239.668 351.116L240.666 350.983C241.154 350.92 241.497 351.089 241.62 351.427C241.76 351.811 241.556 352.268 240.958 352.486C240.191 352.765 239.599 352.47 239.326 351.931L238.49 352.618ZM249.257 352.722L248.21 349.846C248.68 350.224 249.455 350.389 250.29 350.085C251.88 349.507 252.36 347.914 251.773 346.302C251.198 344.723 249.875 343.788 248.251 344.379C247.371 344.699 246.885 345.361 246.788 346.009L246.481 345.163L245.454 345.537L248.208 353.103L249.257 352.722ZM250.691 346.696C251.097 347.812 250.768 348.839 249.787 349.196C248.817 349.549 247.883 348.982 247.477 347.866C247.083 346.783 247.43 345.737 248.4 345.384C249.392 345.023 250.297 345.613 250.691 346.696ZM256.153 346.904C255.25 347.233 254.215 346.843 253.755 345.58C253.3 344.329 253.843 343.365 254.745 343.037C255.647 342.708 256.682 343.097 257.138 344.349C257.598 345.612 257.055 346.576 256.153 346.904ZM254.4 342.089C252.776 342.68 252.073 344.328 252.673 345.974C253.276 347.632 254.873 348.443 256.497 347.852C258.121 347.261 258.824 345.613 258.221 343.955C257.621 342.309 256.024 341.498 254.4 342.089ZM261.615 345.797L259.64 340.374L258.592 340.755L260.566 346.179L261.615 345.797ZM257.608 338.789C257.76 339.206 258.221 339.422 258.638 339.27C259.067 339.114 259.282 338.652 259.13 338.235C258.974 337.807 258.513 337.591 258.084 337.747C257.667 337.899 257.452 338.361 257.608 338.789ZM263.337 341.62C263.037 340.797 263.224 339.976 264.058 339.672C265.005 339.328 265.543 339.822 265.818 340.577L267.004 343.836L268.064 343.45L266.812 340.011C266.373 338.804 265.389 338.102 264.093 338.574C263.461 338.804 262.913 339.297 262.764 340.118L262.481 339.34L261.444 339.717L263.418 345.141L264.478 344.755L263.337 341.62ZM268.573 335.181L267.603 335.534L267.923 336.414C268.095 336.888 267.979 337.339 267.392 337.552L267.099 337.659L267.448 338.617L268.485 338.24L269.569 341.217C269.926 342.198 270.718 342.548 271.642 342.212C272.003 342.08 272.249 341.914 272.327 341.847L271.999 340.945C271.917 341.001 271.733 341.093 271.598 341.142C271.045 341.343 270.752 341.169 270.571 340.673L269.545 337.854L270.718 337.427L270.369 336.469L269.197 336.895L268.573 335.181ZM272.793 340.133C273.109 340.72 274.089 341.449 275.578 340.907C276.919 340.418 277.23 339.271 276.951 338.504C276.659 337.704 275.923 337.295 274.864 337.438L273.915 337.566C273.465 337.628 273.175 337.465 273.056 337.138C272.921 336.766 273.155 336.285 273.696 336.088C274.553 335.776 275.004 336.314 275.152 336.58L275.961 335.889C275.671 335.445 274.856 334.644 273.368 335.186C272.308 335.572 271.727 336.677 272.063 337.602C272.342 338.368 273.059 338.759 273.97 338.631L274.969 338.498C275.457 338.435 275.799 338.604 275.923 338.942C276.062 339.326 275.858 339.783 275.261 340.001C274.494 340.28 273.901 339.985 273.628 339.445L272.793 340.133Z" fill="#2D3748"/>
<rect x="166.484" y="371.834" width="34.3938" height="34.3939" rx="17.1969" transform="rotate(-20 166.484 371.834)" fill="#D2DDE8" fill-opacity="0.42"/>
<path d="M186.864 388.817C187.202 388.975 187.494 389.009 187.866 388.873C188.237 388.738 188.44 388.524 188.597 388.186L194.111 376.363C194.426 375.688 194.155 374.945 193.48 374.63C192.804 374.315 192.061 374.585 191.746 375.261L186.784 385.902L182.899 384.09C182.224 383.775 181.481 384.045 181.166 384.721C180.851 385.397 181.121 386.14 181.797 386.455L186.864 388.817Z" fill="#4A5568"/>
<path d="M250.479 455.233L250.052 454.06C251.423 453.37 251.814 452.129 251.449 451.126C251.079 450.111 250.02 449.552 248.678 449.759L248.497 449.787L247.655 447.475C248.413 447.416 248.965 447.88 249.188 448.284L250.068 447.542C249.621 446.875 248.743 446.147 247.29 446.472L246.855 445.276L245.975 445.596L246.406 446.78C245.201 447.398 244.643 448.636 245.032 449.707C245.435 450.812 246.415 451.26 247.651 451.078L247.954 451.032L248.811 453.388C247.863 453.555 247.18 453.011 246.85 452.314L245.902 453.043C246.387 453.99 247.548 454.793 249.173 454.381L249.6 455.553L250.479 455.233ZM250.364 451.584C250.553 452.103 250.375 452.666 249.691 453.068L248.899 450.892C249.693 450.794 250.192 451.111 250.364 451.584ZM246.132 449.255C245.931 448.703 246.155 448.124 246.763 447.761L247.543 449.904C246.723 450.036 246.305 449.729 246.132 449.255ZM255.668 451.851L253.008 444.544L252.038 444.896C252.157 445.747 251.663 446.566 250.656 446.958L250.939 447.736L252.71 447.091L254.585 452.245L255.668 451.851ZM256.621 447.366C256.214 446.25 256.13 445.387 256.401 444.764C256.577 444.369 256.872 444.057 257.39 443.868C257.909 443.679 258.336 443.728 258.724 443.919C259.332 444.221 259.823 444.937 260.229 446.053C260.635 447.169 260.72 448.032 260.448 448.655C260.273 449.051 259.978 449.362 259.459 449.551C258.94 449.74 258.514 449.691 258.125 449.5C257.517 449.198 257.027 448.483 256.621 447.366ZM255.527 447.764C255.892 448.768 256.398 449.631 257.145 450.176C257.877 450.714 258.779 450.91 259.816 450.532C260.854 450.155 261.418 449.426 261.633 448.543C261.855 447.645 261.688 446.658 261.323 445.655C260.958 444.651 260.452 443.788 259.704 443.243C258.972 442.705 258.071 442.509 257.033 442.887C255.996 443.265 255.431 443.994 255.216 444.876C254.994 445.775 255.161 446.761 255.527 447.764ZM266.998 442.504C267.923 442.167 268.543 442.644 268.872 443.124L269.682 442.37C269.157 441.628 268.085 440.997 266.641 441.523C265.096 442.085 264.343 443.7 264.959 445.391C265.558 447.038 267.171 447.855 268.75 447.281C270.159 446.768 270.605 445.571 270.581 444.699L269.497 444.633C269.529 445.107 269.408 445.93 268.393 446.3C267.513 446.62 266.493 446.238 266.042 444.997C265.582 443.734 266.141 442.816 266.998 442.504ZM274.093 444.263C273.191 444.592 272.155 444.202 271.695 442.939C271.24 441.688 271.783 440.724 272.685 440.396C273.587 440.067 274.623 440.456 275.078 441.708C275.538 442.971 274.995 443.935 274.093 444.263ZM272.34 439.448C270.716 440.039 270.014 441.687 270.613 443.333C271.216 444.991 272.814 445.802 274.438 445.21C276.061 444.619 276.764 442.972 276.161 441.314C275.562 439.668 273.964 438.857 272.34 439.448ZM281.517 441.702C281.599 441.927 281.732 442.223 281.8 442.339L282.815 441.97C282.723 441.786 282.549 441.415 282.393 440.987L280.784 436.566L279.724 436.952L280.915 440.222C281.214 441.046 280.991 441.765 280.134 442.077C279.243 442.401 278.667 441.871 278.396 441.126L277.21 437.867L276.15 438.253L277.393 441.67C277.841 442.899 278.952 443.567 280.215 443.108C280.847 442.878 281.429 442.372 281.517 441.702ZM286.125 443.191L285.079 440.316C285.548 440.694 286.323 440.859 287.158 440.555C288.748 439.976 289.228 438.384 288.641 436.772C288.067 435.193 286.743 434.257 285.119 434.848C284.24 435.168 283.753 435.831 283.657 436.479L283.349 435.633L282.323 436.007L285.077 443.573L286.125 443.191ZM287.559 437.166C287.965 438.282 287.636 439.308 286.655 439.665C285.685 440.018 284.751 439.452 284.345 438.335C283.951 437.253 284.298 436.207 285.268 435.854C286.26 435.493 287.165 436.083 287.559 437.166ZM292.75 437.473C291.848 437.801 290.812 437.412 290.353 436.149C289.897 434.897 290.44 433.933 291.342 433.605C292.244 433.276 293.28 433.666 293.736 434.917C294.195 436.18 293.652 437.144 292.75 437.473ZM290.998 432.658C289.374 433.249 288.671 434.896 289.27 436.543C289.874 438.2 291.471 439.011 293.095 438.42C294.719 437.829 295.421 436.181 294.818 434.523C294.219 432.877 292.621 432.067 290.998 432.658ZM296.812 433.325C296.512 432.502 296.699 431.681 297.533 431.377C298.48 431.032 299.018 431.526 299.293 432.282L300.479 435.541L301.539 435.155L300.287 431.716C299.848 430.509 298.864 429.807 297.568 430.279C296.936 430.509 296.388 431.002 296.239 431.822L295.956 431.044L294.919 431.422L296.893 436.846L297.953 436.46L296.812 433.325ZM306.584 427.176L306.66 431.771L303.957 428.132L302.795 428.555L306.551 433.331L307.668 432.924L307.575 428.284L310.52 431.886L311.614 431.488L311.399 425.424L310.283 425.83L310.573 430.347L307.678 426.778L306.584 427.176ZM314.072 426.979C313.803 426.17 314.002 425.383 314.814 425.087C315.761 424.743 316.298 425.237 316.573 425.992L317.76 429.251L318.82 428.865L317.568 425.426C317.129 424.219 316.145 423.517 314.848 423.989C314.228 424.215 313.675 424.659 313.489 425.378L312.262 422.006L311.202 422.392L314.174 430.556L315.234 430.17L314.072 426.979ZM319.733 424.83C319.523 424.114 319.814 423.229 320.705 422.905C321.663 422.556 322.392 422.98 322.698 423.75L319.733 424.83ZM323.369 425.102C323.388 425.785 323.125 426.43 322.245 426.75C321.332 427.083 320.386 426.66 320.011 425.699L324.093 424.213C324.079 424.141 324.041 424.002 323.992 423.867C323.376 422.175 322.022 421.366 320.353 421.973C318.989 422.47 318.182 424.079 318.802 425.781C319.471 427.619 321.131 428.215 322.586 427.686C323.849 427.226 324.442 426.155 324.397 425.086L323.369 425.102ZM325.995 422.703C325.695 421.88 325.882 421.059 326.716 420.755C327.663 420.411 328.201 420.905 328.476 421.66L329.662 424.919L330.722 424.533L329.47 421.094C329.031 419.887 328.047 419.185 326.751 419.657C326.119 419.887 325.571 420.38 325.422 421.201L325.139 420.423L324.102 420.8L326.076 426.224L327.136 425.838L325.995 422.703ZM336.864 424.864L337.594 415.889L336.455 416.304L336.194 420.639L333.14 417.511L331.922 417.954L336.013 421.93L335.702 425.287L336.864 424.864ZM342.137 419.497C341.235 419.826 340.199 419.436 339.74 418.173C339.284 416.922 339.827 415.958 340.729 415.629C341.631 415.301 342.667 415.69 343.123 416.942C343.582 418.205 343.039 419.169 342.137 419.497ZM340.385 414.682C338.761 415.273 338.058 416.921 338.657 418.567C339.26 420.225 340.858 421.035 342.482 420.444C344.106 419.853 344.808 418.206 344.205 416.548C343.606 414.902 342.008 414.091 340.385 414.682ZM349.561 416.935C349.643 417.161 349.777 417.457 349.844 417.573L350.859 417.204C350.767 417.02 350.594 416.649 350.438 416.221L348.829 411.8L347.769 412.186L348.959 415.456C349.259 416.279 349.035 416.999 348.178 417.311C347.287 417.635 346.711 417.104 346.44 416.36L345.254 413.101L344.194 413.487L345.438 416.904C345.885 418.133 346.997 418.801 348.26 418.341C348.891 418.112 349.473 417.606 349.561 416.935ZM358.226 413.782C358.308 414.007 358.441 414.304 358.509 414.419L359.524 414.05C359.432 413.867 359.258 413.495 359.102 413.067L357.493 408.647L356.433 409.032L357.624 412.303C357.923 413.126 357.7 413.845 356.843 414.157C355.952 414.482 355.376 413.951 355.105 413.207L353.919 409.948L352.859 410.333L354.102 413.75C354.55 414.979 355.661 415.647 356.924 415.188C357.556 414.958 358.138 414.452 358.226 413.782ZM360.925 409.99C360.625 409.167 360.812 408.346 361.646 408.042C362.593 407.697 363.131 408.191 363.406 408.947L364.592 412.206L365.652 411.82L364.4 408.38C363.961 407.174 362.977 406.472 361.68 406.944C361.049 407.174 360.501 407.667 360.352 408.487L360.069 407.709L359.032 408.087L361.006 413.511L362.066 413.125L360.925 409.99ZM368.127 410.919L365.156 402.755L364.096 403.14L367.067 411.305L368.127 410.919ZM371.699 408.737C370.797 409.066 369.762 408.676 369.302 407.414C368.846 406.162 369.389 405.198 370.292 404.87C371.194 404.541 372.229 404.931 372.685 406.182C373.144 407.445 372.601 408.409 371.699 408.737ZM369.947 403.922C368.323 404.513 367.62 406.161 368.219 407.808C368.823 409.465 370.42 410.276 372.044 409.685C373.668 409.094 374.371 407.446 373.767 405.788C373.168 404.142 371.571 403.331 369.947 403.922ZM376.441 402.67C377.366 402.333 377.986 402.81 378.314 403.29L379.125 402.536C378.6 401.795 377.527 401.163 376.084 401.689C374.539 402.251 373.786 403.866 374.402 405.557C375.001 407.204 376.614 408.021 378.193 407.447C379.602 406.934 380.048 405.737 380.024 404.865L378.94 404.799C378.972 405.273 378.85 406.096 377.836 406.466C376.956 406.786 375.936 406.404 375.484 405.163C375.025 403.9 375.584 402.982 376.441 402.67ZM384.437 398.84L382.971 399.374L381.5 402.629L379.628 397.487L378.579 397.869L381.551 406.033L382.6 405.651L382.004 404.016L382.485 402.986L385.125 404.732L386.456 404.248L382.958 401.971L384.437 398.84ZM388.576 395.392L387.606 395.745L387.926 396.625C388.099 397.099 387.982 397.55 387.396 397.763L387.102 397.87L387.451 398.828L388.489 398.451L389.572 401.428C389.929 402.409 390.721 402.759 391.646 402.423C392.006 402.291 392.252 402.125 392.33 402.058L392.002 401.156C391.92 401.212 391.736 401.304 391.601 401.353C391.049 401.554 390.755 401.38 390.575 400.884L389.549 398.065L390.721 397.638L390.373 396.68L389.2 397.106L388.576 395.392ZM393.389 398.11C393.121 397.301 393.319 396.514 394.131 396.218C395.078 395.874 395.616 396.368 395.891 397.123L397.077 400.382L398.137 399.996L396.885 396.557C396.446 395.35 395.462 394.648 394.166 395.12C393.545 395.346 392.992 395.79 392.807 396.509L391.579 393.137L390.519 393.523L393.491 401.687L394.551 401.301L393.389 398.11ZM400.601 399.099L398.627 393.675L397.578 394.057L399.552 399.481L400.601 399.099ZM396.594 392.091C396.746 392.508 397.208 392.723 397.625 392.571C398.053 392.415 398.268 391.954 398.117 391.537C397.961 391.108 397.499 390.893 397.071 391.049C396.653 391.201 396.438 391.662 396.594 392.091ZM401.113 397.317C401.429 397.904 402.409 398.633 403.898 398.091C405.24 397.602 405.55 396.455 405.271 395.688C404.98 394.888 404.243 394.479 403.184 394.622L402.235 394.75C401.785 394.812 401.496 394.649 401.377 394.322C401.241 393.95 401.475 393.469 402.016 393.272C402.873 392.96 403.325 393.498 403.472 393.763L404.281 393.073C403.992 392.629 403.176 391.828 401.688 392.37C400.628 392.755 400.047 393.861 400.384 394.785C400.663 395.552 401.379 395.943 402.291 395.815L403.289 395.682C403.777 395.619 404.12 395.788 404.243 396.126C404.382 396.51 404.179 396.967 403.581 397.185C402.814 397.464 402.221 397.169 401.949 396.629L401.113 397.317ZM410.526 389.28C410.466 389.29 410.311 389.32 410.164 389.374C409.612 389.575 409.009 390.024 408.918 391.002L408.573 390.055L407.536 390.433L409.51 395.857L410.57 395.471L409.581 392.753C409.146 391.558 409.571 390.867 410.462 390.543C410.609 390.489 410.77 390.443 410.937 390.408L410.526 389.28ZM412.822 390.948C412.613 390.232 412.904 389.347 413.795 389.023C414.753 388.674 415.482 389.098 415.788 389.868L412.822 390.948ZM416.459 391.22C416.478 391.903 416.214 392.548 415.335 392.868C414.421 393.201 413.476 392.778 413.101 391.817L417.183 390.331C417.169 390.259 417.131 390.12 417.082 389.985C416.466 388.293 415.112 387.484 413.443 388.091C412.079 388.588 411.272 390.197 411.892 391.899C412.561 393.737 414.221 394.334 415.676 393.804C416.938 393.344 417.532 392.273 417.487 391.204L416.459 391.22ZM420.193 385.826L420.269 390.421L417.565 386.782L416.404 387.205L420.16 391.98L421.276 391.574L421.183 386.934L424.129 390.536L425.223 390.138L425.008 384.073L423.891 384.48L424.182 388.997L421.286 385.428L420.193 385.826ZM426.859 387.895C427.171 388.752 428.161 389.26 429.266 388.858C430.235 388.505 430.588 387.789 430.685 387.319C430.829 387.714 430.937 387.905 431.008 388.032L432.046 387.654C431.974 387.527 431.826 387.262 431.654 386.788L430.665 384.07C430.279 383.01 429.311 382.316 427.687 382.907C426.514 383.334 425.841 384.396 426.106 385.474L427.207 385.342C427.045 384.686 427.294 384.071 428.038 383.801C428.861 383.501 429.371 383.813 429.564 384.343C429.633 384.535 429.605 384.737 429.294 384.901L427.906 385.649C427.02 386.125 426.506 386.925 426.859 387.895ZM429.088 387.913C428.547 388.11 428.069 387.85 427.921 387.444C427.745 386.959 427.989 386.577 428.415 386.345L429.982 385.494L430.073 385.742C430.504 386.926 429.956 387.597 429.088 387.913ZM434.375 380.6C434.314 380.609 434.16 380.64 434.013 380.694C433.46 380.895 432.858 381.344 432.767 382.322L432.422 381.375L431.385 381.752L433.359 387.176L434.419 386.791L433.43 384.073C432.995 382.878 433.42 382.187 434.311 381.862C434.457 381.809 434.619 381.763 434.785 381.728L434.375 380.6ZM436.812 382.829C436.405 381.713 436.75 380.694 437.719 380.341C438.689 379.988 439.555 380.541 439.961 381.657C440.367 382.774 440.077 383.837 439.108 384.19C438.093 384.559 437.218 383.946 436.812 382.829ZM440.707 383.672C440.826 383.999 440.962 384.268 441.03 384.384L442.056 384.011C442.012 383.925 441.823 383.546 441.635 383.028L439.028 375.867L437.98 376.249L439.256 379.756C438.916 379.382 438.224 379.097 437.266 379.446C435.732 380.004 435.171 381.69 435.729 383.223C436.316 384.836 437.757 385.742 439.347 385.163C440.193 384.855 440.603 384.195 440.674 383.582L440.707 383.672Z" fill="#A0AEC0"/>
<path d="M239.977 431.923L238.754 428.563L242.16 427.324L241.782 426.286L238.377 427.526L237.441 424.955L241.196 423.588L240.822 422.562L235.962 424.331L238.872 432.326L239.977 431.923ZM245.7 423.634C245.64 423.643 245.485 423.674 245.338 423.728C244.786 423.929 244.183 424.378 244.092 425.356L243.747 424.409L242.71 424.786L244.684 430.21L245.744 429.825L244.755 427.107C244.32 425.912 244.745 425.22 245.636 424.896C245.782 424.843 245.944 424.797 246.111 424.762L245.7 423.634ZM248.267 425.203C248.058 424.487 248.349 423.602 249.239 423.278C250.198 422.929 250.927 423.354 251.233 424.123L248.267 425.203ZM251.904 425.475C251.922 426.158 251.659 426.803 250.779 427.123C249.866 427.456 248.921 427.034 248.545 426.072L252.627 424.586C252.614 424.515 252.576 424.375 252.527 424.24C251.911 422.548 250.556 421.739 248.888 422.346C247.523 422.843 246.717 424.452 247.336 426.155C248.005 427.993 249.665 428.589 251.12 428.059C252.383 427.6 252.976 426.528 252.932 425.459L251.904 425.475ZM254.379 422.978C254.169 422.263 254.46 421.378 255.351 421.054C256.31 420.705 257.039 421.129 257.344 421.899L254.379 422.978ZM258.015 423.251C258.034 423.934 257.771 424.579 256.891 424.899C255.978 425.231 255.032 424.809 254.657 423.848L258.739 422.362C258.726 422.29 258.688 422.151 258.638 422.015C258.023 420.324 256.668 419.514 254.999 420.122C253.635 420.619 252.828 422.227 253.448 423.93C254.117 425.768 255.777 426.364 257.232 425.835C258.495 425.375 259.088 424.304 259.044 423.234L258.015 423.251ZM264.411 417.807C265.336 417.471 265.956 417.947 266.284 418.428L267.095 417.673C266.57 416.932 265.497 416.301 264.054 416.826C262.509 417.388 261.756 419.003 262.372 420.695C262.971 422.341 264.584 423.159 266.163 422.584C267.572 422.071 268.018 420.875 267.994 420.002L266.91 419.937C266.942 420.411 266.82 421.234 265.805 421.603C264.926 421.923 263.906 421.541 263.454 420.301C262.995 419.038 263.554 418.119 264.411 417.807ZM271.776 419.468C270.874 419.797 269.838 419.408 269.379 418.145C268.923 416.893 269.466 415.929 270.368 415.601C271.27 415.272 272.306 415.662 272.762 416.913C273.221 418.176 272.678 419.14 271.776 419.468ZM270.024 414.653C268.4 415.244 267.697 416.892 268.296 418.539C268.9 420.196 270.497 421.007 272.121 420.416C273.745 419.825 274.447 418.177 273.844 416.519C273.245 414.873 271.647 414.062 270.024 414.653ZM279.471 416.808C279.553 417.034 279.686 417.33 279.754 417.446L280.769 417.076C280.677 416.893 280.503 416.522 280.347 416.093L278.738 411.673L277.678 412.059L278.869 415.329C279.168 416.152 278.945 416.872 278.088 417.184C277.197 417.508 276.621 416.977 276.35 416.233L275.164 412.974L274.104 413.36L275.347 416.777C275.795 418.006 276.906 418.674 278.169 418.214C278.801 417.984 279.383 417.479 279.471 416.808ZM284.35 418.199L283.303 415.324C283.773 415.702 284.548 415.867 285.382 415.563C286.972 414.985 287.453 413.392 286.866 411.78C286.291 410.201 284.967 409.265 283.344 409.856C282.464 410.177 281.977 410.839 281.881 411.487L281.573 410.641L280.547 411.015L283.301 418.581L284.35 418.199ZM285.783 412.174C286.19 413.29 285.861 414.316 284.88 414.674C283.91 415.026 282.976 414.46 282.57 413.343C282.176 412.261 282.523 411.215 283.493 410.862C284.485 410.501 285.389 411.091 285.783 412.174ZM291.245 412.382C290.343 412.711 289.308 412.321 288.848 411.058C288.392 409.807 288.935 408.843 289.838 408.514C290.74 408.186 291.775 408.575 292.231 409.827C292.691 411.09 292.147 412.054 291.245 412.382ZM289.493 407.567C287.869 408.158 287.166 409.806 287.765 411.452C288.369 413.11 289.966 413.92 291.59 413.329C293.214 412.738 293.917 411.091 293.313 409.433C292.714 407.787 291.117 406.976 289.493 407.567ZM295.578 408.136C295.278 407.313 295.464 406.492 296.299 406.188C297.246 405.844 297.783 406.338 298.058 407.093L299.245 410.352L300.305 409.966L299.053 406.527C298.614 405.32 297.63 404.618 296.333 405.09C295.702 405.32 295.154 405.813 295.005 406.634L294.722 405.856L293.685 406.233L295.659 411.657L296.719 411.271L295.578 408.136Z" fill="#2D3748"/>
<rect x="191.633" y="440.931" width="34.3938" height="34.3939" rx="17.1969" transform="rotate(-20 191.633 440.931)" fill="#D2DDE8" fill-opacity="0.42"/>
<path d="M212.013 457.915C212.351 458.072 212.643 458.106 213.015 457.971C213.386 457.835 213.589 457.621 213.746 457.284L219.26 445.461C219.575 444.785 219.304 444.042 218.629 443.727C217.953 443.412 217.21 443.682 216.895 444.358L211.933 454.999L208.048 453.187C207.373 452.872 206.63 453.143 206.315 453.818C206 454.494 206.27 455.237 206.946 455.552L212.013 457.915Z" fill="#4A5568"/>
<path d="M279.185 521.542L277.761 517.629L273.939 519.021L274.3 520.013L277.074 519.003C277.328 519.843 277.145 521.34 275.363 521.988C273.931 522.509 272.197 521.953 271.425 519.833C270.653 517.713 271.678 516.178 273.11 515.657C274.351 515.206 275.533 515.542 276.312 516.56L277.16 515.767C276.172 514.492 274.477 514.01 272.741 514.642C270.767 515.36 269.312 517.537 270.297 520.244C271.282 522.95 273.688 523.735 275.695 523.004C277.037 522.516 277.663 521.534 277.783 520.776L278.295 521.866L279.185 521.542ZM279.998 517.543C279.789 516.827 280.08 515.943 280.971 515.618C281.929 515.269 282.658 515.694 282.964 516.464L279.998 517.543ZM283.635 517.816C283.654 518.498 283.39 519.143 282.511 519.463C281.597 519.796 280.652 519.374 280.276 518.412L284.358 516.927C284.345 516.855 284.307 516.715 284.258 516.58C283.642 514.889 282.288 514.079 280.619 514.686C279.254 515.183 278.448 516.792 279.068 518.495C279.737 520.333 281.397 520.929 282.851 520.399C284.114 519.94 284.708 518.868 284.663 517.799L283.635 517.816ZM285.165 511.282L284.195 511.635L284.515 512.515C284.687 512.989 284.571 513.44 283.984 513.653L283.691 513.76L284.04 514.718L285.077 514.341L286.161 517.318C286.518 518.299 287.31 518.649 288.234 518.313C288.595 518.181 288.841 518.015 288.919 517.948L288.591 517.046C288.509 517.102 288.325 517.194 288.19 517.243C287.637 517.444 287.344 517.27 287.163 516.774L286.137 513.955L287.31 513.528L286.961 512.57L285.788 512.996L285.165 511.282ZM291.76 515.318C292.072 516.175 293.062 516.683 294.167 516.281C295.136 515.928 295.489 515.212 295.586 514.743C295.73 515.137 295.838 515.328 295.909 515.455L296.947 515.078C296.875 514.95 296.727 514.685 296.555 514.211L295.566 511.494C295.18 510.434 294.212 509.739 292.588 510.33C291.415 510.757 290.742 511.819 291.007 512.898L292.108 512.765C291.946 512.109 292.195 511.495 292.939 511.224C293.762 510.924 294.272 511.237 294.465 511.767C294.535 511.958 294.506 512.16 294.195 512.325L292.807 513.072C291.921 513.548 291.407 514.348 291.76 515.318ZM293.989 515.337C293.448 515.534 292.97 515.274 292.822 514.868C292.646 514.383 292.89 514 293.316 513.768L294.883 512.917L294.974 513.165C295.405 514.349 294.857 515.021 293.989 515.337ZM298.859 509.159C299.784 508.822 300.404 509.299 300.732 509.779L301.543 509.025C301.018 508.283 299.945 507.652 298.502 508.178C296.957 508.74 296.204 510.355 296.82 512.046C297.419 513.693 299.032 514.51 300.61 513.936C302.02 513.423 302.466 512.226 302.442 511.354L301.358 511.288C301.39 511.762 301.268 512.585 300.253 512.955C299.374 513.275 298.354 512.893 297.902 511.652C297.442 510.389 298.002 509.471 298.859 509.159ZM304.513 507.101C305.437 506.764 306.058 507.241 306.386 507.721L307.197 506.967C306.672 506.226 305.599 505.594 304.156 506.12C302.611 506.682 301.858 508.297 302.473 509.988C303.073 511.635 304.686 512.452 306.264 511.878C307.674 511.365 308.119 510.168 308.096 509.296L307.012 509.23C307.044 509.704 306.922 510.527 305.907 510.897C305.028 511.217 304.007 510.835 303.556 509.594C303.096 508.331 303.656 507.413 304.513 507.101ZM309.065 506.964C308.856 506.248 309.147 505.363 310.037 505.039C310.996 504.69 311.725 505.114 312.031 505.884L309.065 506.964ZM312.702 507.236C312.72 507.919 312.457 508.564 311.577 508.884C310.664 509.216 309.719 508.794 309.343 507.833L313.425 506.347C313.412 506.275 313.374 506.136 313.325 506.001C312.709 504.309 311.354 503.5 309.686 504.107C308.321 504.604 307.515 506.212 308.134 507.915C308.803 509.753 310.463 510.349 311.918 509.82C313.181 509.36 313.774 508.289 313.73 507.219L312.702 507.236ZM314.388 507.133C314.704 507.721 315.684 508.449 317.173 507.907C318.515 507.419 318.825 506.272 318.546 505.505C318.254 504.704 317.518 504.295 316.459 504.438L315.51 504.567C315.06 504.628 314.771 504.465 314.652 504.138C314.516 503.766 314.75 503.285 315.291 503.088C316.148 502.776 316.599 503.315 316.747 503.58L317.556 502.89C317.267 502.446 316.451 501.645 314.963 502.186C313.903 502.572 313.322 503.677 313.658 504.602C313.937 505.369 314.654 505.759 315.566 505.632L316.564 505.498C317.052 505.436 317.395 505.605 317.518 505.943C317.657 506.326 317.453 506.784 316.856 507.001C316.089 507.28 315.496 506.985 315.223 506.446L314.388 507.133ZM319.216 505.376C319.532 505.963 320.512 506.692 322.001 506.15C323.343 505.662 323.653 504.514 323.374 503.748C323.082 502.947 322.346 502.538 321.287 502.681L320.338 502.809C319.888 502.871 319.599 502.708 319.48 502.381C319.344 502.009 319.578 501.528 320.119 501.331C320.976 501.019 321.427 501.557 321.575 501.823L322.384 501.133C322.094 500.689 321.279 499.887 319.791 500.429C318.731 500.815 318.15 501.92 318.486 502.845C318.765 503.612 319.482 504.002 320.394 503.875L321.392 503.741C321.88 503.678 322.223 503.847 322.346 504.186C322.485 504.569 322.281 505.026 321.684 505.244C320.917 505.523 320.324 505.228 320.051 504.689L319.216 505.376ZM326.436 496.261L325.466 496.614L325.786 497.493C325.958 497.967 325.842 498.418 325.255 498.632L324.962 498.738L325.311 499.697L326.348 499.319L327.432 502.296C327.789 503.277 328.581 503.628 329.505 503.291C329.866 503.16 330.112 502.994 330.19 502.927L329.862 502.025C329.78 502.08 329.596 502.173 329.461 502.222C328.908 502.423 328.615 502.249 328.434 501.753L327.408 498.933L328.581 498.507L328.232 497.548L327.059 497.975L326.436 496.261ZM333.335 500.952C332.433 501.28 331.398 500.891 330.938 499.628C330.482 498.377 331.025 497.413 331.927 497.084C332.83 496.756 333.865 497.145 334.321 498.397C334.78 499.66 334.237 500.624 333.335 500.952ZM331.583 496.137C329.959 496.728 329.256 498.376 329.855 500.022C330.459 501.68 332.056 502.49 333.68 501.899C335.304 501.308 336.007 499.661 335.403 498.003C334.804 496.357 333.207 495.546 331.583 496.137ZM339.524 495.877C339.315 495.162 339.606 494.277 340.496 493.953C341.455 493.604 342.184 494.028 342.49 494.798L339.524 495.877ZM343.161 496.15C343.179 496.833 342.916 497.478 342.036 497.798C341.123 498.13 340.178 497.708 339.802 496.747L343.884 495.261C343.871 495.189 343.833 495.05 343.784 494.914C343.168 493.223 341.813 492.413 340.144 493.021C338.78 493.518 337.974 495.126 338.593 496.829C339.262 498.667 340.922 499.263 342.377 498.734C343.64 498.274 344.233 497.203 344.189 496.133L343.161 496.15ZM345.023 497.579L346.286 497.12L346.935 494.623L349.06 496.11L350.334 495.646C349.847 495.325 347.82 493.931 347.333 493.61L348.292 490.247L347.041 490.702L346.426 493.084L344.402 491.663L343.117 492.131L346.036 494.082L345.023 497.579ZM351.57 489.973C352.494 489.637 353.115 490.113 353.443 490.594L354.254 489.839C353.729 489.098 352.656 488.467 351.213 488.992C349.668 489.555 348.915 491.17 349.53 492.861C350.13 494.507 351.743 495.325 353.321 494.75C354.731 494.237 355.176 493.041 355.153 492.168L354.069 492.103C354.101 492.577 353.979 493.4 352.964 493.769C352.085 494.09 351.064 493.707 350.613 492.467C350.153 491.204 350.713 490.285 351.57 489.973ZM357.74 492.951L354.768 484.787L353.708 485.173L356.68 493.337L357.74 492.951ZM362.554 490.458C362.636 490.684 362.769 490.98 362.837 491.096L363.852 490.726C363.759 490.543 363.586 490.172 363.43 489.743L361.821 485.323L360.761 485.709L361.951 488.979C362.251 489.802 362.028 490.522 361.171 490.834C360.28 491.158 359.703 490.627 359.433 489.883L358.246 486.624L357.186 487.01L358.43 490.426C358.877 491.656 359.989 492.324 361.252 491.864C361.883 491.634 362.466 491.129 362.554 490.458ZM364.313 488.962C364.629 489.549 365.609 490.278 367.098 489.736C368.439 489.248 368.75 488.101 368.471 487.334C368.179 486.533 367.443 486.124 366.384 486.267L365.435 486.396C364.985 486.457 364.695 486.294 364.576 485.967C364.441 485.595 364.675 485.114 365.216 484.917C366.073 484.605 366.524 485.143 366.672 485.409L367.481 484.719C367.191 484.275 366.376 483.473 364.888 484.015C363.828 484.401 363.247 485.506 363.583 486.431C363.862 487.198 364.579 487.588 365.49 487.461L366.489 487.327C366.977 487.264 367.319 487.434 367.443 487.772C367.582 488.155 367.378 488.613 366.781 488.83C366.014 489.109 365.421 488.814 365.148 488.275L364.313 488.962ZM371.21 488.048L369.236 482.624L368.187 483.006L370.161 488.43L371.21 488.048ZM367.203 481.04C367.355 481.457 367.817 481.672 368.234 481.52C368.662 481.364 368.877 480.903 368.726 480.486C368.57 480.057 368.108 479.842 367.68 479.998C367.263 480.15 367.047 480.611 367.203 481.04ZM375.414 480.375L374.276 480.79L374.242 485.54L371.175 481.918L369.979 482.353L374.152 486.977L375.224 486.587L375.414 480.375ZM377.465 482.068C377.255 481.353 377.546 480.468 378.437 480.143C379.396 479.795 380.125 480.219 380.43 480.989L377.465 482.068ZM381.101 482.341C381.12 483.024 380.857 483.668 379.977 483.989C379.064 484.321 378.118 483.899 377.743 482.937L381.825 481.452C381.811 481.38 381.774 481.24 381.724 481.105C381.109 479.414 379.754 478.604 378.085 479.212C376.721 479.708 375.914 481.317 376.534 483.02C377.203 484.858 378.863 485.454 380.318 484.925C381.581 484.465 382.174 483.393 382.13 482.324L381.101 482.341ZM387.373 475.959C387.312 475.968 387.157 475.999 387.011 476.052C386.458 476.253 385.856 476.703 385.765 477.681L385.42 476.734L384.382 477.111L386.357 482.535L387.417 482.149L386.427 479.432C385.992 478.236 386.418 477.545 387.308 477.221C387.455 477.168 387.617 477.121 387.783 477.087L387.373 475.959ZM389.669 477.626C389.46 476.911 389.751 476.026 390.641 475.701C391.6 475.353 392.329 475.777 392.635 476.547L389.669 477.626ZM393.306 477.899C393.324 478.582 393.061 479.226 392.181 479.547C391.268 479.879 390.323 479.457 389.947 478.495L394.029 477.01C394.016 476.938 393.978 476.798 393.929 476.663C393.313 474.972 391.958 474.162 390.289 474.77C388.925 475.266 388.119 476.875 388.738 478.578C389.407 480.416 391.067 481.012 392.522 480.483C393.785 480.023 394.378 478.951 394.334 477.882L393.306 477.899ZM397.039 472.504L397.115 477.1L394.412 473.461L393.25 473.883L397.006 478.659L398.122 478.253L398.03 473.612L400.975 477.214L402.069 476.816L401.854 470.752L400.738 471.158L401.028 475.675L398.133 472.106L397.039 472.504ZM403.706 474.573C404.018 475.43 405.007 475.938 406.112 475.536C407.082 475.183 407.434 474.467 407.532 473.998C407.675 474.393 407.783 474.583 407.855 474.71L408.892 474.333C408.82 474.206 408.673 473.94 408.5 473.467L407.511 470.749C407.125 469.689 406.157 468.994 404.534 469.585C403.361 470.012 402.688 471.074 402.952 472.153L404.054 472.02C403.891 471.364 404.14 470.75 404.885 470.479C405.708 470.179 406.217 470.492 406.41 471.022C406.48 471.214 406.451 471.416 406.141 471.58L404.753 472.328C403.866 472.804 403.353 473.603 403.706 474.573ZM405.935 474.592C405.393 474.789 404.915 474.529 404.768 474.123C404.591 473.638 404.835 473.255 405.262 473.024L406.829 472.172L406.919 472.42C407.35 473.604 406.803 474.276 405.935 474.592ZM411.221 467.279C411.161 467.288 411.006 467.319 410.86 467.372C410.307 467.573 409.704 468.022 409.613 469.001L409.269 468.053L408.231 468.431L410.205 473.855L411.265 473.469L410.276 470.751C409.841 469.556 410.266 468.865 411.157 468.541C411.304 468.487 411.466 468.441 411.632 468.406L411.221 467.279ZM413.658 469.508C413.252 468.391 413.596 467.372 414.566 467.019C415.536 466.666 416.401 467.22 416.808 468.336C417.214 469.452 416.924 470.515 415.954 470.868C414.939 471.238 414.065 470.624 413.658 469.508ZM417.553 470.35C417.672 470.677 417.809 470.947 417.877 471.063L418.903 470.689C418.859 470.603 418.67 470.225 418.481 469.706L415.875 462.546L414.826 462.927L416.103 466.434C415.762 466.06 415.071 465.775 414.113 466.124C412.579 466.682 412.018 468.368 412.576 469.902C413.163 471.514 414.603 472.42 416.193 471.841C417.039 471.534 417.45 470.873 417.521 470.26L417.553 470.35ZM419.358 468.927C419.674 469.515 420.655 470.243 422.143 469.701C423.485 469.213 423.795 468.066 423.516 467.299C423.225 466.498 422.488 466.089 421.429 466.232L420.48 466.361C420.03 466.422 419.741 466.259 419.622 465.932C419.486 465.56 419.72 465.079 420.261 464.882C421.118 464.57 421.57 465.109 421.717 465.374L422.526 464.684C422.237 464.24 421.421 463.438 419.933 463.98C418.873 464.366 418.292 465.471 418.629 466.396C418.908 467.163 419.624 467.553 420.536 467.426L421.534 467.292C422.022 467.23 422.365 467.399 422.488 467.737C422.627 468.12 422.424 468.578 421.826 468.795C421.059 469.074 420.466 468.779 420.194 468.24L419.358 468.927ZM426.578 459.812L425.608 460.165L425.928 461.045C426.101 461.518 425.984 461.969 425.398 462.183L425.104 462.29L425.453 463.248L426.491 462.87L427.574 465.847C427.931 466.828 428.723 467.179 429.647 466.842C430.008 466.711 430.254 466.545 430.332 466.478L430.004 465.576C429.922 465.631 429.738 465.724 429.603 465.773C429.051 465.974 428.757 465.8 428.577 465.304L427.551 462.485L428.723 462.058L428.375 461.099L427.202 461.526L426.578 459.812ZM433.478 464.503C432.575 464.832 431.54 464.442 431.08 463.179C430.625 461.928 431.168 460.964 432.07 460.636C432.972 460.307 434.007 460.696 434.463 461.948C434.923 463.211 434.38 464.175 433.478 464.503ZM431.725 459.688C430.101 460.279 429.398 461.927 429.998 463.573C430.601 465.231 432.198 466.042 433.822 465.45C435.446 464.859 436.149 463.212 435.546 461.554C434.946 459.908 433.349 459.097 431.725 459.688ZM443.505 460.994C443.587 461.22 443.721 461.516 443.788 461.632L444.803 461.262C444.711 461.079 444.538 460.708 444.382 460.279L442.773 455.859L441.713 456.245L442.903 459.515C443.203 460.338 442.979 461.058 442.122 461.37C441.231 461.694 440.655 461.163 440.384 460.419L439.198 457.16L438.138 457.546L439.382 460.962C439.829 462.192 440.941 462.86 442.204 462.4C442.835 462.17 443.417 461.665 443.505 460.994ZM446.204 457.202C445.904 456.379 446.091 455.558 446.925 455.254C447.872 454.909 448.41 455.403 448.685 456.159L449.871 459.418L450.931 459.032L449.679 455.593C449.24 454.386 448.256 453.684 446.96 454.156C446.328 454.386 445.78 454.879 445.631 455.699L445.348 454.921L444.311 455.299L446.285 460.723L447.345 460.337L446.204 457.202ZM453.406 458.131L450.435 449.967L449.375 450.353L452.346 458.517L453.406 458.131ZM456.978 455.95C456.076 456.278 455.041 455.889 454.581 454.626C454.126 453.374 454.669 452.41 455.571 452.082C456.473 451.754 457.508 452.143 457.964 453.394C458.424 454.657 457.881 455.621 456.978 455.95ZM455.226 451.135C453.602 451.726 452.899 453.373 453.499 455.02C454.102 456.677 455.699 457.488 457.323 456.897C458.947 456.306 459.65 454.658 459.047 453C458.447 451.354 456.85 450.544 455.226 451.135ZM461.72 449.882C462.645 449.545 463.265 450.022 463.594 450.503L464.404 449.748C463.879 449.007 462.807 448.375 461.363 448.901C459.818 449.463 459.065 451.078 459.681 452.77C460.28 454.416 461.893 455.234 463.472 454.659C464.881 454.146 465.327 452.949 465.303 452.077L464.219 452.012C464.251 452.485 464.13 453.309 463.115 453.678C462.235 453.998 461.215 453.616 460.764 452.376C460.304 451.113 460.863 450.194 461.72 449.882ZM469.716 446.052L468.25 446.586L466.779 449.841L464.907 444.699L463.859 445.081L466.83 453.245L467.879 452.863L467.284 451.228L467.764 450.198L470.405 451.944L471.735 451.46L468.238 449.183L469.716 446.052Z" fill="#A0AEC0"/>
<path d="M268.882 499.654L268.509 498.628L264.753 499.995L263.863 497.548L267.268 496.308L266.891 495.271L263.485 496.51L262.591 494.052L266.346 492.685L265.972 491.659L261.112 493.428L264.022 501.423L268.882 499.654ZM269.672 499.367L270.935 498.907L271.584 496.41L273.709 497.897L274.983 497.434C274.496 497.113 272.469 495.718 271.982 495.397L272.941 492.034L271.69 492.49L271.075 494.872L269.051 493.45L267.765 493.918L270.685 495.869L269.672 499.367ZM276.489 491.662C277.414 491.326 278.034 491.802 278.363 492.283L279.173 491.528C278.648 490.787 277.576 490.156 276.132 490.681C274.587 491.244 273.834 492.859 274.45 494.55C275.049 496.196 276.662 497.014 278.241 496.439C279.65 495.926 280.096 494.73 280.072 493.857L278.989 493.792C279.02 494.266 278.899 495.089 277.884 495.458C277.004 495.779 275.984 495.396 275.533 494.156C275.073 492.893 275.632 491.974 276.489 491.662ZM282.93 494.541L279.958 486.377L278.898 486.763L281.87 494.927L282.93 494.541ZM288.014 491.95C288.096 492.175 288.23 492.472 288.298 492.588L289.312 492.218C289.22 492.035 289.047 491.664 288.891 491.235L287.282 486.815L286.222 487.201L287.412 490.471C287.712 491.294 287.488 492.014 286.631 492.326C285.741 492.65 285.164 492.119 284.893 491.375L283.707 488.116L282.647 488.502L283.891 491.918C284.338 493.147 285.45 493.816 286.713 493.356C287.344 493.126 287.926 492.62 288.014 491.95ZM290.044 490.356C290.36 490.943 291.341 491.672 292.829 491.13C294.171 490.641 294.481 489.494 294.202 488.727C293.911 487.927 293.175 487.518 292.116 487.661L291.166 487.789C290.716 487.851 290.427 487.688 290.308 487.361C290.173 486.989 290.406 486.508 290.947 486.311C291.804 485.999 292.256 486.537 292.403 486.802L293.212 486.112C292.923 485.668 292.108 484.867 290.619 485.409C289.559 485.794 288.978 486.9 289.315 487.824C289.594 488.591 290.31 488.982 291.222 488.854L292.22 488.721C292.708 488.658 293.051 488.827 293.174 489.165C293.314 489.549 293.11 490.006 292.512 490.224C291.745 490.503 291.153 490.208 290.88 489.668L290.044 490.356ZM297.212 489.343L295.238 483.919L294.189 484.301L296.163 489.725L297.212 489.343ZM293.205 482.335C293.357 482.752 293.819 482.967 294.236 482.815C294.664 482.659 294.88 482.198 294.728 481.781C294.572 481.352 294.11 481.137 293.682 481.293C293.265 481.445 293.049 481.906 293.205 482.335ZM301.687 481.572L300.548 481.986L300.515 486.736L297.447 483.115L296.252 483.55L300.425 488.174L301.496 487.784L301.687 481.572ZM304.008 483.166C303.799 482.45 304.09 481.566 304.98 481.241C305.939 480.893 306.668 481.317 306.974 482.087L304.008 483.166ZM307.645 483.439C307.663 484.121 307.4 484.766 306.52 485.087C305.607 485.419 304.662 484.997 304.286 484.035L308.368 482.55C308.355 482.478 308.317 482.338 308.268 482.203C307.652 480.512 306.297 479.702 304.629 480.31C303.264 480.806 302.458 482.415 303.077 484.118C303.746 485.956 305.406 486.552 306.861 486.023C308.124 485.563 308.717 484.491 308.673 483.422L307.645 483.439ZM314.457 476.86C314.397 476.869 314.242 476.9 314.095 476.953C313.543 477.154 312.94 477.604 312.849 478.582L312.504 477.634L311.467 478.012L313.441 483.436L314.501 483.05L313.512 480.333C313.077 479.137 313.502 478.446 314.393 478.122C314.54 478.069 314.702 478.022 314.868 477.988L314.457 476.86ZM317.024 478.429C316.815 477.713 317.106 476.828 317.997 476.504C318.955 476.155 319.684 476.579 319.99 477.349L317.024 478.429ZM320.661 478.701C320.68 479.384 320.416 480.029 319.537 480.349C318.623 480.682 317.678 480.259 317.302 479.298L321.384 477.812C321.371 477.74 321.333 477.601 321.284 477.466C320.668 475.774 319.314 474.965 317.645 475.572C316.28 476.069 315.474 477.677 316.094 479.38C316.763 481.218 318.423 481.814 319.877 481.285C321.14 480.825 321.734 479.754 321.689 478.684L320.661 478.701ZM324.665 473.208L324.741 477.803L322.038 474.165L320.876 474.587L324.632 479.363L325.748 478.957L325.656 474.316L328.601 477.918L329.695 477.52L329.48 471.456L328.364 471.862L328.654 476.379L325.759 472.81L324.665 473.208ZM331.602 475.179C331.914 476.036 332.904 476.544 334.009 476.142C334.979 475.789 335.331 475.073 335.428 474.603C335.572 474.998 335.68 475.189 335.751 475.316L336.789 474.938C336.717 474.811 336.569 474.546 336.397 474.072L335.408 471.354C335.022 470.294 334.054 469.6 332.43 470.191C331.257 470.617 330.584 471.68 330.849 472.758L331.95 472.626C331.788 471.97 332.037 471.355 332.781 471.084C333.604 470.785 334.114 471.097 334.307 471.627C334.377 471.819 334.348 472.021 334.037 472.185L332.649 472.933C331.763 473.409 331.249 474.209 331.602 475.179ZM333.831 475.197C333.29 475.394 332.812 475.134 332.664 474.728C332.488 474.243 332.732 473.861 333.158 473.629L334.725 472.778L334.816 473.026C335.247 474.21 334.699 474.881 333.831 475.197ZM339.389 467.786C339.328 467.795 339.173 467.826 339.027 467.879C338.474 468.08 337.871 468.529 337.78 469.507L337.436 468.56L336.398 468.938L338.372 474.362L339.432 473.976L338.443 471.258C338.008 470.063 338.434 469.372 339.324 469.048C339.471 468.994 339.633 468.948 339.799 468.913L339.389 467.786ZM342.096 469.916C341.69 468.8 342.034 467.781 343.004 467.428C343.974 467.075 344.839 467.628 345.245 468.744C345.652 469.861 345.362 470.924 344.392 471.277C343.377 471.646 342.502 471.032 342.096 469.916ZM345.991 470.759C346.11 471.086 346.247 471.355 346.314 471.471L347.341 471.098C347.296 471.012 347.108 470.633 346.919 470.115L344.313 462.954L343.264 463.336L344.54 466.843C344.2 466.469 343.509 466.184 342.55 466.533C341.017 467.091 340.455 468.777 341.014 470.31C341.601 471.923 343.041 472.828 344.631 472.25C345.477 471.942 345.888 471.282 345.958 470.668L345.991 470.759ZM348.067 469.237C348.383 469.824 349.363 470.553 350.851 470.011C352.193 469.523 352.504 468.376 352.225 467.609C351.933 466.808 351.197 466.399 350.138 466.542L349.189 466.671C348.738 466.732 348.449 466.569 348.33 466.242C348.195 465.87 348.428 465.389 348.97 465.192C349.827 464.88 350.278 465.418 350.426 465.684L351.234 464.994C350.945 464.55 350.13 463.748 348.641 464.29C347.581 464.676 347 465.781 347.337 466.706C347.616 467.473 348.333 467.863 349.244 467.736L350.243 467.602C350.731 467.54 351.073 467.709 351.196 468.047C351.336 468.43 351.132 468.888 350.534 469.105C349.768 469.384 349.175 469.089 348.902 468.55L348.067 469.237Z" fill="#2D3748"/>
<rect x="216.783" y="510.029" width="34.3938" height="34.3939" rx="17.1969" transform="rotate(-20 216.783 510.029)" fill="#D2DDE8" fill-opacity="0.42"/>
<rect x="228.836" y="154.775" width="53.3698" height="53.3698" rx="26.6849" transform="rotate(-20 228.836 154.775)" fill="#E8B42F"/>
<g clip-path="url(#clip0)">
<path d="M265.306 180.644L264.408 178.177C263.292 178.381 262.144 178.332 261.05 178.033C259.955 177.734 258.942 177.193 258.085 176.449C257.446 176.827 256.732 177.06 255.994 177.132C255.255 177.204 254.51 177.113 253.81 176.866C253.11 176.619 252.473 176.221 251.944 175.701C251.415 175.18 251.006 174.55 250.747 173.855L248.589 167.925C248.114 166.62 248.793 165.164 250.097 164.69L252.469 163.826C251.995 162.522 252.674 161.066 253.978 160.591L263.466 157.137C264.095 156.908 264.79 156.939 265.396 157.222C266.003 157.505 266.473 158.017 266.702 158.646L269.074 157.783C269.703 157.554 270.397 157.584 271.004 157.867C271.61 158.15 272.08 158.662 272.309 159.291L274.467 165.222C274.722 165.921 274.82 166.668 274.752 167.41C274.685 168.151 274.454 168.869 274.076 169.511C273.699 170.152 273.184 170.703 272.569 171.122C271.954 171.542 271.254 171.82 270.518 171.937C270.337 173.056 269.907 174.12 269.261 175.05C268.614 175.981 267.766 176.754 266.78 177.314L267.678 179.781L272.422 178.054C272.737 177.939 273.084 177.955 273.387 178.096C273.691 178.238 273.925 178.494 274.04 178.808C274.154 179.123 274.139 179.47 273.998 179.773C273.856 180.077 273.6 180.311 273.286 180.426L261.426 184.743C261.111 184.857 260.764 184.842 260.46 184.701C260.157 184.559 259.922 184.303 259.808 183.988C259.693 183.674 259.709 183.327 259.85 183.023C259.991 182.72 260.248 182.485 260.562 182.371L265.306 180.644ZM270.492 169.355L270.587 169.32C271.216 169.091 271.728 168.622 272.011 168.015C272.294 167.408 272.324 166.714 272.095 166.085L269.937 160.155L267.565 161.018L270.155 168.134C270.302 168.537 270.409 168.942 270.492 169.355ZM256.449 174.466C256.242 174.097 256.066 173.712 255.923 173.314L253.333 166.198L250.961 167.062L253.119 172.992C253.235 173.311 253.415 173.604 253.647 173.853C253.879 174.102 254.159 174.301 254.47 174.438C254.781 174.576 255.117 174.649 255.457 174.654C255.797 174.659 256.135 174.595 256.449 174.466ZM254.841 162.963L258.295 172.451C258.753 173.709 259.692 174.734 260.905 175.3C262.119 175.866 263.507 175.926 264.766 175.468C266.024 175.01 267.049 174.071 267.614 172.858C268.18 171.644 268.241 170.256 267.783 168.998L264.33 159.509L254.841 162.963Z" fill="white"/>
</g>
<path d="M252.026 270.245L249.816 264.173L243.947 266.309L244.593 268.085L248.551 266.644C248.825 267.713 248.515 269.703 246.096 270.584C244.033 271.335 241.603 270.553 240.538 267.626C239.454 264.649 240.979 262.524 242.924 261.816C244.836 261.12 246.438 261.839 247.337 263.045L248.983 261.622C247.62 259.877 245.15 258.879 242.241 259.938C239.129 261.071 237.04 264.436 238.474 268.377C239.915 272.335 243.526 273.626 246.655 272.487C248.567 271.792 249.475 270.446 249.679 269.375L250.386 270.842L252.026 270.245ZM257.389 266.588C256.188 267.026 254.756 266.512 254.134 264.804C253.512 263.096 254.291 261.816 255.492 261.379C256.71 260.936 258.113 261.421 258.735 263.129C259.363 264.855 258.606 266.145 257.389 266.588ZM254.846 259.603C252.393 260.495 251.255 262.998 252.172 265.518C253.095 268.055 255.576 269.24 258.029 268.348C260.498 267.449 261.637 264.946 260.714 262.409C259.796 259.889 257.315 258.704 254.846 259.603ZM266.074 265.132L261.617 252.886L259.655 253.6L264.112 265.846L266.074 265.132ZM268.416 259.587C267.843 258.014 268.427 256.671 269.713 256.203C270.998 255.735 272.235 256.396 272.807 257.969C273.38 259.542 272.871 260.934 271.586 261.402C270.25 261.888 268.988 261.16 268.416 259.587ZM271.759 249.194L269.848 249.89L271.658 254.863C271.213 254.431 270.246 254.036 268.808 254.559C266.491 255.403 265.592 257.933 266.454 260.301C267.359 262.787 269.626 264.069 271.994 263.207C273.161 262.782 273.814 261.893 273.951 261.058C274.074 261.397 274.322 261.919 274.423 262.093L276.301 261.41C276.235 261.281 275.939 260.679 275.668 259.935L271.759 249.194ZM284.921 258.272L283.142 253.384C282.76 252.335 283.136 251.317 284.185 250.936C285.301 250.529 286.046 251.101 286.391 252.048L288.219 257.072L290.147 256.37L288.368 251.482C287.999 250.467 288.38 249.409 289.412 249.033C290.511 248.633 291.266 249.182 291.617 250.146L293.446 255.17L295.34 254.48L293.395 249.135C292.6 246.953 290.835 246.523 289.346 247.065C288.281 247.453 287.452 248.176 287.203 249.492C286.413 248.688 285.287 248.542 284.204 248.936C283.274 249.275 282.402 250.09 282.237 251.108L281.855 250.06L279.977 250.743L282.976 258.98L284.921 258.272ZM297.284 248.083C297.032 247.179 297.397 245.973 298.632 245.524C299.985 245.031 300.942 245.66 301.327 246.612L297.284 248.083ZM302.329 248.68C302.353 249.59 301.972 250.438 300.788 250.869C299.57 251.312 298.263 250.773 297.757 249.54L303.778 247.348C303.783 247.308 303.718 247.025 303.601 246.704C302.653 244.099 300.555 242.966 298.018 243.889C295.938 244.647 294.637 247.074 295.585 249.679C296.601 252.469 299.171 253.373 301.404 252.56C303.383 251.84 304.261 250.199 304.177 248.601L302.329 248.68ZM308.954 249.525L307.175 244.637C306.794 243.588 307.17 242.57 308.219 242.188C309.335 241.782 310.08 242.354 310.424 243.301L312.253 248.324L314.181 247.623L312.402 242.734C312.032 241.719 312.414 240.661 313.445 240.286C314.545 239.886 315.3 240.434 315.651 241.398L317.479 246.422L319.374 245.733L317.428 240.388C316.634 238.206 314.869 237.776 313.38 238.317C312.315 238.705 311.486 239.428 311.237 240.745C310.446 239.941 309.321 239.795 308.238 240.189C307.308 240.527 306.436 241.343 306.27 242.361L305.889 241.312L304.011 241.995L307.009 250.233L308.954 249.525ZM323.688 244.162L323.288 243.063C324.051 243.686 325.132 243.867 326.299 243.442C328.701 242.568 329.489 240.155 328.584 237.668C327.704 235.249 325.684 233.858 323.214 234.757C321.946 235.219 321.214 236.156 321.076 236.934L319.247 231.91L317.319 232.612L321.776 244.858L323.688 244.162ZM326.611 238.405C327.202 240.029 326.629 241.349 325.343 241.817C324.092 242.272 322.77 241.642 322.179 240.018C321.582 238.378 322.208 237.096 323.459 236.641C324.762 236.167 326.014 236.765 326.611 238.405ZM331.526 235.62C331.274 234.716 331.639 233.51 332.874 233.061C334.227 232.568 335.184 233.197 335.569 234.149L331.526 235.62ZM336.57 236.217C336.595 237.127 336.214 237.975 335.03 238.406C333.812 238.849 332.505 238.31 331.999 237.077L338.02 234.885C338.025 234.845 337.96 234.562 337.843 234.241C336.895 231.636 334.797 230.503 332.26 231.426C330.18 232.184 328.879 234.611 329.827 237.216C330.843 240.006 333.413 240.91 335.646 240.097C337.625 239.377 338.502 237.736 338.419 236.138L336.57 236.217ZM343.055 227.727C342.964 227.741 342.749 227.781 342.512 227.867C341.43 228.261 340.707 229.118 340.645 230.156L340.164 228.837L338.253 229.532L341.251 237.77L343.213 237.056L341.785 233.131C341.225 231.592 341.598 230.46 343.12 229.906C343.323 229.832 343.549 229.769 343.782 229.723L343.055 227.727Z" fill="#2D3748"/>
<path d="M219.534 247.128L215.654 236.468L214.181 237.005L217.157 245.184L208.858 238.942L206.889 239.659L210.768 250.319L212.242 249.782L209.079 241.092L218 247.686L219.534 247.128ZM221.415 241.506C221.136 240.552 221.524 239.372 222.712 238.939C223.99 238.474 224.962 239.04 225.37 240.066L221.415 241.506ZM226.264 241.869C226.289 242.78 225.938 243.639 224.765 244.066C223.547 244.51 222.287 243.947 221.786 242.665L227.229 240.684C227.211 240.588 227.16 240.402 227.095 240.222C226.274 237.966 224.468 236.887 222.243 237.697C220.423 238.359 219.348 240.504 220.175 242.775C221.067 245.225 223.28 246.02 225.219 245.314C226.903 244.701 227.694 243.273 227.635 241.847L226.264 241.869ZM231.603 234.545L231.705 240.672L228.1 235.821L226.551 236.384L231.559 242.751L233.047 242.21L232.924 236.023L236.851 240.825L238.31 240.294L238.023 232.209L236.535 232.751L236.922 238.773L233.061 234.015L231.603 234.545ZM244.481 235.92C244.902 236.703 246.21 237.674 248.194 236.952C249.983 236.301 250.397 234.771 250.025 233.749C249.636 232.681 248.655 232.136 247.243 232.327L245.977 232.498C245.377 232.58 244.991 232.363 244.833 231.927C244.652 231.431 244.964 230.789 245.685 230.527C246.828 230.111 247.43 230.828 247.627 231.182L248.705 230.262C248.319 229.67 247.232 228.602 245.248 229.324C243.834 229.838 243.06 231.312 243.508 232.545C243.88 233.567 244.836 234.088 246.051 233.918L247.383 233.74C248.033 233.656 248.49 233.882 248.654 234.333C248.84 234.844 248.568 235.454 247.771 235.744C246.749 236.116 245.959 235.722 245.595 235.004L244.481 235.92ZM251.07 224.872L249.777 225.342L250.204 226.515C250.434 227.147 250.278 227.748 249.497 228.033L249.106 228.175L249.571 229.453L250.954 228.95L252.399 232.919C252.875 234.227 253.93 234.694 255.163 234.245C255.644 234.07 255.972 233.849 256.076 233.76L255.638 232.557C255.529 232.631 255.284 232.754 255.104 232.82C254.367 233.088 253.976 232.856 253.735 232.194L252.367 228.435L253.931 227.866L253.466 226.588L251.902 227.157L251.07 224.872ZM256.827 231.358C257.243 232.501 258.563 233.178 260.036 232.642C261.329 232.171 261.799 231.217 261.929 230.591C262.12 231.117 262.264 231.371 262.36 231.541L263.743 231.037C263.647 230.868 263.45 230.514 263.22 229.883L261.902 226.259C261.387 224.846 260.096 223.919 257.931 224.707C256.368 225.276 255.47 226.693 255.823 228.131L257.291 227.954C257.075 227.079 257.407 226.26 258.399 225.899C259.497 225.5 260.176 225.916 260.434 226.623C260.527 226.879 260.488 227.148 260.074 227.367L258.224 228.364C257.041 228.999 256.357 230.065 256.827 231.358ZM259.799 231.383C259.078 231.646 258.44 231.299 258.243 230.757C258.008 230.111 258.333 229.601 258.902 229.292L260.992 228.157L261.112 228.487C261.687 230.066 260.957 230.962 259.799 231.383ZM264.285 220.062L262.992 220.533L263.419 221.706C263.648 222.337 263.493 222.939 262.711 223.223L262.32 223.365L262.785 224.643L264.168 224.14L265.613 228.109C266.089 229.417 267.145 229.884 268.378 229.436C268.859 229.261 269.187 229.039 269.291 228.95L268.853 227.747C268.743 227.821 268.499 227.944 268.318 228.01C267.582 228.278 267.191 228.046 266.95 227.384L265.582 223.626L267.145 223.056L266.68 221.778L265.117 222.348L264.285 220.062ZM275.648 225.717C275.757 226.018 275.935 226.413 276.025 226.567L277.378 226.075C277.255 225.83 277.024 225.335 276.816 224.764L274.671 218.87L273.258 219.384L274.845 223.745C275.244 224.842 274.946 225.802 273.804 226.218C272.616 226.65 271.847 225.942 271.486 224.95L269.905 220.605L268.492 221.119L270.15 225.675C270.746 227.314 272.228 228.204 273.912 227.592C274.754 227.285 275.53 226.611 275.648 225.717ZM278.354 223.591C278.775 224.374 280.083 225.346 282.067 224.623C283.856 223.972 284.27 222.442 283.898 221.42C283.509 220.353 282.528 219.807 281.116 219.998L279.85 220.169C279.25 220.251 278.864 220.034 278.706 219.598C278.525 219.102 278.837 218.461 279.558 218.198C280.701 217.782 281.303 218.5 281.5 218.854L282.578 217.933C282.192 217.341 281.105 216.273 279.121 216.995C277.707 217.51 276.933 218.983 277.381 220.216C277.753 221.239 278.709 221.759 279.924 221.589L281.256 221.411C281.906 221.328 282.363 221.553 282.527 222.004C282.713 222.515 282.441 223.125 281.644 223.415C280.622 223.787 279.832 223.394 279.468 222.675L278.354 223.591ZM294.72 218.775C294.83 219.076 295.008 219.471 295.098 219.625L296.451 219.133C296.328 218.888 296.097 218.393 295.889 217.822L293.744 211.928L292.33 212.443L293.917 216.803C294.317 217.9 294.019 218.86 292.877 219.276C291.689 219.708 290.92 219 290.559 218.008L288.978 213.663L287.564 214.177L289.222 218.733C289.819 220.372 291.301 221.263 292.985 220.65C293.827 220.343 294.603 219.669 294.72 218.775ZM298.68 213.588C298.28 212.49 298.529 211.395 299.641 210.991C300.904 210.531 301.621 211.19 301.987 212.197L303.569 216.542L304.982 216.028L303.313 211.442C302.728 209.833 301.416 208.897 299.687 209.526C298.845 209.833 298.114 210.491 297.916 211.584L297.539 210.547L296.155 211.05L298.788 218.282L300.201 217.768L298.68 213.588ZM308.644 214.695L304.682 203.81L303.268 204.324L307.23 215.209L308.644 214.695ZM313.767 211.655C312.565 212.093 311.184 211.574 310.571 209.89C309.963 208.221 310.688 206.936 311.89 206.498C313.093 206.06 314.474 206.579 315.081 208.248C315.694 209.932 314.97 211.217 313.767 211.655ZM311.431 205.235C309.266 206.023 308.329 208.22 309.127 210.415C309.932 212.626 312.062 213.706 314.227 212.918C316.392 212.13 317.329 209.933 316.525 207.723C315.726 205.528 313.596 204.447 311.431 205.235ZM320.451 203.434C321.684 202.985 322.511 203.62 322.948 204.261L324.029 203.255C323.329 202.267 321.899 201.425 319.975 202.125C317.915 202.875 316.911 205.028 317.732 207.284C318.53 209.479 320.681 210.569 322.786 209.803C324.665 209.119 325.26 207.523 325.228 206.36L323.783 206.273C323.825 206.905 323.663 208.002 322.31 208.495C321.137 208.922 319.777 208.412 319.175 206.758C318.562 205.074 319.308 203.849 320.451 203.434ZM331.472 198.196L329.518 198.907L327.556 203.248L325.061 196.392L323.663 196.901L327.624 207.786L329.023 207.278L328.229 205.097L328.87 203.723L332.391 206.052L334.165 205.406L329.501 202.37L331.472 198.196ZM334.472 200.356C334.193 199.402 334.581 198.222 335.769 197.79C337.047 197.325 338.019 197.891 338.426 198.917L334.472 200.356ZM339.321 200.72C339.346 201.63 338.995 202.49 337.822 202.917C336.604 203.36 335.344 202.797 334.843 201.515L340.286 199.534C340.268 199.439 340.217 199.253 340.152 199.072C339.331 196.817 337.525 195.738 335.299 196.548C333.48 197.21 332.405 199.355 333.231 201.625C334.123 204.076 336.337 204.871 338.276 204.165C339.96 203.552 340.751 202.123 340.692 200.698L339.321 200.72ZM342.809 198.139C342.267 196.651 342.726 195.292 344.019 194.821C345.312 194.351 346.466 195.089 347.007 196.577C347.549 198.066 347.163 199.483 345.87 199.954C344.517 200.446 343.35 199.628 342.809 198.139ZM348.002 199.263C348.161 199.699 348.343 200.058 348.433 200.213L349.801 199.715C349.742 199.6 349.491 199.096 349.239 198.404L345.764 188.857L344.366 189.366L346.068 194.042C345.614 193.543 344.692 193.163 343.414 193.628C341.369 194.372 340.621 196.62 341.365 198.665C342.148 200.815 344.069 202.023 346.189 201.251C347.316 200.841 347.864 199.96 347.958 199.143L348.002 199.263ZM350.265 187.474L348.491 188.12L351.65 195.585L352.658 195.219L350.265 187.474ZM351.952 197.91C352.149 198.452 352.744 198.729 353.285 198.532C353.826 198.335 354.119 197.735 353.922 197.194C353.724 196.652 353.109 196.365 352.568 196.562C352.027 196.759 351.755 197.369 351.952 197.91Z" fill="#A0AEC0"/>
</g>
<defs>
<filter id="filter0_d" x="0.879593" y="0.0150299" width="649.362" height="655.033" filterUnits="userSpaceOnUse" color-interpolation-filters="sRGB">
<feFlood flood-opacity="0" result="BackgroundImageFix"/>
<feColorMatrix in="SourceAlpha" type="matrix" values="0 0 0 0 0 0 0 0 0 0 0 0 0 0 0 0 0 0 127 0"/>
<feOffset dx="7" dy="6"/>
<feGaussianBlur stdDeviation="27"/>
<feColorMatrix type="matrix" values="0 0 0 0 0.150694 0 0 0 0 0.178373 0 0 0 0 0.258333 0 0 0 0.14 0"/>
<feBlend mode="normal" in2="BackgroundImageFix" result="effect1_dropShadow"/>
<feBlend mode="normal" in="SourceGraphic" in2="effect1_dropShadow" result="shape"/>
</filter>
<filter id="filter1_i" x="66.5375" y="99.2815" width="437.114" height="260.614" filterUnits="userSpaceOnUse" color-interpolation-filters="sRGB">
<feFlood flood-opacity="0" result="BackgroundImageFix"/>
<feBlend mode="normal" in="SourceGraphic" in2="BackgroundImageFix" result="shape"/>
<feColorMatrix in="SourceAlpha" type="matrix" values="0 0 0 0 0 0 0 0 0 0 0 0 0 0 0 0 0 0 127 0" result="hardAlpha"/>
<feOffset dy="-0.5"/>
<feComposite in2="hardAlpha" operator="arithmetic" k2="-1" k3="1"/>
<feColorMatrix type="matrix" values="0 0 0 0 0.882353 0 0 0 0 0.905882 0 0 0 0 0.937255 0 0 0 1 0"/>
<feBlend mode="normal" in2="shape" result="effect1_innerShadow"/>
</filter>
<clipPath id="clip0">
<rect width="30.291" height="30.291" fill="white" transform="translate(243.627 161.672) rotate(-20)"/>
</clipPath>
</defs>
</svg>
