<svg width="287" height="223" viewBox="0 0 287 223" fill="none" xmlns="http://www.w3.org/2000/svg">
<g filter="url(#filter0_dd)">
<rect x="3.6723" y="147.325" width="422.214" height="75.9037" rx="10" transform="rotate(-20 3.6723 147.325)" fill="white"/>
</g>
<g clip-path="url(#clip0)">
<g filter="url(#filter1_i)">
<path d="M27.6212 138.609L384.704 8.64094L410.698 80.0576L53.6147 210.025L27.6212 138.609Z" fill="black" fill-opacity="0.01"/>
</g>
<path d="M249.906 96.0138L248.482 92.1009L244.66 93.4923L245.021 94.4846L247.795 93.4749C248.049 94.3145 247.866 95.8114 246.084 96.4599C244.652 96.9811 242.917 96.4249 242.146 94.305C241.374 92.1851 242.399 90.65 243.831 90.1287C245.072 89.6773 246.254 90.0132 247.033 91.032L247.881 90.2383C246.893 88.9632 245.198 88.4818 243.462 89.1139C241.488 89.8321 240.033 92.0091 241.018 94.7154C242.003 97.4217 244.409 98.2064 246.416 97.4758C247.758 96.9874 248.384 96.0061 248.504 95.2474L249.016 96.3381L249.906 96.0138ZM253.261 93.9115C252.359 94.2399 251.324 93.8506 250.864 92.5876C250.408 91.336 250.952 90.3721 251.854 90.0437C252.756 89.7154 253.791 90.1047 254.247 91.3564C254.707 92.6193 254.164 93.5832 253.261 93.9115ZM251.509 89.0965C249.885 89.6876 249.182 91.3353 249.782 92.9816C250.385 94.6393 251.982 95.4497 253.606 94.8587C255.23 94.2677 255.933 92.62 255.329 90.9624C254.73 89.316 253.133 88.5055 251.509 89.0965ZM258.464 92.8991L255.493 84.735L254.433 85.1208L257.404 93.2848L258.464 92.8991ZM259.635 89.3826C259.229 88.2662 259.573 87.247 260.542 86.8941C261.512 86.5411 262.378 87.0945 262.784 88.2108C263.19 89.3272 262.901 90.3904 261.931 90.7434C260.916 91.1128 260.041 90.4989 259.635 89.3826ZM263.53 90.2252C263.649 90.5522 263.785 90.8218 263.853 90.9376L264.879 90.5641C264.835 90.478 264.646 90.0998 264.458 89.5811L261.851 82.4206L260.803 82.8023L262.079 86.3092C261.739 85.9351 261.048 85.6503 260.089 85.9992C258.555 86.5573 257.994 88.243 258.552 89.7766C259.139 91.3891 260.58 92.295 262.17 91.7163C263.016 91.4084 263.427 90.7481 263.497 90.135L263.53 90.2252ZM273.877 87.2894L273.503 86.2632L269.748 87.63L268.857 85.183L272.263 83.9435L271.885 82.9061L268.48 84.1456L267.585 81.6873L271.34 80.3206L270.967 79.2945L266.107 81.0634L269.016 89.0583L273.877 87.2894ZM274.396 87.1004L275.659 86.6407L276.308 84.1441L278.433 85.631L279.707 85.1673C279.22 84.8465 277.193 83.4518 276.706 83.131L277.665 79.768L276.414 80.2236L275.799 82.6053L273.775 81.184L272.489 81.6518L275.409 83.603L274.396 87.1004ZM280.943 79.4945C281.867 79.158 282.488 79.6345 282.816 80.1153L283.627 79.3605C283.102 78.6194 282.029 77.9882 280.586 78.5135C279.041 79.0758 278.288 80.6907 278.903 82.3822C279.503 84.0285 281.115 84.8462 282.694 84.2716C284.104 83.7586 284.549 82.562 284.525 81.6895L283.442 81.6242C283.474 82.0979 283.352 82.9212 282.337 83.2905C281.458 83.6107 280.437 83.2286 279.986 81.9882C279.526 80.7252 280.086 79.8065 280.943 79.4945ZM287.112 82.4719L284.141 74.3079L283.081 74.6937L286.052 82.8577L287.112 82.4719ZM291.926 79.9791C292.008 80.2046 292.142 80.5009 292.21 80.6167L293.224 80.2473C293.132 80.0639 292.959 79.6928 292.803 79.2643L291.194 74.844L290.134 75.2298L291.324 78.4999C291.624 79.3231 291.4 80.0428 290.543 80.3548C289.653 80.679 289.076 80.1481 288.805 79.4039L287.619 76.145L286.559 76.5308L287.803 79.9475C288.25 81.1766 289.362 81.8448 290.625 81.3851C291.256 81.1552 291.838 80.6496 291.926 79.9791ZM293.686 78.4832C294.002 79.0705 294.982 79.7992 296.47 79.2574C297.812 78.769 298.123 77.6217 297.844 76.8549C297.552 76.0543 296.816 75.6454 295.757 75.7883L294.808 75.9167C294.358 75.9783 294.068 75.8154 293.949 75.4884C293.814 75.1163 294.047 74.6354 294.589 74.4384C295.446 74.1265 295.897 74.6646 296.045 74.9301L296.853 74.2398C296.564 73.796 295.749 72.9945 294.26 73.5363C293.2 73.9221 292.619 75.0274 292.956 75.9521C293.235 76.7189 293.952 77.1093 294.863 76.9819L295.862 76.8483C296.35 76.7856 296.692 76.9547 296.815 77.293C296.955 77.6764 296.751 78.1337 296.153 78.3512C295.387 78.6303 294.794 78.3352 294.521 77.796L293.686 78.4832ZM300.583 77.5691L298.609 72.1452L297.56 72.5269L299.534 77.9508L300.583 77.5691ZM296.576 70.5608C296.728 70.978 297.189 71.1932 297.607 71.0413C298.035 70.8854 298.25 70.4239 298.098 70.0067C297.943 69.5782 297.481 69.3631 297.053 69.519C296.635 69.6709 296.42 70.1323 296.576 70.5608ZM304.787 69.8964L303.648 70.3109L303.615 75.0608L300.547 71.4396L299.352 71.8746L303.525 76.4982L304.596 76.1083L304.787 69.8964ZM306.838 71.5892C306.628 70.8737 306.919 69.9888 307.81 69.6646C308.768 69.3157 309.497 69.7399 309.803 70.5098L306.838 71.5892ZM310.474 71.8619C310.493 72.5447 310.23 73.1896 309.35 73.5097C308.437 73.8422 307.491 73.4201 307.116 72.4585L311.198 70.9728C311.184 70.901 311.146 70.7616 311.097 70.6263C310.481 68.9348 309.127 68.1253 307.458 68.7327C306.094 69.2293 305.287 70.8382 305.907 72.5409C306.576 74.3789 308.236 74.9751 309.691 74.4457C310.954 73.986 311.547 72.9145 311.502 71.8452L310.474 71.8619Z" fill="#97A0AE"/>
</g>
<rect x="28.3996" y="159.781" width="34.3938" height="34.3939" rx="17.1969" transform="rotate(-20 28.3996 159.781)" fill="#D2DDE8" fill-opacity="0.42"/>
<g clip-path="url(#clip1)">
<path d="M43.4179 173.876C43.2175 173.784 43.0372 173.653 42.8877 173.491C42.7382 173.329 42.6224 173.139 42.547 172.932L41.1104 168.985C40.7294 167.938 40.7798 166.783 41.2506 165.773C41.7214 164.763 42.574 163.982 43.6209 163.601L47.56 162.167C47.9784 162.015 48.4385 162.027 48.8505 162.225L57.4645 166.242C57.8662 166.431 58.1769 166.771 58.3287 167.188C58.4805 167.605 58.4611 168.065 58.2747 168.468L54.258 177.082C54.0692 177.484 53.7291 177.794 53.312 177.946C52.8949 178.098 52.4347 178.079 52.0318 177.892L43.4179 173.876ZM56.7565 167.76L48.1426 163.743L44.1955 165.18C43.5674 165.409 43.0558 165.877 42.7734 166.483C42.4909 167.089 42.4606 167.782 42.6892 168.41L44.1258 172.357L52.7398 176.374L56.7565 167.76ZM45.3448 168.338C45.1354 168.414 44.9044 168.404 44.7024 168.31C44.5005 168.215 44.3443 168.045 44.2681 167.836C44.1919 167.626 44.2019 167.395 44.2961 167.193C44.3903 166.991 44.5608 166.835 44.7701 166.759C44.9795 166.683 45.2106 166.693 45.4125 166.787C45.6144 166.881 45.7707 167.052 45.8469 167.261C45.9231 167.47 45.913 167.701 45.8188 167.903C45.7247 168.105 45.5542 168.262 45.3448 168.338Z" fill="#718096"/>
</g>
<path d="M85.9992 173.042L83.3396 165.735L82.3699 166.088C82.488 166.939 81.9941 167.758 80.9875 168.15L81.2706 168.928L83.041 168.283L84.9167 173.436L85.9992 173.042ZM86.952 168.558C86.5457 167.442 86.4613 166.579 86.7328 165.956C86.908 165.56 87.2032 165.249 87.7219 165.06C88.2406 164.871 88.6671 164.92 89.0558 165.111C89.6638 165.413 90.1541 166.128 90.5604 167.245C90.9667 168.361 91.051 169.224 90.7795 169.847C90.6043 170.243 90.3092 170.554 89.7905 170.743C89.2718 170.932 88.8452 170.883 88.4566 170.692C87.8486 170.39 87.3583 169.675 86.952 168.558ZM85.8582 168.956C86.2235 169.96 86.7292 170.823 87.4767 171.368C88.2089 171.906 89.1101 172.102 90.1475 171.724C91.185 171.347 91.7496 170.617 91.9647 169.735C92.1869 168.837 92.0195 167.85 91.6542 166.847C91.2889 165.843 90.7832 164.98 90.0357 164.435C89.3035 163.897 88.4023 163.701 87.3649 164.079C86.3274 164.456 85.7628 165.186 85.5477 166.068C85.3255 166.966 85.4929 167.953 85.8582 168.956ZM93.3553 169.548C93.5153 169.988 93.9767 170.203 94.4165 170.043C94.8563 169.883 95.0827 169.417 94.9227 168.977C94.7626 168.538 94.2858 168.315 93.846 168.475C93.4062 168.635 93.1952 169.108 93.3553 169.548ZM95.815 165.332C95.4087 164.216 95.3243 163.353 95.5958 162.73C95.771 162.335 96.0662 162.023 96.5849 161.834C97.1036 161.645 97.5302 161.694 97.9188 161.885C98.5268 162.187 99.0171 162.903 99.4234 164.019C99.8297 165.135 99.9141 165.999 99.6426 166.621C99.4674 167.017 99.1722 167.328 98.6535 167.517C98.1348 167.706 97.7082 167.657 97.3196 167.466C96.7116 167.164 96.2213 166.449 95.815 165.332ZM94.7212 165.73C95.0865 166.734 95.5922 167.597 96.3397 168.142C97.0719 168.68 97.9731 168.876 99.0105 168.498C100.048 168.121 100.613 167.392 100.828 166.509C101.05 165.611 100.882 164.624 100.517 163.621C100.152 162.617 99.6462 161.754 98.8987 161.209C98.1665 160.671 97.2653 160.475 96.2279 160.853C95.1904 161.231 94.6258 161.96 94.4107 162.842C94.1885 163.741 94.3559 164.727 94.7212 165.73ZM102.416 162.93C102.01 161.813 101.925 160.95 102.197 160.328C102.372 159.932 102.667 159.62 103.186 159.431C103.705 159.243 104.131 159.292 104.52 159.482C105.128 159.785 105.618 160.5 106.024 161.616C106.431 162.733 106.515 163.596 106.243 164.218C106.068 164.614 105.773 164.926 105.254 165.115C104.736 165.304 104.309 165.254 103.921 165.064C103.312 164.762 102.822 164.046 102.416 162.93ZM101.322 163.328C101.687 164.331 102.193 165.195 102.941 165.74C103.673 166.278 104.574 166.473 105.611 166.096C106.649 165.718 107.214 164.989 107.429 164.106C107.651 163.208 107.483 162.222 107.118 161.218C106.753 160.215 106.247 159.352 105.5 158.806C104.767 158.268 103.866 158.073 102.829 158.45C101.791 158.828 101.227 159.557 101.012 160.44C100.789 161.338 100.957 162.324 101.322 163.328ZM109.017 160.527C108.61 159.411 108.526 158.548 108.798 157.925C108.973 157.53 109.268 157.218 109.787 157.029C110.305 156.84 110.732 156.889 111.121 157.08C111.729 157.382 112.219 158.098 112.625 159.214C113.031 160.33 113.116 161.193 112.844 161.816C112.669 162.212 112.374 162.523 111.855 162.712C111.337 162.901 110.91 162.852 110.521 162.661C109.913 162.359 109.423 161.644 109.017 160.527ZM107.923 160.925C108.288 161.929 108.794 162.792 109.541 163.337C110.274 163.875 111.175 164.071 112.212 163.693C113.25 163.316 113.814 162.587 114.029 161.704C114.252 160.806 114.084 159.819 113.719 158.816C113.354 157.812 112.848 156.949 112.1 156.404C111.368 155.866 110.467 155.67 109.43 156.048C108.392 156.425 107.827 157.155 107.612 158.037C107.39 158.936 107.558 159.922 107.923 160.925Z" fill="#97A0AE"/>
<path d="M74.4235 149.766L75.3685 149.064C75.5628 149.504 75.8609 149.809 76.2628 149.978C76.6723 150.143 77.1063 150.143 77.5648 149.976C78.0084 149.815 78.3312 149.544 78.5334 149.164C78.7356 148.784 78.756 148.372 78.5946 147.928C78.4195 147.447 78.1337 147.13 77.7372 146.976C77.3408 146.823 76.917 146.828 76.4659 146.992C75.9172 147.192 75.5379 147.53 75.3282 148.006C75.2093 148.007 75.0118 148.002 74.7356 147.992C74.4595 147.982 74.2442 147.975 74.0897 147.972L73.7154 143.996L77.5719 142.592L77.9413 143.607L74.8177 144.744L75.0399 147.039C75.2318 146.56 75.6623 146.199 76.3313 145.956C77.0605 145.69 77.7338 145.692 78.351 145.961C78.9758 146.227 79.4237 146.733 79.6945 147.477C79.9517 148.184 79.9198 148.868 79.5988 149.53C79.275 150.184 78.7147 150.656 77.9178 150.946C77.1661 151.219 76.4617 151.237 75.8048 151C75.1554 150.759 74.695 150.348 74.4235 149.766ZM81.0376 142.787C80.7733 143.394 80.8463 144.261 81.2567 145.389C81.6672 146.516 82.1687 147.228 82.7614 147.523C83.177 147.729 83.6216 147.746 84.0952 147.574C84.5688 147.401 84.8985 147.103 85.0843 146.677C85.3486 146.07 85.2756 145.203 84.8652 144.075C84.4547 142.948 83.9532 142.236 83.3605 141.941C82.9449 141.735 82.5003 141.718 82.0267 141.89C81.5531 142.063 81.2234 142.362 81.0376 142.787ZM81.7815 148.199C81.1101 147.711 80.5706 146.907 80.1629 145.787C79.7553 144.667 79.6518 143.704 79.8525 142.899C80.0866 141.928 80.6923 141.265 81.6696 140.909C82.6469 140.554 83.5372 140.672 84.3404 141.265C85.0118 141.753 85.5513 142.557 85.959 143.677C86.3667 144.797 86.4701 145.76 86.2694 146.565C86.0353 147.536 85.4296 148.199 84.4523 148.555C83.475 148.91 82.5847 148.792 81.7815 148.199ZM87.1657 140.301C87.0605 140.527 87.0544 140.767 87.1474 141.023C87.2405 141.278 87.4011 141.462 87.6295 141.575C87.855 141.68 88.0919 141.688 88.3399 141.598C88.588 141.507 88.7647 141.349 88.8699 141.124C88.9723 140.891 88.977 140.646 88.884 140.391C88.791 140.135 88.6317 139.955 88.4061 139.849C88.1805 139.744 87.9437 139.737 87.6956 139.827C87.4475 139.917 87.2709 140.075 87.1657 140.301ZM86.2115 141.363C86.0337 140.875 86.0585 140.393 86.2859 139.919C86.5209 139.442 86.8827 139.114 87.3713 138.936C87.86 138.758 88.3477 138.777 88.8344 138.991C89.3211 139.206 89.6534 139.557 89.8312 140.046C90.0118 140.542 89.9846 141.029 89.7496 141.506C89.5146 141.983 89.1528 142.31 88.6642 142.488C88.1755 142.666 87.6879 142.648 87.2012 142.433C86.722 142.216 86.3921 141.86 86.2115 141.363ZM93.0594 142.6C92.9542 142.825 92.9481 143.066 93.0411 143.322C93.1342 143.577 93.2948 143.761 93.5232 143.874C93.7487 143.979 93.9856 143.987 94.2336 143.896C94.4817 143.806 94.6584 143.648 94.7635 143.423C94.866 143.189 94.8707 142.945 94.7777 142.69C94.6847 142.434 94.5254 142.254 94.2998 142.148C94.0742 142.043 93.8374 142.036 93.5893 142.126C93.3412 142.216 93.1646 142.374 93.0594 142.6ZM92.1052 143.662C91.9274 143.174 91.9522 142.692 92.1796 142.218C92.4146 141.741 92.7764 141.413 93.265 141.235C93.7537 141.057 94.2414 141.076 94.7281 141.29C95.2148 141.505 95.547 141.856 95.7249 142.345C95.9055 142.841 95.8783 143.328 95.6433 143.805C95.4083 144.282 95.0465 144.609 94.5579 144.787C94.0692 144.965 93.5816 144.947 93.0949 144.732C92.6157 144.515 92.2858 144.158 92.1052 143.662ZM90.1949 146.273L89.1575 146.651L91.7527 137.431L92.7676 137.062L90.1949 146.273ZM104.21 141.364C103.12 141.76 102.047 141.725 100.991 141.258C99.9435 140.788 99.1869 139.914 98.7218 138.636C98.4099 137.779 98.3317 136.956 98.4873 136.167C98.6429 135.379 98.9616 134.722 99.4433 134.198C99.9222 133.666 100.5 133.277 101.177 133.03C102.079 132.702 102.921 132.655 103.705 132.889C104.493 133.113 105.131 133.579 105.618 134.287L104.723 135.021C104.354 134.475 103.896 134.118 103.35 133.95C102.801 133.776 102.2 133.807 101.546 134.045C100.764 134.33 100.196 134.852 99.8425 135.61C99.4859 136.362 99.4882 137.233 99.8494 138.226C100.211 139.218 100.771 139.891 101.529 140.245C102.288 140.599 103.058 140.633 103.84 140.349C104.494 140.111 104.976 139.739 105.287 139.235C105.594 138.723 105.729 138.146 105.691 137.504L106.803 137.508C106.867 138.362 106.673 139.139 106.222 139.84C105.775 140.53 105.104 141.038 104.21 141.364ZM109.459 137.806C109.913 138.024 110.377 138.046 110.85 137.874C111.324 137.702 111.661 137.387 111.861 136.932C112.066 136.465 112.057 135.928 111.836 135.319C111.617 134.717 111.28 134.308 110.827 134.09C110.377 133.862 109.916 133.834 109.442 134.006C108.969 134.179 108.63 134.498 108.425 134.964C108.225 135.42 108.234 135.949 108.453 136.55C108.674 137.159 109.01 137.578 109.459 137.806ZM107.401 134.609C107.728 133.868 108.293 133.352 109.098 133.059C109.902 132.766 110.663 132.8 111.382 133.16C112.105 133.51 112.617 134.098 112.918 134.925C113.222 135.759 113.214 136.545 112.895 137.283C112.574 138.013 112.007 138.526 111.195 138.821C110.383 139.117 109.619 139.088 108.904 138.736C108.185 138.376 107.674 137.779 107.37 136.944C107.069 136.117 107.08 135.339 107.401 134.609ZM118.545 135.214C118.501 135.536 118.358 135.822 118.117 136.072C117.873 136.314 117.582 136.497 117.243 136.62C116.627 136.844 116.061 136.82 115.545 136.548C115.026 136.269 114.651 135.814 114.422 135.182L113.178 131.765L114.238 131.38L115.424 134.639C115.572 135.044 115.791 135.343 116.082 135.535C116.381 135.725 116.741 135.743 117.162 135.589C117.583 135.436 117.857 135.196 117.985 134.868C118.11 134.534 118.096 134.156 117.943 133.735L116.753 130.464L117.812 130.079L119.421 134.499C119.55 134.852 119.691 135.18 119.843 135.482L118.828 135.851C118.738 135.697 118.643 135.484 118.545 135.214ZM123.424 136.605L122.375 136.987L119.621 129.42L120.647 129.047L120.955 129.893C121.009 129.549 121.161 129.23 121.411 128.935C121.661 128.639 121.997 128.415 122.418 128.262C123.2 127.977 123.906 128.023 124.536 128.398C125.174 128.77 125.642 129.366 125.94 130.185C126.241 131.012 126.261 131.78 125.999 132.488C125.745 133.193 125.231 133.687 124.457 133.969C124.058 134.114 123.675 134.16 123.306 134.107C122.938 134.053 122.628 133.928 122.377 133.73L123.424 136.605ZM124.857 130.579C124.658 130.031 124.347 129.633 123.925 129.386C123.508 129.129 123.055 129.09 122.567 129.268C122.086 129.443 121.76 129.765 121.591 130.236C121.426 130.696 121.444 131.2 121.644 131.749C121.849 132.313 122.164 132.722 122.588 132.976C123.018 133.22 123.473 133.254 123.954 133.079C124.435 132.904 124.758 132.586 124.923 132.126C125.084 131.659 125.063 131.143 124.857 130.579ZM128.928 130.719C129.382 130.937 129.846 130.96 130.319 130.788C130.793 130.615 131.13 130.301 131.33 129.845C131.535 129.379 131.527 128.842 131.305 128.233C131.086 127.631 130.75 127.222 130.296 127.004C129.847 126.775 129.385 126.748 128.912 126.92C128.438 127.092 128.099 127.412 127.894 127.878C127.694 128.334 127.703 128.862 127.922 129.464C128.144 130.073 128.479 130.491 128.928 130.719ZM126.871 127.522C127.197 126.782 127.763 126.266 128.567 125.973C129.371 125.68 130.133 125.714 130.851 126.074C131.574 126.423 132.087 127.012 132.387 127.839C132.691 128.673 132.684 129.459 132.365 130.197C132.043 130.927 131.476 131.439 130.664 131.735C129.852 132.03 129.089 132.002 128.373 131.65C127.654 131.29 127.143 130.692 126.84 129.858C126.539 129.031 126.549 128.252 126.871 127.522ZM134.652 126.542L135.793 129.677L134.733 130.063L132.759 124.639L133.796 124.261L134.079 125.039C134.213 124.284 134.656 123.769 135.407 123.496C136.031 123.269 136.581 123.294 137.057 123.572C137.54 123.848 137.897 124.301 138.127 124.932L139.379 128.372L138.319 128.757L137.133 125.499C136.801 124.589 136.215 124.287 135.373 124.594C134.975 124.739 134.715 124.995 134.593 125.363C134.476 125.72 134.496 126.113 134.652 126.542Z" fill="#262D37"/>
<defs>
<filter id="filter0_dd" x="0.672302" y="0.919346" width="428.712" height="221.732" filterUnits="userSpaceOnUse" color-interpolation-filters="sRGB">
<feFlood flood-opacity="0" result="BackgroundImageFix"/>
<feColorMatrix in="SourceAlpha" type="matrix" values="0 0 0 0 0 0 0 0 0 0 0 0 0 0 0 0 0 0 127 0"/>
<feOffset dy="1"/>
<feGaussianBlur stdDeviation="1.5"/>
<feColorMatrix type="matrix" values="0 0 0 0 0 0 0 0 0 0 0 0 0 0 0 0 0 0 0.1 0"/>
<feBlend mode="normal" in2="BackgroundImageFix" result="effect1_dropShadow"/>
<feColorMatrix in="SourceAlpha" type="matrix" values="0 0 0 0 0 0 0 0 0 0 0 0 0 0 0 0 0 0 127 0"/>
<feOffset dy="1"/>
<feGaussianBlur stdDeviation="1"/>
<feColorMatrix type="matrix" values="0 0 0 0 0 0 0 0 0 0 0 0 0 0 0 0 0 0 0.06 0"/>
<feBlend mode="normal" in2="effect1_dropShadow" result="effect2_dropShadow"/>
<feBlend mode="normal" in="SourceGraphic" in2="effect2_dropShadow" result="shape"/>
</filter>
<filter id="filter1_i" x="27.6212" y="8.64094" width="383.077" height="201.384" filterUnits="userSpaceOnUse" color-interpolation-filters="sRGB">
<feFlood flood-opacity="0" result="BackgroundImageFix"/>
<feBlend mode="normal" in="SourceGraphic" in2="BackgroundImageFix" result="shape"/>
<feColorMatrix in="SourceAlpha" type="matrix" values="0 0 0 0 0 0 0 0 0 0 0 0 0 0 0 0 0 0 127 0" result="hardAlpha"/>
<feOffset dy="-0.5"/>
<feComposite in2="hardAlpha" operator="arithmetic" k2="-1" k3="1"/>
<feColorMatrix type="matrix" values="0 0 0 0 0.882353 0 0 0 0 0.905882 0 0 0 0 0.937255 0 0 0 1 0"/>
<feBlend mode="normal" in2="shape" result="effect1_innerShadow"/>
</filter>
<clipPath id="clip0">
<rect width="354.613" height="75.9037" fill="white" transform="translate(60.5104 126.638) rotate(-20)"/>
</clipPath>
<clipPath id="clip1">
<rect width="20.1619" height="20.1619" fill="white" transform="translate(37.5203 164.034) rotate(-20)"/>
</clipPath>
</defs>
</svg>
