<svg width="165" height="45" viewBox="0 0 165 45" fill="none" xmlns="http://www.w3.org/2000/svg">
<path d="M58.2519 32.3592H69.9813V35.7743H54.6419V8.59085H58.2519V32.3592Z" fill="black" stroke="black" stroke-miterlimit="10"/>
<path d="M88.8504 33.3284C86.8563 35.2938 84.4382 36.2793 81.5904 36.2793C78.7425 36.2793 76.3302 35.2938 74.3476 33.3284C72.365 31.3629 71.3794 28.9391 71.3794 26.0684C71.3794 23.1976 72.3707 20.7738 74.3476 18.8084C76.3302 16.843 78.7425 15.8574 81.5904 15.8574C84.4382 15.8574 86.8563 16.843 88.8504 18.8084C90.8445 20.7738 91.8415 23.1976 91.8415 26.0684C91.8415 28.9391 90.8445 31.3629 88.8504 33.3284ZM81.5904 32.9788C83.5329 32.9788 85.1602 32.3199 86.4839 30.9962C87.8075 29.6726 88.4665 28.0338 88.4665 26.0626C88.4665 24.0972 87.8075 22.4527 86.4839 21.129C85.1602 19.8054 83.5329 19.1464 81.5904 19.1464C79.6765 19.1464 78.0549 19.8054 76.737 21.129C75.4191 22.4527 74.7544 24.0915 74.7544 26.0626C74.7544 28.0281 75.4134 29.6726 76.737 30.9962C78.0607 32.3199 79.6708 32.9788 81.5904 32.9788Z" fill="black" stroke="black" stroke-miterlimit="10"/>
<path d="M108.613 16.3613H112.223L104.298 36.9838C103.467 39.1842 102.31 40.8631 100.82 42.0148C99.3303 43.1666 97.617 43.6765 95.6745 43.5505V40.4047C98.0468 40.588 99.7887 39.2644 100.895 36.4337L101.267 35.706L92.8038 16.367H96.4137L102.889 31.2538L108.613 16.3613Z" fill="black" stroke="black" stroke-miterlimit="10"/>
<path d="M130.365 16.3616H133.745V35.7751H130.365V32.4345C128.68 34.9958 126.233 36.2793 123.024 36.2793C120.308 36.2793 117.988 35.288 116.074 33.3112C114.16 31.3286 113.197 28.9162 113.197 26.0684C113.197 23.2205 114.154 20.8082 116.074 18.8256C117.988 16.843 120.308 15.8574 123.024 15.8574C126.233 15.8574 128.68 17.1409 130.365 19.7023V16.3616ZM123.449 33.0189C125.414 33.0189 127.058 32.3542 128.382 31.0191C129.7 29.684 130.365 28.0338 130.365 26.0684C130.365 24.1029 129.706 22.4527 128.382 21.1176C127.064 19.7825 125.42 19.1178 123.449 19.1178C121.506 19.1178 119.879 19.7825 118.555 21.1176C117.237 22.4527 116.572 24.1029 116.572 26.0684C116.572 28.0338 117.231 29.684 118.555 31.0191C119.879 32.3542 121.506 33.0189 123.449 33.0189Z" fill="black" stroke="black" stroke-miterlimit="10"/>
<path d="M138.295 35.7747V7.42801H141.676V35.7747H138.295Z" fill="black" stroke="black" stroke-miterlimit="10"/>
<path d="M160.39 16.3613H164L156.075 36.9838C155.244 39.1842 154.087 40.8631 152.597 42.0148C151.107 43.1666 149.394 43.6765 147.451 43.5505V40.4047C149.824 40.588 151.566 39.2644 152.671 36.4337L153.044 35.706L144.581 16.367H148.191L154.666 31.2538L160.39 16.3613Z" fill="black" stroke="black" stroke-miterlimit="10"/>
<path d="M0 22.1827C0 10.3673 9.57495 0.792389 21.3904 0.792389C33.2057 0.792389 42.7807 10.3673 42.7807 22.1827C42.7807 33.9981 33.2057 43.5731 21.3904 43.5731C9.57495 43.5731 0 33.9981 0 22.1827Z" fill="#4C51BF"/>
<path fill-rule="evenodd" clip-rule="evenodd" d="M11.9645 19.518C11.3228 20.1597 11.3228 21.2084 11.9645 21.8501L16.0902 25.9758L21.3848 20.6812L17.2591 16.5555C16.6116 15.9138 15.5688 15.9138 14.927 16.5555L11.9645 19.518ZM21.3901 20.6817L16.0955 25.9763L20.2269 30.1019C20.8744 30.7437 21.9173 30.7437 22.5591 30.1019L26.6847 25.9763L21.3901 20.6817Z" fill="#F6F6FC"/>
<path d="M25.5155 16.5556C26.1573 15.9139 27.2001 15.9139 27.8476 16.5556L30.8101 19.5181C31.4519 20.1598 31.4519 21.2084 30.8101 21.8502L26.6844 25.9759L21.3899 20.6813L25.5155 16.5556Z" fill="#9497D9"/>
</svg>
