<svg width="585" height="300" viewBox="0 0 585 474" fill="none" xmlns="http://www.w3.org/2000/svg">
<g filter="url(#filter0_d)">
<path fill-rule="evenodd" clip-rule="evenodd" d="M51.3044 202.3C49.4155 197.11 52.0914 191.372 57.2811 189.483L434.124 52.323C439.314 50.4341 445.053 53.11 446.942 58.2997L475.972 138.061C464.277 142.317 458.264 155.293 462.541 167.043C466.818 178.794 479.765 184.869 491.46 180.612L520.417 260.171C522.306 265.361 519.63 271.099 514.44 272.988L137.597 410.148C132.407 412.037 126.669 409.361 124.78 404.171L95.7266 324.349C105.246 319.06 109.771 307.454 105.91 296.847C102.05 286.239 91.1232 280.257 80.4311 282.325L51.3044 202.3Z" fill="white"/>
<path d="M191.441 240.483C192.385 243.077 194.661 244.185 197.274 243.234C199.811 242.311 200.747 239.736 199.885 237.368L196.512 228.102L194.257 228.923L197.65 238.245C198.142 239.598 197.685 240.68 196.482 241.117C195.317 241.542 194.18 241.168 193.613 239.608L193.161 238.367L191.126 239.619L191.441 240.483ZM207.538 237.285C206.203 237.771 204.613 237.2 203.922 235.302C203.231 233.404 204.097 231.982 205.431 231.496C206.784 231.004 208.343 231.543 209.034 233.442C209.731 235.359 208.891 236.792 207.538 237.285ZM204.713 229.523C201.988 230.515 200.722 233.295 201.742 236.096C202.768 238.915 205.524 240.231 208.249 239.24C210.993 238.241 212.258 235.46 211.232 232.641C210.213 229.841 207.457 228.524 204.713 229.523ZM217.17 235.674L213.838 226.521L211.677 227.308L215.008 236.46L217.17 235.674ZM210.169 224.217C210.456 225.006 211.321 225.394 212.092 225.113C212.881 224.826 213.294 223.973 213.007 223.184C212.72 222.395 211.848 221.988 211.059 222.276C210.288 222.556 209.882 223.428 210.169 224.217ZM220.24 228.575C219.802 227.373 220.111 226.175 221.352 225.723C222.723 225.224 223.559 225.941 223.97 227.069L225.94 232.481L228.12 231.688L226.013 225.899C225.281 223.889 223.622 222.662 221.385 223.476C220.37 223.846 219.437 224.675 219.219 225.946L218.775 224.724L216.651 225.497L219.982 234.65L222.162 233.856L220.24 228.575ZM238.849 225.889C237.514 226.374 235.923 225.804 235.232 223.906C234.542 222.008 235.407 220.586 236.742 220.1C238.095 219.608 239.654 220.147 240.344 222.045C241.042 223.962 240.202 225.396 238.849 225.889ZM236.024 218.127C233.299 219.119 232.033 221.899 233.052 224.7C234.078 227.519 236.835 228.835 239.56 227.843C242.304 226.845 243.569 224.064 242.543 221.245C241.524 218.445 238.768 217.128 236.024 218.127ZM251.852 221.901C251.989 222.277 252.184 222.695 252.297 222.888L254.383 222.129C254.222 221.804 253.954 221.242 253.68 220.491L250.958 213.011L248.778 213.804L250.748 219.217C251.186 220.419 250.836 221.505 249.576 221.963C248.261 222.442 247.386 221.675 246.975 220.547L245.019 215.172L242.839 215.966L244.939 221.735C245.678 223.765 247.544 224.916 249.724 224.123C250.795 223.733 251.702 222.892 251.852 221.901ZM259.115 209.978C259.015 209.993 258.775 210.037 258.512 210.133C257.309 210.571 256.507 211.523 256.437 212.676L255.903 211.211L253.78 211.983L257.111 221.136L259.291 220.343L257.704 215.982C257.082 214.272 257.496 213.014 259.188 212.399C259.413 212.317 259.665 212.247 259.923 212.195L259.115 209.978ZM271.092 216.047L266.14 202.441L263.96 203.234L268.912 216.841L271.092 216.047ZM277.317 211.887C275.983 212.373 274.392 211.803 273.701 209.905C273.01 208.006 273.876 206.584 275.211 206.099C276.564 205.606 278.122 206.146 278.813 208.044C279.511 209.961 278.671 211.395 277.317 211.887ZM274.492 204.125C271.767 205.117 270.502 207.898 271.521 210.698C272.547 213.517 275.304 214.834 278.029 213.842C280.773 212.843 282.038 210.063 281.012 207.244C279.993 204.443 277.236 203.127 274.492 204.125ZM288.495 213.906L289.642 198.931L287.33 199.772L286.975 206.457L282.237 201.626L279.775 202.522L286.619 209.162L286.164 214.754L288.495 213.906ZM292.828 205.327C293.355 206.774 295.018 207.658 296.935 206.961C298.419 206.42 299.048 205.34 299.227 204.488C299.494 205.22 299.706 205.569 299.745 205.619L301.775 204.88C301.722 204.793 301.429 204.282 301.129 203.455L299.473 198.907C298.81 197.084 297.157 195.876 294.338 196.902C292.083 197.723 291.167 199.653 291.573 201.293L293.729 201.019C293.488 200.064 293.86 199.098 295.006 198.681C296.209 198.243 296.961 198.672 297.242 199.442C297.358 199.762 297.303 200.08 296.805 200.346L294.585 201.558C293.107 202.352 292.233 203.692 292.828 205.327ZM296.726 205.1C295.861 205.415 295.186 205.022 294.96 204.402C294.687 203.65 295.095 203.076 295.73 202.717L297.987 201.491L298.138 201.904C298.788 203.69 297.947 204.655 296.726 205.1ZM306.478 203.168L301.525 189.561L299.345 190.355L304.297 203.962L306.478 203.168ZM307.702 189.186L305.728 189.904L306.228 191.276C306.522 192.085 306.315 192.862 305.338 193.218L304.868 193.389L305.573 195.325L307.264 194.709L308.94 199.313C309.563 201.024 310.984 201.655 312.676 201.04C313.465 200.752 313.824 200.452 313.935 200.347L313.278 198.543C313.191 198.596 312.855 198.783 312.554 198.892C311.746 199.186 311.266 198.978 310.971 198.17L309.426 193.922L311.324 193.231L310.619 191.296L308.721 191.986L307.702 189.186ZM320.466 202.269L321.614 187.294L319.302 188.135L318.947 194.82L314.209 189.989L311.747 190.885L318.59 197.525L318.136 203.118L320.466 202.269ZM332.486 185.295C333.877 184.789 334.825 185.465 335.326 186.198L337.021 184.772C336.111 183.443 334.197 182.395 331.735 183.291C329.104 184.248 327.794 187.024 328.82 189.843C329.833 192.624 332.64 193.965 335.328 192.987C337.734 192.111 338.538 190.052 338.45 188.466L336.28 188.469C336.326 189.239 336.031 190.475 334.603 190.995C333.231 191.494 331.671 190.891 331 189.049C330.33 187.208 331.151 185.781 332.486 185.295ZM343.551 189.674L338.599 176.068L336.419 176.861L341.371 190.468L343.551 189.674ZM351.897 185.488C352.033 185.863 352.228 186.282 352.341 186.475L354.427 185.716C354.267 185.391 353.998 184.829 353.725 184.077L351.002 176.597L348.822 177.391L350.792 182.804C351.23 184.006 350.88 185.092 349.621 185.55C348.305 186.029 347.43 185.262 347.02 184.134L345.063 178.759L342.883 179.552L344.983 185.322C345.722 187.352 347.588 188.503 349.768 187.71C350.839 187.32 351.747 186.479 351.897 185.488ZM359.279 183.95L358.834 182.728C359.682 183.42 360.883 183.621 362.18 183.149C364.849 182.178 365.725 179.497 364.719 176.734C363.741 174.047 361.497 172.501 358.753 173.5C357.343 174.013 356.53 175.054 356.377 175.918L354.345 170.336L352.203 171.116L357.155 184.723L359.279 183.95ZM362.527 177.553C363.184 179.358 362.547 180.824 361.118 181.344C359.728 181.85 358.26 181.15 357.603 179.346C356.939 177.523 357.634 176.099 359.025 175.593C360.472 175.066 361.863 175.73 362.527 177.553Z" fill="#262D37"/>
<path d="M167.665 291.933C169.83 291.145 171.006 289.185 170.092 286.674L167.537 279.653L166.063 280.189L168.602 287.165C169.193 288.789 168.67 290.018 167.167 290.565C165.678 291.107 164.457 290.513 163.866 288.889L161.327 281.913L159.869 282.443L162.424 289.465C163.338 291.976 165.5 292.721 167.665 291.933ZM173.369 284.868C172.969 283.771 173.218 282.676 174.331 282.271C175.593 281.811 176.31 282.47 176.677 283.477L178.258 287.822L179.671 287.308L178.002 282.722C177.417 281.114 176.106 280.178 174.377 280.807C173.535 281.113 172.803 281.771 172.606 282.865L172.228 281.827L170.845 282.331L173.477 289.563L174.89 289.048L173.369 284.868ZM183.062 286.074L179.1 275.188L177.687 275.703L181.649 286.588L183.062 286.074ZM187.915 283.133C186.713 283.57 185.332 283.051 184.719 281.367C184.111 279.698 184.836 278.413 186.038 277.976C187.241 277.538 188.622 278.057 189.229 279.726C189.842 281.41 189.118 282.695 187.915 283.133ZM185.579 276.713C183.414 277.501 182.477 279.698 183.275 281.893C184.08 284.103 186.21 285.184 188.375 284.395C190.54 283.607 191.477 281.41 190.673 279.2C189.874 277.005 187.744 275.925 185.579 276.713ZM194.328 275.009C195.561 274.561 196.388 275.196 196.826 275.837L197.907 274.831C197.207 273.843 195.776 273.001 193.852 273.701C191.792 274.451 190.788 276.604 191.609 278.86C192.408 281.055 194.558 282.145 196.663 281.379C198.543 280.695 199.137 279.099 199.105 277.936L197.66 277.849C197.703 278.481 197.54 279.578 196.187 280.071C195.015 280.498 193.654 279.988 193.052 278.334C192.439 276.65 193.185 275.425 194.328 275.009ZM205.079 269.87L203.125 270.582L201.163 274.922L198.668 268.066L197.269 268.575L201.231 279.461L202.629 278.952L201.836 276.772L202.477 275.398L205.997 277.726L207.771 277.08L203.108 274.044L205.079 269.87ZM211.678 270.721C211.399 269.767 211.787 268.587 212.975 268.154C214.253 267.689 215.225 268.255 215.632 269.281L211.678 270.721ZM216.527 271.084C216.552 271.995 216.201 272.855 215.028 273.281C213.81 273.725 212.55 273.162 212.049 271.88L217.492 269.899C217.474 269.803 217.423 269.617 217.358 269.437C216.537 267.181 214.731 266.102 212.505 266.912C210.686 267.574 209.611 269.719 210.437 271.99C211.329 274.44 213.543 275.235 215.482 274.529C217.166 273.916 217.957 272.488 217.898 271.062L216.527 271.084ZM219.1 272.957L220.784 272.344L221.65 269.015L224.483 270.998L226.182 270.38C225.533 269.952 222.829 268.092 222.18 267.665L223.46 263.18L221.791 263.788L220.971 266.964L218.272 265.068L216.558 265.692L220.451 268.294L219.1 272.957ZM227.92 262.783C229.153 262.334 229.98 262.97 230.417 263.611L231.498 262.604C230.798 261.616 229.368 260.775 227.444 261.475C225.384 262.225 224.38 264.378 225.201 266.633C226 268.828 228.15 269.919 230.255 269.152C232.134 268.468 232.729 266.873 232.697 265.71L231.252 265.623C231.294 266.254 231.132 267.352 229.779 267.844C228.606 268.271 227.246 267.762 226.644 266.108C226.031 264.424 226.777 263.199 227.92 262.783ZM236.236 266.72L232.274 255.835L230.861 256.349L234.823 267.234L236.236 266.72ZM242.745 263.363C242.855 263.664 243.032 264.059 243.123 264.214L244.476 263.721C244.353 263.476 244.122 262.982 243.914 262.41L241.768 256.517L240.355 257.031L241.942 261.391C242.342 262.489 242.044 263.448 240.901 263.864C239.713 264.297 238.945 263.589 238.584 262.596L237.002 258.251L235.589 258.766L237.247 263.321C237.844 264.96 239.326 265.851 241.01 265.238C241.852 264.932 242.628 264.257 242.745 263.363ZM245.181 261.336C245.602 262.119 246.909 263.091 248.894 262.368C250.683 261.717 251.097 260.187 250.725 259.165C250.336 258.098 249.355 257.552 247.943 257.743L246.677 257.914C246.077 257.996 245.691 257.779 245.533 257.343C245.352 256.847 245.663 256.206 246.385 255.943C247.528 255.527 248.129 256.245 248.326 256.599L249.405 255.678C249.019 255.086 247.932 254.018 245.947 254.74C244.534 255.255 243.759 256.728 244.208 257.961C244.58 258.984 245.536 259.504 246.751 259.334L248.083 259.156C248.733 259.073 249.19 259.298 249.354 259.749C249.54 260.26 249.268 260.87 248.471 261.16C247.449 261.532 246.659 261.139 246.295 260.42L245.181 261.336ZM254.467 260.084L251.835 252.853L250.437 253.361L253.069 260.593L254.467 260.084ZM249.125 250.74C249.328 251.296 249.943 251.583 250.499 251.381C251.071 251.173 251.357 250.558 251.155 250.001C250.947 249.43 250.332 249.143 249.76 249.351C249.204 249.553 248.917 250.169 249.125 250.74ZM260.164 249.821L258.645 250.374L258.6 256.707L254.51 251.879L252.917 252.459L258.481 258.624L259.909 258.104L260.164 249.821ZM262.988 252.046C262.708 251.092 263.096 249.912 264.284 249.479C265.562 249.014 266.534 249.58 266.942 250.606L262.988 252.046ZM267.836 252.409C267.861 253.32 267.51 254.179 266.337 254.606C265.12 255.05 263.859 254.487 263.358 253.205L268.801 251.224C268.783 251.128 268.733 250.942 268.667 250.762C267.846 248.506 266.04 247.427 263.815 248.237C261.996 248.899 260.92 251.044 261.747 253.314C262.639 255.765 264.852 256.56 266.792 255.854C268.476 255.241 269.267 253.813 269.207 252.387L267.836 252.409ZM274.541 248.658C274 247.169 274.459 245.81 275.752 245.34C277.045 244.869 278.199 245.607 278.74 247.095C279.282 248.584 278.896 250.001 277.603 250.472C276.249 250.965 275.083 250.146 274.541 248.658ZM279.735 249.781C279.894 250.217 280.076 250.577 280.166 250.731L281.534 250.233C281.475 250.118 281.223 249.614 280.972 248.922L277.497 239.375L276.099 239.884L277.8 244.56C277.346 244.061 276.425 243.681 275.147 244.146C273.102 244.891 272.354 247.138 273.098 249.183C273.881 251.333 275.802 252.541 277.922 251.769C279.049 251.359 279.597 250.478 279.691 249.661L279.735 249.781ZM284.99 248.975L282.358 241.743L280.96 242.252L283.592 249.484L284.99 248.975ZM279.648 239.631C279.851 240.187 280.466 240.474 281.022 240.271C281.594 240.063 281.88 239.448 281.678 238.892C281.47 238.32 280.855 238.034 280.283 238.242C279.727 238.444 279.44 239.059 279.648 239.631ZM285.764 246.565C286.185 247.348 287.492 248.32 289.477 247.598C291.266 246.946 291.68 245.417 291.307 244.394C290.919 243.327 289.937 242.782 288.525 242.972L287.26 243.143C286.659 243.225 286.274 243.008 286.115 242.572C285.935 242.076 286.246 241.435 286.968 241.172C288.11 240.756 288.712 241.474 288.909 241.828L289.987 240.907C289.602 240.316 288.515 239.247 286.53 239.969C285.117 240.484 284.342 241.958 284.791 243.19C285.163 244.213 286.119 244.733 287.334 244.563L288.665 244.385C289.316 244.302 289.772 244.527 289.937 244.978C290.123 245.489 289.851 246.099 289.054 246.389C288.032 246.761 287.241 246.368 286.877 245.649L285.764 246.565ZM294.377 238.594C295.61 238.146 296.437 238.781 296.875 239.422L297.956 238.416C297.256 237.428 295.826 236.586 293.901 237.286C291.841 238.036 290.837 240.189 291.658 242.445C292.457 244.64 294.608 245.73 296.713 244.964C298.592 244.28 299.186 242.684 299.154 241.521L297.709 241.434C297.752 242.066 297.59 243.163 296.236 243.656C295.064 244.083 293.703 243.573 293.101 241.919C292.489 240.235 293.235 239.01 294.377 238.594ZM303.927 240.908C302.724 241.346 301.343 240.827 300.73 239.143C300.123 237.474 300.847 236.189 302.05 235.751C303.252 235.313 304.633 235.832 305.241 237.501C305.854 239.185 305.129 240.47 303.927 240.908ZM301.59 234.488C299.425 235.276 298.488 237.473 299.287 239.668C300.091 241.878 302.221 242.959 304.386 242.171C306.551 241.383 307.488 239.186 306.684 236.976C305.885 234.781 303.755 233.7 301.59 234.488ZM313.916 237.459C314.025 237.76 314.203 238.155 314.293 238.31L315.646 237.817C315.523 237.572 315.292 237.078 315.084 236.506L312.939 230.613L311.526 231.127L313.113 235.487C313.512 236.585 313.215 237.544 312.072 237.96C310.884 238.393 310.116 237.685 309.754 236.692L308.173 232.347L306.76 232.862L308.418 237.417C309.014 239.056 310.496 239.947 312.18 239.334C313.022 239.028 313.798 238.353 313.916 237.459ZM317.604 232.371C317.205 231.273 317.453 230.178 318.566 229.773C319.829 229.314 320.545 229.972 320.912 230.98L322.494 235.325L323.907 234.811L322.238 230.225C321.652 228.616 320.341 227.68 318.612 228.309C317.77 228.616 317.039 229.274 316.841 230.367L316.463 229.33L315.08 229.833L317.712 237.065L319.126 236.551L317.604 232.371ZM324.315 223.884L323.022 224.355L323.449 225.527C323.678 226.159 323.523 226.76 322.741 227.045L322.35 227.187L322.815 228.465L324.198 227.962L325.643 231.931C326.119 233.239 327.175 233.706 328.407 233.258C328.889 233.082 329.217 232.861 329.32 232.772L328.883 231.569C328.773 231.643 328.529 231.766 328.348 231.832C327.612 232.1 327.221 231.868 326.98 231.206L325.612 227.447L327.175 226.878L326.71 225.6L325.147 226.169L324.315 223.884ZM329.671 230.584C330.092 231.367 331.399 232.339 333.384 231.617C335.173 230.965 335.587 229.436 335.215 228.413C334.826 227.346 333.845 226.801 332.433 226.991L331.167 227.162C330.567 227.244 330.181 227.027 330.022 226.591C329.842 226.095 330.153 225.454 330.875 225.191C332.018 224.775 332.619 225.493 332.816 225.847L333.895 224.926C333.509 224.335 332.422 223.266 330.437 223.988C329.024 224.503 328.249 225.977 328.698 227.209C329.07 228.232 330.026 228.752 331.241 228.583L332.572 228.404C333.223 228.321 333.68 228.546 333.844 228.997C334.03 229.509 333.758 230.118 332.961 230.408C331.939 230.78 331.149 230.387 330.785 229.668L329.671 230.584ZM339.89 226.797C340.306 227.939 341.625 228.617 343.099 228.081C344.392 227.61 344.862 226.656 344.991 226.03C345.183 226.556 345.327 226.81 345.422 226.98L346.806 226.476C346.71 226.307 346.513 225.953 346.283 225.321L344.964 221.698C344.45 220.284 343.159 219.358 340.994 220.146C339.43 220.715 338.533 222.132 338.886 223.57L340.354 223.393C340.138 222.518 340.47 221.699 341.462 221.338C342.56 220.938 343.239 221.355 343.496 222.062C343.589 222.317 343.551 222.587 343.137 222.805L341.286 223.803C340.104 224.437 339.42 225.504 339.89 226.797ZM342.862 226.822C342.14 227.084 341.503 226.737 341.306 226.196C341.071 225.55 341.396 225.04 341.965 224.731L344.054 223.595L344.175 223.926C344.749 225.505 344.02 226.4 342.862 226.822ZM348.538 221.112C348.139 220.014 348.387 218.919 349.5 218.514C350.763 218.055 351.479 218.713 351.846 219.721L353.428 224.066L354.841 223.551L353.172 218.966C352.586 217.357 351.275 216.421 349.546 217.05C348.704 217.357 347.973 218.015 347.775 219.108L347.397 218.071L346.014 218.574L348.646 225.806L350.06 225.292L348.538 221.112ZM356.336 218.887C355.794 217.398 356.253 216.039 357.546 215.569C358.839 215.098 359.993 215.836 360.535 217.324C361.077 218.813 360.69 220.231 359.397 220.701C358.044 221.194 356.878 220.375 356.336 218.887ZM361.529 220.01C361.688 220.446 361.87 220.806 361.96 220.96L363.329 220.462C363.27 220.347 363.018 219.843 362.766 219.151L359.291 209.604L357.893 210.113L359.595 214.789C359.141 214.29 358.22 213.91 356.942 214.376C354.897 215.12 354.148 217.367 354.893 219.412C355.675 221.562 357.596 222.77 359.716 221.998C360.844 221.588 361.392 220.707 361.486 219.89L361.529 220.01ZM370.23 209.675C370.149 209.688 369.943 209.729 369.747 209.8C369.01 210.068 368.207 210.667 368.086 211.971L367.626 210.708L366.243 211.212L368.875 218.444L370.288 217.929L368.969 214.306C368.389 212.712 368.956 211.79 370.144 211.358C370.34 211.287 370.555 211.225 370.777 211.179L370.23 209.675ZM373.382 211.865C373.103 210.911 373.49 209.732 374.678 209.299C375.956 208.834 376.928 209.4 377.336 210.426L373.382 211.865ZM378.23 212.229C378.255 213.139 377.904 213.999 376.732 214.426C375.514 214.869 374.253 214.307 373.752 213.024L379.195 211.043C379.177 210.948 379.127 210.762 379.061 210.582C378.24 208.326 376.434 207.247 374.209 208.057C372.39 208.719 371.315 210.864 372.141 213.134C373.033 215.585 375.246 216.38 377.186 215.674C378.87 215.061 379.661 213.632 379.601 212.207L378.23 212.229ZM383.299 205.004L383.4 211.131L379.795 206.279L378.247 206.842L383.255 213.21L384.743 212.668L384.62 206.481L388.547 211.283L390.005 210.753L389.719 202.667L388.23 203.209L388.617 209.232L384.757 204.473L383.299 205.004ZM392.278 207.729C392.694 208.872 394.013 209.549 395.486 209.013C396.779 208.543 397.249 207.588 397.379 206.962C397.571 207.488 397.714 207.743 397.81 207.912L399.193 207.409C399.097 207.239 398.9 206.885 398.671 206.254L397.352 202.63C396.837 201.217 395.547 200.29 393.382 201.078C391.818 201.648 390.92 203.064 391.273 204.502L392.741 204.325C392.525 203.45 392.857 202.632 393.849 202.27C394.947 201.871 395.627 202.288 395.884 202.994C395.977 203.25 395.939 203.519 395.524 203.738L393.674 204.735C392.492 205.37 391.807 206.436 392.278 207.729ZM395.25 207.754C394.528 208.017 393.891 207.67 393.694 207.129C393.458 206.482 393.784 205.972 394.352 205.663L396.442 204.528L396.562 204.859C397.137 206.437 396.407 207.333 395.25 207.754ZM402.389 197.97C402.308 197.983 402.102 198.024 401.906 198.095C401.17 198.363 400.366 198.962 400.245 200.266L399.785 199.003L398.402 199.507L401.034 206.739L402.447 206.224L401.128 202.601C400.548 201.007 401.115 200.085 402.303 199.653C402.499 199.582 402.715 199.52 402.936 199.474L402.389 197.97ZM405.728 200.909C405.186 199.421 405.645 198.062 406.938 197.591C408.231 197.121 409.385 197.859 409.927 199.347C410.469 200.836 410.082 202.253 408.789 202.724C407.436 203.216 406.27 202.398 405.728 200.909ZM410.922 202.033C411.08 202.469 411.262 202.828 411.353 202.983L412.721 202.485C412.662 202.37 412.41 201.866 412.159 201.174L408.684 191.627L407.285 192.136L408.987 196.812C408.533 196.313 407.612 195.933 406.334 196.398C404.289 197.143 403.541 199.39 404.285 201.435C405.067 203.585 406.988 204.793 409.108 204.021C410.236 203.611 410.784 202.73 410.878 201.913L410.922 202.033ZM413.418 200.103C413.84 200.886 415.147 201.857 417.131 201.135C418.921 200.484 419.334 198.954 418.962 197.932C418.574 196.864 417.592 196.319 416.18 196.509L414.914 196.681C414.314 196.763 413.929 196.546 413.77 196.11C413.589 195.613 413.901 194.972 414.622 194.71C415.765 194.294 416.367 195.011 416.564 195.365L417.642 194.445C417.256 193.853 416.169 192.784 414.185 193.507C412.771 194.021 411.997 195.495 412.445 196.728C412.818 197.75 413.773 198.271 414.988 198.101L416.32 197.923C416.97 197.839 417.427 198.065 417.591 198.516C417.777 199.027 417.505 199.637 416.709 199.927C415.686 200.299 414.896 199.905 414.532 199.186L413.418 200.103Z" fill="#97A0AE"/>
<rect x="229.694" y="297.114" width="151.807" height="47.4398" rx="23.7199" transform="rotate(-20 229.694 297.114)" fill="#279EFF"/>
<path d="M276.66 301.28C275.987 300.18 274.451 299.002 271.94 299.916C269.956 300.638 268.853 302.708 269.505 304.497C270.085 306.091 271.556 306.764 273.3 306.504L274.918 306.273C275.907 306.134 276.62 306.504 276.872 307.196C277.173 308.023 276.747 308.91 275.469 309.375C273.935 309.934 272.766 309.201 272.256 308.127L270.747 309.221C271.471 310.694 273.353 311.984 276.06 310.999C278.495 310.113 279.259 308.047 278.657 306.393C278.11 304.89 276.67 304.069 274.654 304.377L273.005 304.619C272.113 304.74 271.506 304.382 271.259 303.705C270.964 302.893 271.453 301.898 272.536 301.504C273.964 300.984 274.876 301.759 275.222 302.382L276.66 301.28ZM283.16 308.16L280.495 300.837L278.766 301.467L281.431 308.789L283.16 308.16ZM277.559 298.994C277.789 299.626 278.481 299.936 279.098 299.712C279.729 299.482 280.06 298.799 279.83 298.168C279.6 297.537 278.903 297.211 278.271 297.441C277.655 297.666 277.33 298.363 277.559 298.994ZM285.031 307.938C285.763 309.34 287.554 310.051 289.494 309.345C292.245 308.343 292.59 306.157 291.879 304.203L289.466 297.572L287.782 298.185L288.121 299.117C287.586 298.631 286.71 298.422 285.567 298.838C283.553 299.571 282.77 301.678 283.481 303.633C284.231 305.692 286.207 306.676 288.161 305.965C289.229 305.576 289.785 304.812 289.893 304.126L290.172 304.892C290.713 306.381 290.279 307.339 288.896 307.843C287.888 308.209 286.936 307.79 286.487 306.932L285.031 307.938ZM287.905 304.372C286.762 304.788 285.706 304.27 285.24 302.992C284.786 301.744 285.288 300.643 286.4 300.238C287.483 299.844 288.575 300.365 289.029 301.613C289.489 302.876 289.018 303.967 287.905 304.372ZM294.47 299.259C294.12 298.296 294.367 297.338 295.359 296.977C296.457 296.577 297.125 297.151 297.454 298.053L299.03 302.383L300.774 301.749L299.088 297.118C298.503 295.509 297.175 294.528 295.386 295.179C294.574 295.475 293.828 296.138 293.653 297.155L293.298 296.178L291.599 296.796L294.264 304.118L296.008 303.483L294.47 299.259ZM307.265 298.467C307.374 298.767 307.53 299.102 307.62 299.257L309.289 298.649C309.161 298.39 308.946 297.94 308.727 297.338L306.549 291.354L304.805 291.989L306.381 296.319C306.731 297.282 306.451 298.15 305.444 298.516C304.392 298.899 303.692 298.286 303.363 297.384L301.798 293.084L300.054 293.719L301.734 298.334C302.325 299.958 303.818 300.879 305.562 300.244C306.419 299.932 307.145 299.26 307.265 298.467ZM314.24 300.082L312.9 296.399C313.478 296.818 314.439 296.979 315.492 296.596C317.596 295.83 318.333 293.689 317.534 291.494C316.746 289.329 314.926 288.118 312.761 288.906C311.633 289.317 310.983 290.149 310.852 290.912L310.491 289.92L308.807 290.533L312.511 300.712L314.24 300.082ZM315.79 292.129C316.299 293.527 315.815 294.725 314.657 295.146C313.515 295.562 312.359 294.961 311.85 293.563C311.352 292.194 311.851 290.991 312.994 290.575C314.166 290.149 315.292 290.761 315.79 292.129ZM324.481 288.335C324.131 287.373 324.378 286.415 325.371 286.054C326.468 285.654 327.137 286.228 327.465 287.13L329.041 291.46L330.785 290.825L329.1 286.195C328.514 284.586 327.187 283.605 325.397 284.256C324.585 284.551 323.839 285.215 323.665 286.232L323.309 285.254L321.61 285.873L324.275 293.195L326.019 292.56L324.481 288.335ZM335.639 287.543C334.571 287.932 333.299 287.476 332.746 285.957C332.193 284.439 332.886 283.301 333.953 282.913C335.036 282.519 336.283 282.95 336.835 284.469C337.394 286.002 336.721 287.149 335.639 287.543ZM333.379 281.334C331.199 282.127 330.186 284.352 331.002 286.592C331.823 288.847 334.028 289.901 336.208 289.107C338.403 288.308 339.415 286.084 338.595 283.828C337.779 281.588 335.574 280.535 333.379 281.334ZM342.924 278.115L343.039 283.811L339.706 279.286L337.842 279.965L342.882 286.422L344.672 285.771L344.53 279.863L348.265 284.463L350.009 283.828L349.69 275.653L347.915 276.298L348.301 281.896L344.728 277.459L342.924 278.115Z" fill="white"/>
</g>
<defs>
<filter id="filter0_d" x="0.884216" y="0.902802" width="583.953" height="472.665" filterUnits="userSpaceOnUse" color-interpolation-filters="sRGB">
<feFlood flood-opacity="0" result="BackgroundImageFix"/>
<feColorMatrix in="SourceAlpha" type="matrix" values="0 0 0 0 0 0 0 0 0 0 0 0 0 0 0 0 0 0 127 0"/>
<feOffset dx="7" dy="6"/>
<feGaussianBlur stdDeviation="27"/>
<feColorMatrix type="matrix" values="0 0 0 0 0.150694 0 0 0 0 0.178373 0 0 0 0 0.258333 0 0 0 0.14 0"/>
<feBlend mode="normal" in2="BackgroundImageFix" result="effect1_dropShadow"/>
<feBlend mode="normal" in="SourceGraphic" in2="effect1_dropShadow" result="shape"/>
</filter>
</defs>
</svg>
