<svg width="429" height="223" viewBox="0 0 429 223" fill="none" xmlns="http://www.w3.org/2000/svg">
<g filter="url(#filter0_dd)">
<rect x="3.00027" y="147.297" width="422.214" height="75.9037" rx="10" transform="rotate(-20 3.00027 147.297)" fill="white"/>
</g>
<g filter="url(#filter1_i)">
<path d="M21.9463 140.4L381.92 9.38048L407.881 80.7066L47.9069 211.726L21.9463 140.4Z" fill="black" fill-opacity="0.01"/>
</g>
<rect x="27.7273" y="159.752" width="34.3938" height="34.3939" rx="17.1969" transform="rotate(-20 27.7273 159.752)" fill="#D2DDE8" fill-opacity="0.42"/>
<g clip-path="url(#clip0)">
<path d="M42.7453 173.847C42.5449 173.755 42.3647 173.624 42.2152 173.462C42.0657 173.3 41.9499 173.11 41.8745 172.903L40.4378 168.956C40.0568 167.909 40.1073 166.754 40.5781 165.744C41.0489 164.735 41.9015 163.953 42.9483 163.572L46.8875 162.139C47.3059 161.986 47.766 161.998 48.178 162.196L56.7919 166.213C57.1936 166.402 57.5043 166.742 57.6562 167.159C57.808 167.576 57.7886 168.036 57.6022 168.439L53.5854 177.053C53.3966 177.455 53.0566 177.766 52.6395 177.917C52.2224 178.069 51.7621 178.05 51.3593 177.863L42.7453 173.847ZM56.084 167.731L47.47 163.715L43.523 165.151C42.8949 165.38 42.3833 165.849 42.1008 166.454C41.8183 167.06 41.7881 167.753 42.0167 168.381L43.4533 172.329L52.0672 176.345L56.084 167.731ZM44.6723 168.309C44.4629 168.385 44.2318 168.375 44.0299 168.281C43.828 168.187 43.6717 168.016 43.5955 167.807C43.5193 167.597 43.5294 167.366 43.6236 167.164C43.7177 166.962 43.8882 166.806 44.0976 166.73C44.307 166.654 44.538 166.664 44.74 166.758C44.9419 166.852 45.0981 167.023 45.1743 167.232C45.2505 167.441 45.2405 167.673 45.1463 167.874C45.0521 168.076 44.8816 168.233 44.6723 168.309Z" fill="#718096"/>
</g>
<path d="M81.8642 172.027C82.3843 173.14 83.8024 173.773 85.3585 173.207C86.9823 172.616 87.6359 171.114 87.1352 169.738C86.5853 168.227 85.2041 167.695 83.772 168.217C83.1969 168.426 82.6762 168.82 82.4806 169.3L82.2584 167.005L85.382 165.868L85.0126 164.854L81.1561 166.257L81.5304 170.233C81.9518 170.233 82.3322 170.26 82.7689 170.267C82.9656 169.826 83.3879 169.442 83.9066 169.253C84.7524 168.945 85.67 169.186 86.0353 170.19C86.3636 171.092 85.8738 171.921 85.0055 172.237C84.0922 172.57 83.2052 172.203 82.8092 171.326L81.8642 172.027ZM88.4268 167.748C88.0205 166.632 87.9362 165.769 88.2077 165.146C88.3829 164.751 88.678 164.439 89.1967 164.25C89.7155 164.061 90.142 164.11 90.5306 164.301C91.1386 164.603 91.6289 165.319 92.0352 166.435C92.4415 167.551 92.5259 168.415 92.2544 169.037C92.0792 169.433 91.784 169.745 91.2653 169.933C90.7466 170.122 90.3201 170.073 89.9314 169.883C89.3234 169.58 88.8331 168.865 88.4268 167.748ZM87.333 168.147C87.6983 169.15 88.204 170.013 88.9515 170.558C89.6837 171.096 90.5849 171.292 91.6223 170.914C92.6598 170.537 93.2245 169.808 93.4395 168.925C93.6617 168.027 93.4943 167.041 93.129 166.037C92.7637 165.033 92.2581 164.17 91.5105 163.625C90.7783 163.087 89.8771 162.892 88.8397 163.269C87.8023 163.647 87.2376 164.376 87.0225 165.259C86.8003 166.157 86.9677 167.143 87.333 168.147ZM95.0277 165.346C94.6213 164.23 94.537 163.366 94.8085 162.744C94.9837 162.348 95.2789 162.036 95.7976 161.848C96.3163 161.659 96.7428 161.708 97.1314 161.898C97.7395 162.201 98.2298 162.916 98.6361 164.033C99.0424 165.149 99.1267 166.012 98.8552 166.635C98.68 167.03 98.3849 167.342 97.8661 167.531C97.3474 167.72 96.9209 167.671 96.5323 167.48C95.9243 167.178 95.434 166.462 95.0277 165.346ZM93.9339 165.744C94.2991 166.748 94.8048 167.611 95.5524 168.156C96.2846 168.694 97.1858 168.89 98.2232 168.512C99.2606 168.134 99.8253 167.405 100.04 166.522C100.263 165.624 100.095 164.638 99.7299 163.634C99.3646 162.631 98.8589 161.768 98.1114 161.223C97.3792 160.685 96.478 160.489 95.4405 160.867C94.4031 161.244 93.8384 161.973 93.6234 162.856C93.4012 163.754 93.5686 164.74 93.9339 165.744ZM106.635 167.685L105.588 164.81C106.058 165.188 106.833 165.353 107.667 165.049C109.257 164.47 109.738 162.878 109.151 161.265C108.576 159.687 107.252 158.751 105.629 159.342C104.749 159.662 104.262 160.325 104.166 160.973L103.858 160.127L102.832 160.5L105.586 168.067L106.635 167.685ZM108.068 161.659C108.475 162.776 108.146 163.802 107.165 164.159C106.195 164.512 105.261 163.945 104.855 162.829C104.461 161.747 104.808 160.701 105.778 160.348C106.77 159.987 107.674 160.577 108.068 161.659ZM113.26 161.966C112.358 162.295 111.322 161.905 110.862 160.643C110.407 159.391 110.95 158.427 111.852 158.099C112.754 157.77 113.79 158.16 114.245 159.411C114.705 160.674 114.162 161.638 113.26 161.966ZM111.507 157.151C109.883 157.742 109.181 159.39 109.78 161.037C110.383 162.694 111.981 163.505 113.604 162.914C115.228 162.323 115.931 160.675 115.328 159.017C114.729 157.371 113.131 156.56 111.507 157.151ZM118.451 160.958L116.477 155.534L115.428 155.916L117.402 161.34L118.451 160.958ZM114.444 153.95C114.596 154.367 115.058 154.582 115.475 154.43C115.903 154.274 116.119 153.813 115.967 153.396C115.811 152.967 115.349 152.752 114.921 152.908C114.504 153.06 114.289 153.521 114.444 153.95ZM119.903 156.88C119.603 156.056 119.79 155.235 120.624 154.931C121.571 154.587 122.109 155.081 122.384 155.836L123.57 159.095L124.63 158.709L123.378 155.27C122.939 154.063 121.955 153.361 120.659 153.833C120.027 154.063 119.479 154.556 119.33 155.377L119.047 154.599L118.01 154.976L119.984 160.4L121.044 160.014L119.903 156.88ZM124.868 150.539L123.898 150.892L124.218 151.771C124.391 152.245 124.274 152.696 123.688 152.91L123.394 153.016L123.743 153.975L124.781 153.597L125.864 156.574C126.221 157.555 127.013 157.906 127.938 157.569C128.298 157.438 128.544 157.272 128.622 157.205L128.294 156.303C128.212 156.358 128.028 156.451 127.893 156.5C127.341 156.701 127.047 156.527 126.867 156.031L125.841 153.211L127.013 152.785L126.665 151.826L125.492 152.253L124.868 150.539ZM128.817 155.589C129.133 156.176 130.114 156.905 131.602 156.363C132.944 155.875 133.254 154.727 132.975 153.96C132.684 153.16 131.948 152.751 130.889 152.894L129.939 153.022C129.489 153.084 129.2 152.921 129.081 152.594C128.946 152.222 129.179 151.741 129.721 151.544C130.578 151.232 131.029 151.77 131.177 152.036L131.985 151.345C131.696 150.902 130.881 150.1 129.392 150.642C128.332 151.028 127.751 152.133 128.088 153.058C128.367 153.824 129.084 154.215 129.995 154.087L130.994 153.954C131.482 153.891 131.824 154.06 131.947 154.399C132.087 154.782 131.883 155.239 131.285 155.457C130.518 155.736 129.926 155.441 129.653 154.902L128.817 155.589ZM136.037 146.474L135.067 146.827L135.388 147.706C135.56 148.18 135.443 148.631 134.857 148.844L134.564 148.951L134.912 149.91L135.95 149.532L137.033 152.509C137.39 153.49 138.182 153.84 139.107 153.504C139.468 153.373 139.714 153.206 139.791 153.14L139.463 152.238C139.381 152.293 139.198 152.385 139.062 152.435C138.51 152.636 138.217 152.461 138.036 151.965L137.01 149.146L138.183 148.719L137.834 147.761L136.661 148.188L136.037 146.474ZM142.937 151.165C142.035 151.493 140.999 151.104 140.539 149.841C140.084 148.589 140.627 147.625 141.529 147.297C142.431 146.969 143.467 147.358 143.922 148.61C144.382 149.873 143.839 150.836 142.937 151.165ZM141.184 146.35C139.56 146.941 138.858 148.589 139.457 150.235C140.06 151.893 141.658 152.703 143.282 152.112C144.905 151.521 145.608 149.873 145.005 148.216C144.406 146.569 142.808 145.759 141.184 146.35ZM152.964 147.656C153.047 147.881 153.18 148.177 153.248 148.293L154.262 147.924C154.17 147.74 153.997 147.369 153.841 146.941L152.232 142.52L151.172 142.906L152.362 146.176C152.662 146.999 152.439 147.719 151.582 148.031C150.691 148.355 150.114 147.825 149.843 147.08L148.657 143.821L147.597 144.207L148.841 147.624C149.288 148.853 150.4 149.521 151.663 149.062C152.294 148.832 152.876 148.326 152.964 147.656ZM155.663 143.864C155.364 143.041 155.55 142.219 156.384 141.916C157.332 141.571 157.869 142.065 158.144 142.82L159.33 146.079L160.39 145.693L159.138 142.254C158.699 141.048 157.716 140.346 156.419 140.818C155.787 141.047 155.239 141.541 155.091 142.361L154.808 141.583L153.77 141.961L155.744 147.384L156.804 146.999L155.663 143.864ZM162.865 144.793L159.894 136.628L158.834 137.014L161.806 145.178L162.865 144.793ZM166.438 142.611C165.536 142.94 164.5 142.55 164.04 141.287C163.585 140.036 164.128 139.072 165.03 138.743C165.932 138.415 166.968 138.804 167.423 140.056C167.883 141.319 167.34 142.283 166.438 142.611ZM164.685 137.796C163.061 138.387 162.359 140.035 162.958 141.681C163.561 143.339 165.159 144.149 166.782 143.558C168.406 142.967 169.109 141.32 168.506 139.662C167.907 138.016 166.309 137.205 164.685 137.796ZM171.18 136.543C172.104 136.207 172.725 136.683 173.053 137.164L173.864 136.409C173.338 135.668 172.266 135.037 170.823 135.562C169.278 136.125 168.525 137.74 169.14 139.431C169.739 141.077 171.352 141.895 172.931 141.32C174.341 140.807 174.786 139.611 174.762 138.738L173.679 138.673C173.711 139.147 173.589 139.97 172.574 140.339C171.694 140.66 170.674 140.277 170.223 139.037C169.763 137.774 170.323 136.855 171.18 136.543ZM179.175 132.714L177.709 133.247L176.238 136.503L174.367 131.361L173.318 131.743L176.289 139.907L177.338 139.525L176.743 137.89L177.223 136.859L179.864 138.606L181.195 138.121L177.697 135.844L179.175 132.714Z" fill="#97A0AE"/>
<path d="M73.7515 149.737L74.6965 149.036C74.8908 149.476 75.1889 149.78 75.5908 149.949C76.0003 150.115 76.4343 150.114 76.8928 149.947C77.3364 149.786 77.6592 149.515 77.8614 149.135C78.0636 148.755 78.084 148.343 77.9226 147.9C77.7475 147.419 77.4617 147.101 77.0652 146.948C76.6688 146.794 76.245 146.799 75.7939 146.963C75.2452 147.163 74.8659 147.501 74.6562 147.978C74.5373 147.978 74.3398 147.974 74.0637 147.963C73.7875 147.953 73.5722 147.946 73.4178 147.943L73.0434 143.967L76.8999 142.564L77.2693 143.579L74.1457 144.715L74.3679 147.01C74.5598 146.531 74.9903 146.17 75.6593 145.927C76.3885 145.661 77.0618 145.663 77.679 145.932C78.3038 146.199 78.7517 146.704 79.0225 147.448C79.2797 148.155 79.2478 148.839 78.9268 149.501C78.603 150.155 78.0427 150.627 77.2458 150.917C76.4941 151.191 75.7897 151.209 75.1328 150.971C74.4834 150.731 74.023 150.319 73.7515 149.737ZM84.6387 149.516L83.7591 149.836L83.3323 148.664C82.5757 148.854 81.909 148.811 81.332 148.536C80.7524 148.253 80.3288 147.85 80.0614 147.326L81.0096 146.597C81.1894 146.975 81.4492 147.267 81.789 147.476C82.1287 147.684 82.5228 147.749 82.9711 147.671L82.1133 145.315L81.8109 145.361C81.1808 145.454 80.636 145.384 80.1766 145.151C79.7173 144.918 79.3891 144.531 79.1921 143.99C78.9951 143.448 79.0219 142.902 79.2726 142.351C79.5308 141.798 79.9619 141.368 80.566 141.063L80.1351 139.879L81.0147 139.559L81.4497 140.754C82.1038 140.61 82.6605 140.654 83.1198 140.887C83.584 141.11 83.9532 141.423 84.2274 141.825L83.3479 142.567C83.2201 142.332 83.0197 142.133 82.747 141.968C82.4742 141.803 82.1636 141.733 81.815 141.758L82.6564 144.07L82.8378 144.042C83.498 143.938 84.0783 144.012 84.5787 144.264C85.0791 144.516 85.4223 144.898 85.6084 145.409C85.8027 145.943 85.782 146.482 85.5463 147.028C85.3107 147.573 84.8659 148.012 84.2119 148.343L84.6387 149.516ZM84.5238 145.867C84.4335 145.619 84.2626 145.43 84.011 145.301C83.7595 145.171 83.442 145.129 83.0586 145.175L83.8507 147.351C84.1794 147.155 84.3984 146.926 84.5077 146.665C84.6169 146.404 84.6223 146.138 84.5238 145.867ZM80.292 143.538C80.4918 144.087 80.9621 144.303 81.7029 144.187L80.9231 142.044C80.6218 142.222 80.414 142.447 80.3 142.718C80.1934 142.987 80.1908 143.26 80.292 143.538ZM91.3329 144.13C91.7868 144.348 92.2505 144.37 92.7241 144.198C93.1977 144.026 93.5346 143.712 93.7347 143.256C93.9396 142.789 93.9313 142.252 93.7097 141.643C93.4908 141.042 93.1544 140.632 92.7005 140.414C92.2513 140.186 91.79 140.158 91.3164 140.33C90.8428 140.503 90.5035 140.822 90.2986 141.288C90.0985 141.744 90.1079 142.273 90.3268 142.874C90.5484 143.483 90.8838 143.902 91.3329 144.13ZM89.2753 140.933C89.6018 140.192 90.1672 139.676 90.9716 139.383C91.776 139.09 92.5374 139.124 93.2559 139.484C93.9791 139.834 94.4912 140.422 94.7922 141.249C95.0959 142.083 95.0883 142.869 94.7693 143.607C94.4476 144.337 93.8808 144.85 93.0689 145.145C92.257 145.441 91.4932 145.412 90.7775 145.06C90.059 144.7 89.5479 144.103 89.2442 143.268C88.9433 142.441 88.9536 141.663 89.2753 140.933ZM100.356 134.141C100.123 134.226 99.9459 134.371 99.825 134.577C99.7089 134.773 99.7124 135.04 99.8355 135.378L100.147 136.235L101.455 135.759L101.804 136.717L100.496 137.193L102.122 141.659L101.028 142.057L99.4025 137.592L96.933 138.49L98.5583 142.956L97.4645 143.354L95.8392 138.888L94.8356 139.254L94.4867 138.295L95.4903 137.93L95.1579 137.017C94.9472 136.438 94.9508 135.921 95.1687 135.467C95.3866 135.014 95.7511 134.694 96.2623 134.508C96.5856 134.39 96.8098 134.351 96.9349 134.39L97.2796 135.338C97.1504 135.334 96.9881 135.367 96.7927 135.438C96.5596 135.523 96.3826 135.668 96.2617 135.874C96.1456 136.07 96.1491 136.337 96.2722 136.675L96.5841 137.532L99.0536 136.633L98.7212 135.72C98.5105 135.141 98.5141 134.624 98.732 134.171C98.9499 133.717 99.3145 133.397 99.8257 133.211C100.149 133.093 100.373 133.054 100.498 133.094L100.843 134.041C100.714 134.037 100.551 134.07 100.356 134.141Z" fill="#262D37"/>
<g clip-path="url(#clip1)">
<rect x="268" y="72.6198" width="130.459" height="36.276" rx="18.138" transform="rotate(-20 268 72.6198)" fill="#279EFF"/>
<path d="M320.99 76.7449L322.726 76.1129L319.822 73.4666C320.76 72.7804 321.106 71.6967 320.7 70.5803C320.195 69.1933 318.813 68.4833 317.257 69.0496L314.133 70.1865L317.043 78.1814L318.611 77.6109L317.49 74.5325L318.302 74.237L320.99 76.7449ZM317.002 73.1906L316.193 70.9692L317.456 70.5095C318.246 70.2222 318.868 70.4937 319.114 71.1703C319.352 71.8243 319.054 72.4436 318.265 72.7309L317.002 73.1906ZM323.678 71.9099C323.527 71.3901 323.743 70.6478 324.521 70.3646C325.378 70.0527 325.935 70.4626 326.159 71.0069L323.678 71.9099ZM326.831 72.3969C326.831 72.9588 326.575 73.4479 325.876 73.7023C325.132 73.9732 324.319 73.669 324.018 72.9483L327.987 71.5036C327.979 71.4811 327.919 71.2473 327.841 71.0331C327.193 69.2514 325.769 68.5311 324.055 69.155C322.634 69.6721 321.745 71.2984 322.389 73.0688C323.07 74.9406 324.81 75.546 326.332 74.9919C327.697 74.4953 328.285 73.3746 328.218 72.3135L326.831 72.3969ZM332.374 63.3559L330.897 63.8936L332.05 67.0622C331.785 66.8265 331.191 66.596 330.232 66.9449C328.665 67.5154 328.035 69.1877 328.626 70.8115C329.237 72.4916 330.816 73.3216 332.395 72.747C333.139 72.4761 333.58 71.9326 333.668 71.4026C333.762 71.6619 333.895 71.9202 333.958 72.0248L335.39 71.5036C335.286 71.2862 335.116 70.8885 334.98 70.5164L332.374 63.3559ZM330.137 70.2615C329.776 69.2692 330.179 68.4837 330.946 68.2047C331.713 67.9256 332.512 68.2606 332.873 69.2529C333.238 70.2565 332.854 71.0604 332.087 71.3395C331.298 71.6268 330.498 71.2538 330.137 70.2615ZM336.827 67.1243C336.676 66.6045 336.891 65.8622 337.669 65.579C338.526 65.2671 339.084 65.677 339.307 66.2213L336.827 67.1243ZM339.979 67.6113C339.98 68.1732 339.723 68.6623 339.024 68.9167C338.28 69.1876 337.467 68.8834 337.166 68.1627L341.136 66.718C341.127 66.6955 341.068 66.4617 340.99 66.2475C340.341 64.4658 338.917 63.7455 337.203 64.3694C335.782 64.8865 334.893 66.5128 335.537 68.2831C336.219 70.155 337.959 70.7604 339.481 70.2063C340.845 69.7097 341.433 68.589 341.366 67.5279L339.979 67.6113ZM343.059 64.8557C342.909 64.336 343.124 63.5936 343.902 63.3104C344.759 62.9985 345.317 63.4084 345.54 63.9528L343.059 64.8557ZM346.212 65.3428C346.212 65.9046 345.956 66.3937 345.257 66.6482C344.513 66.9191 343.7 66.6148 343.399 65.8942L347.368 64.4495C347.36 64.4269 347.301 64.1932 347.223 63.9789C346.574 62.1973 345.15 61.477 343.436 62.1008C342.015 62.6179 341.126 64.2442 341.77 66.0146C342.451 67.8865 344.191 68.4919 345.714 67.9378C347.078 67.4412 347.666 66.3204 347.599 65.2593L346.212 65.3428ZM350.938 65.8448L349.756 62.5973C349.534 61.9883 349.741 61.3639 350.395 61.1259C351.072 60.8796 351.54 61.2198 351.758 61.8175L352.956 65.1102L354.445 64.5684L353.263 61.3208C353.045 60.7232 353.248 60.0875 353.891 59.8536C354.578 59.6032 355.036 59.9475 355.253 60.5452L356.452 63.8379L357.906 63.3084L356.597 59.7113C356.055 58.2228 354.849 57.9597 353.823 58.3332C353.09 58.5999 352.593 59.0614 352.4 59.8981C351.901 59.403 351.173 59.2977 350.417 59.5726C349.808 59.7943 349.204 60.346 349.097 60.9981L348.851 60.3215L347.419 60.8428L349.438 66.3907L350.938 65.8448Z" fill="white"/>
</g>
<defs>
<filter id="filter0_dd" x="0.000274658" y="0.891129" width="428.712" height="221.732" filterUnits="userSpaceOnUse" color-interpolation-filters="sRGB">
<feFlood flood-opacity="0" result="BackgroundImageFix"/>
<feColorMatrix in="SourceAlpha" type="matrix" values="0 0 0 0 0 0 0 0 0 0 0 0 0 0 0 0 0 0 127 0"/>
<feOffset dy="1"/>
<feGaussianBlur stdDeviation="1.5"/>
<feColorMatrix type="matrix" values="0 0 0 0 0 0 0 0 0 0 0 0 0 0 0 0 0 0 0.1 0"/>
<feBlend mode="normal" in2="BackgroundImageFix" result="effect1_dropShadow"/>
<feColorMatrix in="SourceAlpha" type="matrix" values="0 0 0 0 0 0 0 0 0 0 0 0 0 0 0 0 0 0 127 0"/>
<feOffset dy="1"/>
<feGaussianBlur stdDeviation="1"/>
<feColorMatrix type="matrix" values="0 0 0 0 0 0 0 0 0 0 0 0 0 0 0 0 0 0 0.06 0"/>
<feBlend mode="normal" in2="effect1_dropShadow" result="effect2_dropShadow"/>
<feBlend mode="normal" in="SourceGraphic" in2="effect2_dropShadow" result="shape"/>
</filter>
<filter id="filter1_i" x="21.9463" y="9.38048" width="385.935" height="202.346" filterUnits="userSpaceOnUse" color-interpolation-filters="sRGB">
<feFlood flood-opacity="0" result="BackgroundImageFix"/>
<feBlend mode="normal" in="SourceGraphic" in2="BackgroundImageFix" result="shape"/>
<feColorMatrix in="SourceAlpha" type="matrix" values="0 0 0 0 0 0 0 0 0 0 0 0 0 0 0 0 0 0 127 0" result="hardAlpha"/>
<feOffset dy="-0.5"/>
<feComposite in2="hardAlpha" operator="arithmetic" k2="-1" k3="1"/>
<feColorMatrix type="matrix" values="0 0 0 0 0.882353 0 0 0 0 0.905882 0 0 0 0 0.937255 0 0 0 1 0"/>
<feBlend mode="normal" in2="shape" result="effect1_innerShadow"/>
</filter>
<clipPath id="clip0">
<rect width="20.1619" height="20.1619" fill="white" transform="translate(36.8477 164.005) rotate(-20)"/>
</clipPath>
<clipPath id="clip1">
<rect width="130.459" height="36.276" fill="white" transform="translate(268 72.6198) rotate(-20)"/>
</clipPath>
</defs>
</svg>
